<?xml version="1.0" encoding="utf-8"?>
<svg version="1.1" id="svg8" x="0px" y="0px" viewBox="0 375 595.3 100" style="enable-background:new 0 375 595.3 100;" xmlns="http://www.w3.org/2000/svg">
  <defs>
    <linearGradient gradientUnits="userSpaceOnUse" x1="297.555" y1="378.8" x2="297.555" y2="471.016" id="gradient-0" gradientTransform="matrix(-0.000269, -1.000001, 7.015675, -0.001888, -2682.073151, 753.967562)">
      <stop offset="0" style="stop-color: rgb(70, 37, 35);"/>
      <stop offset="0.1" style="stop-color: rgb(203, 155, 81);"/>
      <stop offset="0.424" style="stop-color: rgb(246, 226, 122);"/>
      <stop offset="0.496" style="stop-color: rgb(204, 184, 0);"/>
      <stop offset="0.569" style="stop-color: rgb(246, 226, 122);"/>
      <stop offset="0.903" style="stop-color: rgb(203, 155, 81);"/>
      <stop offset="1" style="stop-color: rgb(70, 37, 35);"/>
    </linearGradient>
  </defs>
  <path id="path2850" d="M 267.8 378.8 C 265.9 378.8 264 380.3 264 383.8 C 264.1 390.9 270.3 392.1 274.6 394.5 C 274.7 394.6 274.8 394.6 274.9 394.4 C 275.1 394.2 274.8 394 274.2 393.4 C 267.7 386.6 274 384.5 270.9 380.4 C 270.2 379.4 269 378.9 267.8 378.8 Z M 327.6 378.9 C 325.2 378.9 322.7 381.2 323.7 384.9 C 325 389.8 323.1 391.3 320.4 394.2 C 320.3 394.3 320.3 394.4 320.4 394.5 C 320.5 394.6 320.6 394.6 320.7 394.6 C 325 392.2 331.2 391 331.3 383.9 C 331.3 380.4 329.5 378.9 327.6 378.9 Z M 356.1 387.8 C 355.9 387.8 355.8 387.8 355.6 387.8 C 351.6 388 347.6 390 345.4 393.4 C 344.3 395 343.7 397 343.7 398.9 C 333.4 399.1 323 400.3 313.1 403.5 C 310.5 404.4 307.9 405.3 305.4 406.5 C 304.2 403 301.6 400 298.4 398 C 298.2 397.9 297.9 397.7 297.7 397.6 C 294.5 399.5 291.7 402.3 290.3 405.8 C 290.2 406 290.1 406.3 290 406.5 C 280.8 402.3 270.8 400.2 260.7 399.4 C 257.7 399.1 254.6 399 251.6 399 C 251.5 395.3 249.3 391.7 246.1 389.8 C 242.9 387.9 238.9 387.3 235.3 388.4 C 231.8 389.5 228.8 392.1 227.1 395.4 C 226.2 397 225.7 398.8 225.5 400.6 C 208.6 402.8 192.1 406.9 175.9 411.9 C 176.4 408.4 177.6 405 179.6 402.1 C 180.9 400.2 182.6 398.5 184.6 397.4 C 185.7 396.8 186.8 396.4 188 396.2 C 190.9 395.6 194 396.4 196.6 397.6 C 198.5 398.5 200.2 399.6 201.8 400.9 C 202.1 400.6 202.4 400.3 202.7 400 C 200.6 397.2 197.9 394.8 194.5 393.6 C 190.9 392.3 186.9 392.5 183.4 394.1 C 178.8 396.1 175.1 400 173 404.6 C 171.8 407.3 171.2 410.3 171.5 413.3 C 167.3 414.6 163.1 416.1 159 417.5 C 155.6 418.6 152.1 419.2 148.6 419.9 C 149.2 417.5 149.1 414.8 147.6 412.6 C 145.4 409.3 140.7 408 137.1 409.7 C 135.3 410.6 134 412.4 133.7 414.5 C 133.5 415.8 133.5 417.3 134.3 418.4 C 135.4 420 137.5 420.8 139.4 420.8 C 140.8 420.8 142.4 420.2 143.1 419 C 143.6 418.1 143.8 417 143.6 415.9 C 143.5 414.8 142.8 413.8 141.9 413.3 C 140.8 412.7 139.4 412.6 138.2 413.1 C 137.8 413.2 137.5 413.8 137.8 414.2 C 138 414.6 138.6 414.6 138.9 414.4 C 139.9 414.2 141.2 414.3 141.9 415.1 C 142.4 415.8 142.4 416.7 142.3 417.4 C 142.2 418.3 141.5 419.1 140.6 419.3 C 139.3 419.7 137.9 419.4 136.8 418.8 C 135.9 418.3 135.1 417.4 135.1 416.3 C 135 414.6 135.6 412.6 137.1 411.6 C 139.1 410.1 141.9 410.2 144 411.3 C 144.7 411.7 145.4 412.2 146 412.8 C 147.3 414.3 147.8 416.4 147.5 418.3 C 147.4 419 147.3 419.6 147.1 420.2 C 146.9 420.3 146.7 420.3 146.5 420.3 C 141.2 421.3 136 422.1 130.7 422.8 C 127.6 420.7 124.9 418.1 121.9 415.9 C 119 413.8 115.8 412.1 112.2 411.6 C 109.6 411.2 106.7 411.8 104.6 413.5 C 102.1 415.4 100.8 418.5 100.7 421.6 C 100.7 423.2 100.9 424.8 101.5 426.3 C 97.5 426.5 93.6 426.3 89.6 426.1 C 82.6 425.7 75.6 425 68.8 423.7 C 65 422.9 61.2 421.9 57.7 420.3 C 56.1 419.5 54.5 418.5 53.4 417.2 C 52.6 416.3 52.2 415 52.3 413.8 C 52.3 412.5 52.8 411.2 54 410.5 C 55.4 409.7 57.3 410 58.5 411.1 C 59.2 411.8 59.5 412.8 59.2 413.8 C 59 414.4 58.7 415.1 58 415.2 C 57.1 415.4 56.1 415.2 55.5 414.5 C 55.1 414.2 55.1 413.6 55.4 413.2 C 55.6 412.7 56 412.2 56.6 412.4 C 57.1 412.5 57.4 412.8 57.7 413.1 C 58.3 413.4 59 412.7 58.6 412.1 C 58 411.3 57 410.9 56.1 411 C 55.2 411.1 54.4 411.7 54.1 412.6 C 53.7 413.5 53.7 414.6 54.3 415.3 C 55.2 416.5 56.9 416.9 58.3 416.6 C 59.2 416.4 59.9 415.7 60.3 414.9 C 61 413.6 61 411.9 60 410.7 C 58.7 408.9 56.1 408.3 54 409 C 52.7 409.5 51.7 410.6 51.3 412 C 50.9 413.4 50.9 415 51.4 416.4 C 52.2 418.4 54 419.9 55.8 420.9 C 58.7 422.6 62 423.6 65.3 424.4 C 71.5 425.9 77.8 426.6 84.1 427.1 C 86 427.3 87.8 427.4 89.7 427.5 C 75.2 428.7 60.7 429.6 46.1 429.8 C 44.1 429.8 42.2 429.8 40.2 429.8 C 39.7 429.9 39.4 430.7 40 430.9 C 41.1 431.2 42.3 431.1 43.5 431.1 C 50.1 431.1 56.7 430.8 63.3 430.5 C 72 430.1 80.6 429.5 89.3 428.8 C 87.9 429.8 86.5 430.7 85.2 431.7 C 84.3 431.2 83.1 431.1 82 431.1 C 81.3 431.1 80.7 431.6 80.1 431.8 C 76 433.6 71.8 435.1 67.4 435.7 C 63.8 436.2 60.1 436 56.6 434.8 C 56.3 434.6 55.7 434.5 55.5 434.9 C 55.2 435.4 55.4 436.1 55.5 436.7 C 56.2 438.5 57.9 439.7 59.6 440.2 C 61.3 440.7 63.1 440.8 64.9 440.6 C 62.6 441.6 60.2 442.4 57.9 443.5 C 56.4 444.6 55.2 446 54 447.3 C 53.1 448.3 52.3 449.2 51.6 450.3 C 51.4 450.7 51.7 451.3 52.1 451.2 C 53 451.2 53.9 451.1 54.8 451.2 C 56.7 451.2 58.6 451.3 60.4 450.7 C 62.2 450.1 63.6 448.8 65.2 447.7 C 66.2 447 67.1 446.2 68.1 445.6 C 66.8 447.2 65.7 448.9 65.2 450.9 C 64.9 452.3 65.1 453.7 65.8 454.9 C 66.1 455.5 66.5 456 66.9 456.5 C 67.3 456.9 68.1 456.5 68.1 455.9 C 68.9 452.3 70.9 449.2 73.4 446.5 C 77 442.6 81.4 439.5 85.2 435.7 C 85.6 435.3 85.6 434.6 85.8 434.1 C 85.9 433.7 85.9 433.2 85.9 432.7 C 87.9 431.3 90 429.8 92 428.4 C 95.4 428.1 98.9 427.8 102.3 427.4 C 103.7 429.8 106.1 431.5 108.6 432.6 C 112.6 434.3 117 435 121.4 435.3 C 123.6 435.4 125.8 435.5 127.9 435.4 C 123.2 436.7 118.4 438.1 114.1 440.3 C 112.3 441.2 110.6 442.4 109.1 443.8 C 107.2 443.5 105 443.9 103.5 445.2 C 102.2 446.4 101.6 448.3 101.7 450 C 101.5 450 101.7 449.7 101.7 449.5 C 101.9 447.3 99.9 445.2 97.8 445.3 C 96.6 445.3 95.5 446 94.7 446.8 C 93.8 447.7 92.7 448.5 91.4 448.8 C 89.6 449.2 87.7 448.7 85.9 448.6 C 85.4 448.6 85 448.6 84.5 448.5 C 85.2 450.1 86.1 451.8 87.6 452.7 C 89.1 453.7 91 453.7 92.8 453.6 C 93.5 453.6 94.2 453.5 95 453.5 C 95.4 453.7 95.6 454.2 95.3 454.6 C 95.1 455 94.5 455.3 94.1 455.1 C 92.4 454.7 90.6 455.2 89.4 456.5 C 88.1 457.8 87.2 459.5 87.2 461.3 C 87.1 463.1 87.5 465 86.9 466.7 C 86.7 467.4 86.5 468.2 86.3 468.9 C 86.2 469.2 86.5 469.5 86.8 469.3 C 88.2 468.5 89.9 468.1 91.5 468 C 93.1 467.9 94.8 468 96.4 467.4 C 97.9 466.9 99.1 465.7 99.6 464.2 C 100.2 462.7 100.1 461.1 100.4 459.5 C 100.5 459.2 100.7 458.8 101.1 458.9 C 101.5 459 101.5 459.5 101.5 459.8 C 101.4 461.1 101 462.4 101.1 463.7 C 101.2 465 101.7 466.3 102.5 467.2 C 103.6 468.5 105 469.3 106.5 470.2 C 106.7 467.7 106.4 465.1 106.7 462.6 C 106.8 462 106.9 461.3 107.5 461 C 109.2 459.8 110.1 457.5 109.5 455.5 C 109.1 454.3 108 453.4 106.7 453.1 C 106.2 453 105.6 452.9 105.1 452.9 C 105 452.7 105.4 452.8 105.5 452.8 C 107.1 452.8 108.6 451.9 109.4 450.5 C 110.5 448.8 110.6 446.6 110.1 444.6 C 112.6 442.3 115.7 440.8 118.9 439.6 C 124.7 437.4 130.8 436 136.8 434.6 C 145.3 432.6 153.8 430.9 162.1 428.2 C 165.8 426.9 169.5 425.4 173.2 424.1 C 173.9 423.8 174.6 423.6 175.3 423.3 C 177.2 426.3 179.8 428.9 182.9 430.8 C 180.2 433.1 177.6 435.7 175.3 438.4 C 174.3 438 173.1 438.4 172.1 438.7 C 171.6 438.8 171.2 439.1 170.9 439.4 C 168.5 441.7 166.1 443.9 163.3 445.7 C 159.5 448.3 155.2 450.2 150.5 450.6 C 149.8 450.7 149.1 450.7 148.4 450.7 C 147.9 450.8 147.9 451.5 148.1 451.9 C 149.1 453.6 151.1 454.6 153 454.7 C 155.1 454.8 157.1 454.1 159 453.2 C 157.5 454.7 155.7 455.8 154.2 457.4 C 152.4 459.3 151.2 461.8 150.3 464.2 C 150 465.1 149.7 466 149.5 466.9 C 149.5 467.4 150.1 467.7 150.5 467.5 C 152.8 466.8 154.9 466 157.1 465 C 157.8 464.7 158.5 464.1 159 463.5 C 160.7 461.5 162 459.2 163.6 457.1 C 162.9 459 162.4 461 162.6 463 C 162.8 464.4 163.5 465.7 164.5 466.6 C 165 467 165.5 467.4 166 467.8 C 166.5 468 167.1 467.4 166.9 466.8 C 166.7 465.3 166.7 463.8 167 462.4 C 167.6 458.4 169.4 454.7 171.3 451.2 C 172.6 448.8 174.1 446.5 175.3 444.1 C 175.9 442.9 176.4 441.6 176.3 440.2 C 176.3 439.9 176.2 439.6 176.1 439.4 C 178.4 436.5 181.1 433.9 183.9 431.4 C 188.9 434.2 194.8 435.3 200.5 435.2 C 208.1 435.1 215.6 433 222.6 430.1 C 223.5 429.7 224.3 429.3 225.2 428.9 C 222.3 433 220 437.6 218.3 442.3 C 217.9 443.4 217.6 444.5 217.5 445.6 C 217.5 446 217.9 446.4 218.3 446.2 C 218.9 446 218.8 445.3 219 444.9 C 220.7 438.7 223.6 432.8 227.6 427.8 C 227.8 427.6 228.2 427.5 228.3 427.2 C 228.5 426.9 228.8 426.7 229.1 426.5 C 229 426.3 229.1 426.2 229.3 426.1 C 231.2 424.3 233.5 423 235.8 421.7 C 236 421.6 236.3 421.3 236.5 421.5 C 240.5 423.5 244.9 424.4 249.3 424.7 C 252.9 424.9 256.5 424.8 260 424.1 C 261.7 423.7 263.2 423 264.8 422.6 C 268.9 421.2 273.1 420.1 277.4 419.6 C 278 419.5 278.6 419.5 279.2 419.4 C 275.9 420.5 272.8 422.3 270.3 424.8 C 269.1 426 268.1 427.5 267.4 429 C 265.4 431.4 263.1 433.4 260.4 435 C 259.7 435.4 259 435.7 258.2 435.9 C 257 434.4 255.1 433.2 253.1 433.3 C 251.4 433.3 249.8 434.3 248.7 435.5 C 248.5 435.4 248.9 435.3 248.9 435.1 C 250.4 433.8 250.6 431.3 249.4 429.7 C 248.6 428.6 247.2 428.2 245.8 428.3 C 243.9 428.4 242 427.7 240.7 426.4 C 239.5 425.1 238.5 423.7 237.3 422.4 C 236.7 424 236.2 425.8 236.6 427.6 C 237 429.3 238.4 430.7 239.7 431.8 C 240.2 432.3 240.9 432.8 241.4 433.3 C 241.6 433.7 241.4 434.2 240.9 434.3 C 240.4 434.5 239.8 434.3 239.6 433.8 C 238.7 432.4 237.1 431.5 235.5 431.5 C 233.5 431.5 231.6 432.3 230.2 433.6 C 229.4 434.4 228.8 435.4 227.9 436.2 C 226.8 437.2 225.5 437.7 224.3 438.4 C 224 438.6 223.8 438.7 224.2 438.8 C 226 439.3 227.6 440.3 229 441.5 C 230.3 442.6 231.6 444 233.3 444.6 C 234.6 445 236.1 444.7 237.3 444 C 238.6 443.4 239.7 442.4 240.8 441.5 C 241.1 441.3 241.8 441.1 242 441.6 C 242.1 442.1 241.6 442.5 241.2 442.8 C 239.9 443.8 238.4 444.8 237.7 446.3 C 236.9 447.8 237.1 449.6 237.4 451.3 C 237.5 452 237.7 452.8 237.9 453.5 C 239.9 451.9 241.4 449.8 243.4 448.2 C 243.9 447.8 244.5 447.4 245.1 447.6 C 247.2 447.9 249.5 446.8 250.4 444.8 C 250.9 443.6 250.6 442.1 249.9 441 C 249.7 440.6 249.4 440.3 249.1 440 C 249.2 439.8 249.4 440.2 249.5 440.2 C 250.7 441.3 252.4 441.7 253.9 441.3 C 256 440.8 257.6 439.2 258.6 437.3 C 259.1 437.1 259.7 436.9 260.2 436.7 C 262.5 435.6 264.6 434 266.4 432.2 C 265.6 436.5 266.8 441.2 269.8 444.5 C 271.6 446.5 274.3 447.7 277 447.8 C 280.6 447.9 284.3 446.2 286.3 443.1 C 287.9 440.6 288.2 437.4 287.1 434.7 C 286.3 432.7 284.6 430.9 282.4 430.4 C 280.5 429.9 278.4 430.5 276.7 431.6 C 275.2 432.5 273.9 433.9 273.5 435.7 C 273.1 437.9 274.2 440.1 276.1 441.3 C 277.2 442 278.6 442.3 279.9 441.8 C 281.2 441.3 282.4 440.5 283.2 439.3 C 283.5 438.9 283.5 438.3 283 438.1 C 282.6 437.9 282.1 438.2 282 438.6 C 281.4 439.4 280.7 440 279.8 440.4 C 279 440.8 277.9 440.7 277.1 440.3 C 275.5 439.4 274.5 437.5 275 435.7 C 275.5 434.1 276.9 433.1 278.3 432.3 C 279.8 431.6 281.6 431.3 283.1 432.1 C 285 433.1 286.1 435.1 286.4 437.1 C 286.8 439.5 285.9 441.9 284.2 443.6 C 281.9 446 278.2 447 275 446.1 C 272.4 445.3 270.3 443.3 269.1 440.8 C 268.4 439.3 267.9 437.6 267.8 436 C 267.7 435 267.8 433.9 267.9 432.9 C 268.1 431.6 268.5 430.3 269.1 429.1 C 270 427.4 271.2 425.9 272.7 424.7 C 274 423.7 275.5 422.8 277 422.1 C 278.6 421.3 280.3 420.7 282.1 420.2 C 283.4 419.9 284.7 419.8 286 419.8 C 287.6 419.8 289.1 420.1 290.6 420.5 C 291.6 423.1 293 425.5 294.8 427.7 C 295.7 428.9 296.6 430 297.5 431.1 C 299.6 428.3 302.1 425.7 303.6 422.4 C 303.9 421.8 304.2 421.1 304.4 420.5 C 306.7 419.9 309.2 419.7 311.6 420 C 315.7 420.5 319.6 422.3 322.6 425 C 324 426.3 325.2 427.7 326 429.4 C 326 429.7 326.3 429.9 326.4 430.2 C 327 431.8 327.3 433.4 327.2 435.1 C 327.2 437.6 326.4 440.2 324.9 442.2 C 323.5 444.2 321.3 445.9 318.8 446.3 C 316.3 446.7 313.6 445.9 311.6 444.4 C 309.9 443.2 308.7 441.2 308.5 439.1 C 308.4 438.1 308.4 436.9 308.8 435.8 C 309.3 434 310.5 432.4 312.3 431.7 C 314 431.1 315.8 431.6 317.2 432.5 C 318.3 433.2 319.4 434.1 319.8 435.4 C 320.3 437 319.4 438.9 318 439.8 C 317.3 440.3 316.3 440.6 315.4 440.3 C 314.5 440 313.7 439.4 313.1 438.7 C 312.8 438.4 312.7 437.8 312.3 437.8 C 311.8 437.7 311.3 438.3 311.6 438.8 C 311.9 439.6 312.6 440.2 313.3 440.8 C 314.5 441.6 316 442.2 317.4 441.8 C 319.2 441.3 320.6 439.8 321.2 438 C 321.7 436.5 321.4 434.7 320.4 433.4 C 319.3 432 317.7 431 316.1 430.4 C 314.3 429.8 312.2 430 310.6 431.1 C 308.4 432.5 307.2 435.1 307.1 437.7 C 307 440.7 308.4 443.6 310.7 445.4 C 313.8 447.9 318.5 448.5 322.1 446.6 C 325 445.1 327 442.3 327.9 439.3 C 328.6 437 328.8 434.5 328.3 432.1 C 330.4 434.2 332.8 436 335.6 437.1 C 335.8 437.2 336.2 437.2 336.3 437.5 C 337.4 439.5 339.3 441.1 341.6 441.4 C 343.1 441.6 344.6 441 345.6 439.9 C 345.8 440 345.6 440.1 345.5 440.2 C 344.5 441.2 343.8 442.7 344.2 444.1 C 344.6 445.7 346.1 446.9 347.6 447.3 C 348.4 447.5 349.3 447.5 350.1 447.4 C 350.9 447.5 351.5 448.2 352.2 448.7 C 353.8 450.2 355.2 451.9 356.9 453.3 C 357.4 451.3 357.9 449.1 357.4 447 C 357 445.4 355.8 444.3 354.6 443.4 C 354 442.9 353.4 442.6 352.9 442 C 352.7 441.7 352.9 441.1 353.3 441.2 C 353.9 441.3 354.3 441.7 354.7 442 C 356 443.1 357.4 444.3 359.1 444.6 C 360.9 444.9 362.7 444.1 364.1 443 C 365.5 441.8 366.8 440.4 368.5 439.5 C 369.1 439.2 369.8 439 370.5 438.8 C 370.8 438.6 370.6 438.2 370.3 438.2 C 369.1 437.4 367.7 436.9 366.7 435.8 C 365.8 434.9 365.1 433.7 364 433 C 362.5 431.9 360.7 431.3 358.8 431.5 C 357.3 431.7 355.9 432.6 355.1 433.8 C 354.8 434.4 353.6 434.4 353.3 433.8 C 353.2 433.4 353.4 433.1 353.7 432.9 C 355.2 431.5 356.9 430.3 357.8 428.4 C 358.5 426.7 358.3 424.9 357.7 423.2 C 357.6 422.9 357.5 422.6 357.4 422.4 C 356.2 423.6 355.2 425.1 354 426.4 C 352.9 427.6 351.3 428.2 349.6 428.3 C 348.5 428.3 347.3 428.3 346.3 428.9 C 345 429.7 344.3 431.3 344.6 432.8 C 344.8 433.8 345.3 434.8 346.2 435.4 C 346.1 435.5 345.9 435.2 345.8 435.1 C 344.5 433.8 342.7 433 340.9 433.3 C 339.2 433.5 337.7 434.6 336.6 435.9 C 334.2 435.1 332.1 433.5 330.2 431.8 C 329.2 430.9 328.3 429.9 327.4 428.9 C 326 425.8 323.3 423.4 320.4 421.6 C 318.9 420.7 317.3 419.9 315.7 419.4 C 318.4 419.6 321.2 420.1 323.8 420.8 C 327.9 421.9 332 423.7 336.3 424.3 C 340.4 425 344.7 424.9 348.8 424.4 C 352.2 423.9 355.5 423.1 358.5 421.4 C 361.1 422.8 363.6 424.3 365.8 426.3 C 365.9 426.5 365.9 426.7 366.1 426.7 C 366.4 426.9 366.6 427.2 366.8 427.5 C 367.3 427.7 367.5 428.1 367.8 428.5 C 371.5 433.3 374.2 438.9 375.9 444.8 C 376 445.2 376.1 445.7 376.3 446.1 C 376.6 446.4 377.3 446.4 377.4 445.9 C 377.5 444.9 377.1 443.9 376.8 443 C 375.4 438.6 373.3 434.3 370.8 430.4 C 370.5 429.9 370.2 429.5 369.8 429 C 376.6 432.1 383.8 434.5 391.3 435.1 C 397.1 435.6 403 435 408.3 432.7 C 409.2 432.3 410.1 431.9 411 431.4 C 413.9 433.8 416.5 436.4 418.9 439.4 C 418.6 440.2 418.5 441 418.5 441.8 C 419 443 419.7 444.1 420.3 445.2 C 422.5 449.2 425.1 453.1 426.7 457.4 C 427.7 460.1 428.3 462.9 428.2 465.7 C 428.2 466.2 428.1 466.7 428.1 467.1 C 428.2 467.7 429.1 467.8 429.4 467.3 C 430.5 466.4 431.6 465.5 432.1 464.1 C 432.8 462.2 432.4 460.2 431.9 458.3 C 431.7 457.8 431.6 457.3 431.4 456.8 C 433.1 459 434.4 461.4 436.2 463.5 C 437.2 464.6 438.6 465.3 439.9 465.8 C 441.4 466.4 442.9 466.9 444.4 467.4 C 444.8 467.5 445.3 467.4 445.4 466.9 C 445.4 466.3 445.1 465.7 444.9 465.2 C 443.9 462.2 442.7 459.3 440.5 457.1 C 439.1 455.7 437.4 454.6 436 453.1 C 438.1 454.1 440.5 454.8 442.9 454.5 C 444.5 454.3 446.2 453.3 446.9 451.7 C 447.1 451.3 447.1 450.7 446.6 450.6 C 446.2 450.5 445.7 450.6 445.2 450.5 C 441.9 450.4 438.6 449.3 435.7 447.8 C 431.9 445.9 428.4 443.2 425.3 440.2 C 424.7 439.7 424.2 439.1 423.6 438.6 C 423.1 438.4 422.6 438.3 422.1 438.1 C 421.4 437.9 420.6 437.8 419.9 438.1 C 418.3 436.1 416.4 434.2 414.5 432.4 C 413.8 431.7 413 431.1 412.3 430.4 C 415.3 428.5 417.9 425.9 419.9 422.9 C 424.8 424.7 429.7 426.6 434.6 428.3 C 440.4 430.2 446.4 431.5 452.3 432.8 C 458.8 434.3 465.3 435.7 471.7 437.6 C 475.2 438.7 478.7 440 482 441.9 C 483.1 442.6 484.2 443.3 485.1 444.3 C 484.5 446.5 484.8 449 486.2 450.8 C 487.1 451.9 488.6 452.6 490.1 452.5 C 490.2 452.7 489.8 452.6 489.7 452.6 C 488.3 452.7 486.8 453.3 486.1 454.5 C 485.2 456 485.6 457.9 486.4 459.3 C 486.8 460 487.4 460.5 488 461 C 488.5 461.7 488.5 462.6 488.6 463.4 C 488.7 465.6 488.6 467.8 488.7 470 C 490.4 468.9 492.2 467.8 493.3 466 C 494 464.8 494.2 463.4 494 462 C 493.9 461 493.6 460.1 493.6 459.1 C 493.7 458.7 494.2 458.4 494.5 458.7 C 495.1 459.2 494.9 460 495 460.7 C 495.2 462.5 495.7 464.5 496.9 465.9 C 497.9 467 499.3 467.4 500.7 467.5 C 502.9 467.7 505.2 467.5 507.3 468.4 C 507.7 468.6 508.2 468.8 508.6 469.1 C 508.9 468.8 508.8 468.5 508.7 468.1 C 508.6 467.2 508.1 466.4 508 465.5 C 507.6 463.5 508.2 461.5 507.8 459.6 C 507.5 458 506.5 456.7 505.3 455.6 C 504.1 454.6 502.5 454.3 501 454.6 C 500.7 454.7 500.3 454.7 500 454.4 C 499.6 454.1 499.4 453.3 499.9 453 C 500.3 452.8 500.7 453 501.1 452.9 C 503 453 505 453.2 506.8 452.4 C 508.4 451.7 509.5 450.1 510.2 448.6 C 510.4 448.4 510.4 447.9 510 447.9 C 508.8 447.9 507.7 448.1 506.5 448.3 C 505 448.5 503.3 448.4 502 447.5 C 500.8 446.8 500 445.5 498.7 445 C 497.4 444.4 495.7 444.8 494.7 445.8 C 493.7 446.7 493.2 448.1 493.5 449.4 C 493.3 449.4 493.4 449.1 493.4 448.9 C 493.4 447.1 492.6 445.3 491.1 444.2 C 489.6 443.1 487.7 442.9 485.9 443.1 C 484.4 441.6 482.5 440.5 480.6 439.5 C 476.3 437.3 471.7 435.9 467.1 434.7 C 472 434.8 477 434.5 481.9 433.4 C 485 432.6 488.1 431.5 490.6 429.3 C 491.4 428.5 492.2 427.7 492.7 426.7 C 496.1 427 499.5 427.3 503 427.7 C 505.1 429.1 507.1 430.6 509.2 432 C 509 433.2 509.7 434.4 510.4 435.3 C 512.1 437.3 514.1 438.8 516.1 440.5 C 519.4 443.4 522.8 446.4 525 450.2 C 525.9 451.8 526.6 453.6 527 455.4 C 527.2 456 528.1 455.9 528.3 455.3 C 529.1 454.1 529.9 452.9 529.9 451.4 C 529.9 449.4 528.9 447.6 527.8 446 C 527.5 445.5 527.1 445.1 526.8 444.7 C 529.1 446.2 531.1 448 533.4 449.4 C 534.7 450.1 536.1 450.3 537.6 450.3 C 539.3 450.3 541 450.3 542.7 450.4 C 543.1 450.4 543.6 450 543.4 449.6 C 543.1 448.8 542.5 448.2 542 447.6 C 540.6 445.9 539.1 444.3 537.4 442.9 C 536.4 442.2 535.3 441.8 534.2 441.4 C 532.9 440.9 531.5 440.4 530.2 439.8 C 532.5 440 535 439.8 537.1 438.7 C 538.5 437.9 539.6 436.6 539.8 435 C 539.9 434.6 539.7 433.9 539.2 433.9 C 538.7 433.9 538.3 434.2 537.9 434.3 C 533.7 435.6 529.2 435.4 524.9 434.4 C 521 433.5 517.3 432 513.6 430.4 C 512.5 430.3 511.3 430.4 510.3 430.8 C 510.1 431 509.9 430.9 509.7 430.7 C 508.4 429.8 507.2 428.9 505.9 428.1 C 518.8 429.2 531.7 430 544.6 430.3 C 547.5 430.4 550.4 430.4 553.3 430.3 C 553.9 430.3 554.6 430.3 555.2 430 C 555.6 429.6 555.2 428.9 554.6 428.9 C 554.3 428.9 554.1 428.8 553.8 428.9 C 540.1 428.9 526.5 428.2 512.9 427.2 C 510.4 427 507.8 426.8 505.3 426.6 C 512.9 426.1 520.6 425.4 528.1 423.9 C 531.8 423.1 535.4 422.1 538.8 420.3 C 540.7 419.3 542.5 417.9 543.4 415.9 C 544.1 414.3 544.1 412.3 543.5 410.6 C 542.9 409.2 541.6 408.1 540 407.9 C 538 407.5 535.6 408.5 534.7 410.4 C 533.9 412 534.2 414.2 535.7 415.3 C 536.8 416.2 538.4 416.1 539.5 415.5 C 540.5 415 541.3 413.9 541.2 412.8 C 541.1 411.5 540 410.3 538.6 410.3 C 537.7 410.4 536.8 410.7 536.3 411.5 C 536 412 536.7 412.7 537.2 412.4 C 537.5 412.2 537.7 411.9 538 411.8 C 538.4 411.6 539 411.6 539.3 412 C 539.8 412.5 539.9 413.5 539.2 413.9 C 538.5 414.4 537.5 414.7 536.7 414.3 C 535.6 413.7 535.3 412.2 535.8 411.1 C 536.4 409.8 537.9 409.1 539.3 409.1 C 540.5 409.2 541.7 409.9 542.1 411.1 C 542.5 412.2 542.5 413.4 542.3 414.4 C 541.9 416.2 540.4 417.5 538.9 418.5 C 536.2 420.2 533.1 421.2 530 422 C 524.3 423.4 518.5 424.1 512.7 424.7 C 507.3 425.2 501.8 425.5 496.4 425.8 C 495.3 425.8 494.3 425.7 493.3 425.6 C 494.7 422 494.3 417.7 492 414.6 C 490.2 412.2 487.4 410.6 484.4 410.7 C 481.5 410.7 478.7 411.9 476.2 413.3 C 472 415.7 468.5 418.9 464.7 421.8 C 464.5 421.9 464.3 422.3 463.9 422.1 C 458.5 421.3 453 420.5 447.6 419.5 C 446.9 417.3 447 414.8 448.2 412.9 C 449.7 410.4 452.9 409.1 455.7 410 C 458 410.6 459.8 413 459.6 415.4 C 459.5 416.5 458.9 417.6 457.9 418.2 C 456.9 418.8 455.7 418.9 454.6 418.8 C 453.5 418.7 452.5 417.8 452.3 416.7 C 452.1 415.7 452.3 414.6 453.2 414 C 454 413.6 455 413.5 455.8 413.7 C 456.1 413.9 456.7 413.9 456.9 413.5 C 457.2 413 456.7 412.5 456.2 412.4 C 454.9 412.1 453.5 412.2 452.4 412.9 C 451 413.8 450.6 415.7 451 417.2 C 451.3 418.5 452.4 419.7 453.8 420 C 455.3 420.4 456.9 420.2 458.2 419.6 C 459.7 418.9 460.8 417.5 461 415.9 C 461.4 413 459.6 410 456.9 409 C 454.2 407.8 450.8 408.5 448.6 410.5 C 447 411.9 446 413.9 445.9 415.9 C 445.8 417.1 445.9 418.2 446.2 419.4 C 442.2 418.7 438.3 417.9 434.5 416.5 C 430.8 415.2 427.1 413.9 423.3 412.7 C 423.7 408.8 422.5 404.9 420.4 401.6 C 417.8 397.6 414 394.3 409.3 392.9 C 406.1 391.9 402.6 392.1 399.5 393.4 C 396.5 394.7 394.1 396.9 392.1 399.4 C 392.3 399.7 392.6 400 392.9 400.2 C 393.3 400.3 393.5 399.9 393.8 399.7 C 395.5 398.5 397.3 397.4 399.2 396.6 C 400.3 396.1 401.5 395.8 402.7 395.6 C 404.9 395.2 407.1 395.4 409.1 396.3 C 412.1 397.5 414.4 400 416 402.8 C 417.5 405.3 418.4 408.2 418.9 411.1 C 419 411.4 418.5 411 418.3 411.1 C 402.3 406.1 385.9 402.2 369.3 400 C 368.9 396.6 367.2 393.5 364.8 391.1 C 363.2 389.5 361.3 388.3 359.1 387.7 C 358.5 387.9 357.3 387.8 356.1 387.8 Z M 316.3 387.9 C 314.2 387.9 312 389.9 312.9 393.1 C 314.1 397.3 312.3 398.6 310 401 C 309.9 401.1 309.9 401.2 310 401.3 C 310.1 401.4 310.2 401.4 310.3 401.4 C 313.8 399.4 319.3 398.3 319.3 392.2 C 319.4 389.2 317.9 387.9 316.3 387.9 Z M 279.2 387.9 C 277.5 387.9 275.9 389.2 275.9 392.2 C 276 398.3 281.5 399.4 285 401.4 C 285.1 401.5 285.2 401.4 285.3 401.3 C 285.5 401.1 285.2 400.9 284.7 400.4 C 279.2 394.6 284.6 392.7 281.9 389.2 C 281.2 388.4 280.2 387.9 279.2 387.9 Z M 356.4 389.1 C 359.1 389.1 361.7 390.1 363.7 391.9 C 366.1 394 368 397 368.4 400.3 C 365.8 400 363.1 399.7 360.5 399.5 C 359.9 397.8 358.9 396.1 357.2 395.3 C 355.4 394.5 353.4 394.9 351.7 395.7 C 350.9 396.1 350 396.7 349.5 397.5 C 349.3 397.9 349.7 398.5 350.2 398.5 C 350.7 398.5 350.9 397.9 351.3 397.7 C 352.4 396.9 353.7 396.3 355.1 396.3 C 356.5 396.2 357.8 397.2 358.4 398.3 C 358.6 398.6 358.8 399 358.9 399.4 C 354.3 399.1 349.7 398.9 345 398.9 C 345.1 397.1 345.7 395.3 346.7 393.9 C 348.9 390.8 352.7 389.1 356.4 389.1 Z M 239.3 389.3 C 242.4 389.3 245.7 390.4 247.8 392.7 C 249.4 394.4 250.2 396.6 250.3 398.9 C 250.2 399 249.8 398.9 249.6 398.9 C 245.2 398.9 240.8 399 236.4 399.4 C 236.9 398.1 237.8 396.8 239.2 396.5 C 240.8 396.1 242.5 396.7 243.9 397.7 C 244.3 397.9 244.5 398.3 244.8 398.6 C 245.3 399 246.2 398.3 245.8 397.7 C 245.2 396.8 244.2 396.2 243.2 395.7 C 241.6 394.9 239.5 394.7 237.9 395.6 C 236.3 396.4 235.4 398 234.9 399.7 C 233.5 399.8 232.2 399.9 230.8 400.1 C 229.5 400.2 228.2 400.4 226.9 400.6 C 227.1 399.3 227.4 398 228 396.8 C 228.9 394.7 230.5 392.7 232.6 391.5 C 234 390.6 235.6 390 237.3 389.8 C 237.9 389.3 238.6 389.3 239.3 389.3 Z M 297.7 399.3 C 300.6 401.1 303 403.8 304 407.1 C 301.8 408.1 299.7 409.3 297.6 410.6 C 295.6 409.3 293.5 408.1 291.3 407.1 C 292.3 404 294.5 401.4 297.1 399.6 C 297.3 399.5 297.5 399.3 297.7 399.3 Z M 248.9 400.3 C 249.3 400.3 249.8 400.3 250.2 400.3 C 250.1 401 249.9 401.8 249.7 402.5 C 245.4 402.9 241 403.6 236.7 404.3 C 235.9 403.4 235.6 402 235.8 400.8 C 240.2 400.5 244.6 400.3 248.9 400.3 Z M 346.4 400.3 C 350.7 400.3 355.1 400.5 359.4 400.8 C 359.7 402 359.3 403.3 358.5 404.3 C 355.8 403.9 353.1 403.4 350.3 403.1 C 348.7 402.9 347.1 402.7 345.5 402.5 C 345.3 401.8 345.1 401 345 400.3 C 345.5 400.3 346 400.3 346.4 400.3 Z M 251.6 400.3 C 252 400.3 252.3 400.3 252.7 400.3 C 258.2 400.4 263.7 400.9 269.2 401.8 C 263.2 401.6 257.2 401.8 251.3 402.3 C 251.4 401.6 251.6 401 251.6 400.3 Z M 343.7 400.3 L 343.7 400.6 C 343.8 401.2 343.9 401.8 344 402.4 C 338 401.9 332.1 401.7 326.1 401.9 C 331.9 400.8 337.8 400.4 343.7 400.3 Z M 360.8 400.9 L 362.3 401 C 364.4 401.2 366.4 401.4 368.5 401.7 C 368.6 403.2 368.4 404.7 368.1 406.2 C 365.4 405.6 362.7 405.1 360 404.6 C 360.7 403.5 361 402.2 360.8 400.9 Z M 234.5 400.9 C 234.5 401 234.5 401.1 234.5 401.1 C 234.4 402.3 234.7 403.5 235.3 404.5 C 232.6 405 229.9 405.5 227.2 406.1 C 226.8 404.6 226.7 403.1 226.8 401.6 C 229.3 401.4 231.9 401.1 234.5 400.9 Z M 370 401.9 C 370.3 401.9 370.6 402 370.9 402 C 387.2 404.2 403.3 408.2 419.1 413.1 C 419.3 413.2 419.7 413.2 419.8 413.4 C 420 416 419.5 418.7 418.4 421.1 C 418.2 421.2 417.9 421 417.7 420.9 C 402.3 415.4 386.6 410.4 370.6 406.6 C 370.3 406.5 370 406.5 369.7 406.4 C 369.8 405 370 403.4 370 401.9 Z M 225.4 401.9 C 225.4 403.5 225.5 405 225.9 406.5 C 210.2 410.1 194.7 415 179.5 420.4 C 178.7 420.7 177.9 421 177.1 421.2 C 176 418.8 175.4 416.2 175.6 413.5 C 175.5 413.3 175.7 413.2 175.9 413.2 C 189.9 408.9 204.1 405.2 218.5 402.8 C 220.8 402.5 223.1 402.2 225.4 401.9 Z M 330.6 403.1 C 335.3 403.1 340 403.3 344.6 403.8 C 345.4 405.9 347.2 407.7 349.4 408.3 C 352 409.1 355 408.5 357.3 407.2 C 357.9 406.8 358.5 406.4 359.1 405.9 C 362 406.4 364.9 407 367.8 407.6 C 366.8 410.6 365.3 413.5 363.4 416 C 362.6 417 361.7 418 360.7 418.8 C 353.6 413.9 345.4 410.6 336.9 408.9 C 328.7 407.2 320.1 407 311.9 408.9 C 310 409.4 308.1 409.9 306.3 410.6 C 306.2 409.7 306.1 408.7 305.9 407.8 C 309.9 405.9 314.2 404.5 318.5 403.4 C 318.7 403.7 319.2 403.5 319.5 403.5 C 323 403.3 326.8 403.1 330.6 403.1 Z M 264.8 403.1 C 268.9 403.1 273 403.3 277.1 403.6 C 277 403.3 277.3 403.5 277.5 403.5 C 281.7 404.6 285.8 406 289.7 407.8 C 289.5 408.7 289.3 409.7 289.2 410.6 C 281.6 407.7 273.3 407 265.3 407.8 C 256.8 408.7 248.4 411.1 240.8 415.1 C 238.7 416.2 236.7 417.4 234.8 418.7 C 232.4 416.7 230.6 414.1 229.2 411.3 C 228.6 410.1 228 408.8 227.6 407.5 C 230.5 406.9 233.4 406.3 236.3 405.8 C 238.1 407.6 240.7 408.6 243.3 408.7 C 245.5 408.8 247.8 407.9 249.3 406.2 C 249.9 405.5 250.4 404.7 250.8 403.8 C 255.4 403.3 260.1 403.1 264.8 403.1 Z M 249.1 403.9 C 248.4 405.3 247.1 406.4 245.6 406.9 C 244 407.4 242.3 407.3 240.7 406.8 C 239.7 406.5 238.8 406.1 238 405.5 C 241.7 404.9 245.4 404.3 249.1 403.9 Z M 346.3 404 C 346.4 404 346.6 404 346.7 404 L 346.8 404 C 350.3 404.4 353.8 404.9 357.2 405.5 C 355.2 406.9 352.6 407.6 350.2 407.1 C 348.5 406.8 347 405.6 346.2 404.1 C 346.2 404 346.2 404 346.3 404 Z M 369.1 407.9 C 373 408.9 376.6 410.6 380.2 412.3 C 387 415.6 393.6 419.4 400 423.5 C 403.2 425.5 406.3 427.6 409.3 429.9 C 405.4 431.8 401 432.7 396.6 433 C 388.8 433.5 381 432.1 373.8 429.1 C 371.7 428.2 369.6 427.2 367.7 426 C 367.2 425.4 367 424.7 366.5 424.1 C 365.2 422.4 363.6 421 361.9 419.7 C 364.5 417.5 366.3 414.7 367.8 411.7 C 368.2 410.4 368.7 409.1 369.1 407.9 Z M 226.1 407.9 C 226.2 407.9 226.3 408 226.3 408.2 C 226.3 408.3 226.4 408.4 226.4 408.5 C 227.6 411.9 229.4 415.2 231.8 417.9 C 232.4 418.5 233 419.1 233.6 419.7 C 231.6 421.2 229.7 422.8 228.4 425 C 228.1 425.5 227.8 426.1 227.3 426.4 C 224.7 427.9 222 429.1 219.2 430.2 C 212.6 432.6 205.5 433.7 198.6 433.2 C 195.1 432.9 191.7 432.3 188.5 431.1 C 187.7 430.8 186.9 430.5 186.2 430.1 C 190.3 427 194.6 424.1 199 421.4 C 205 417.7 211.2 414.2 217.7 411.3 C 220.4 410.1 223.1 408.9 225.9 408.2 C 225.9 407.9 226 407.9 226.1 407.9 Z M 304.4 408.4 C 304.4 408.5 304.4 408.6 304.5 408.6 C 304.7 409.4 304.8 410.3 304.8 411.1 C 302.3 412.1 299.9 413.5 297.7 415 C 295.5 413.5 293.1 412.2 290.6 411.1 C 290.6 410.2 290.8 409.3 291 408.3 C 293.3 409.4 295.6 410.7 297.7 412.1 C 299.8 410.9 302.1 409.6 304.4 408.4 Z M 215.7 410.4 C 215.6 410.5 215.5 410.5 215.3 410.6 C 206.3 415.1 197.4 420 189.1 425.9 C 187.6 427 186.2 428 184.8 429.2 C 182.4 427.8 180.2 426 178.6 423.7 C 178.3 423.3 178.1 422.9 177.8 422.5 C 190.3 418 202.9 413.8 215.7 410.4 Z M 379.6 410.5 C 379.7 410.5 379.8 410.6 380 410.6 C 392.7 414 405.2 418.1 417.5 422.5 C 416.2 424.7 414.4 426.6 412.3 428.1 C 411.7 428.5 411.1 428.9 410.5 429.2 C 403.3 423.5 395.4 418.9 387.4 414.5 C 384.9 413.1 382.3 411.8 379.6 410.5 Z M 274.1 411.9 C 277.6 411.9 281.2 412.3 284.6 413 C 286.2 413.3 287.8 413.8 289.3 414.3 C 289.5 415.9 289.8 417.5 290.3 419 C 289.8 418.9 289.2 418.7 288.7 418.6 C 287.1 418.3 285.4 418.2 283.7 418.1 C 281.6 418.1 279.5 418.2 277.4 418.5 C 271.9 419.2 266.6 420.8 261.4 422.7 C 259.9 423.2 258.4 423.4 256.8 423.5 C 253.3 423.8 249.8 423.7 246.3 423.3 C 243.5 422.9 240.7 422.2 238.1 420.9 C 245.4 417.2 253.2 414.6 261.3 413.1 C 265.4 412.2 269.7 411.8 274.1 411.9 Z M 321.4 411.9 C 330.3 411.9 339.2 413.7 347.6 416.7 C 350.9 417.9 354.1 419.3 357.3 420.8 C 353.2 422.7 348.7 423.4 344.2 423.6 C 341.3 423.7 338.3 423.6 335.4 423 C 333.9 422.7 332.6 422.1 331.1 421.7 C 326.5 420.2 321.9 418.9 317.1 418.2 C 315.3 417.9 313.4 417.8 311.5 418.1 C 309.6 418.2 307.7 418.4 305.9 418.7 C 305.6 418.8 305.3 418.9 305 419 C 305.5 417.5 305.8 415.9 306 414.3 C 311 412.6 316.2 411.9 321.4 411.9 Z M 485.1 412.6 C 486.8 412.6 488.6 413.2 490 414.4 C 491.9 415.9 493 418.1 493.3 420.5 C 493.5 422.4 493.2 424.3 492.5 426 C 483.9 425.1 475.3 424.1 466.8 422.9 C 469.9 420.5 472.9 417.8 476.3 415.8 C 478.4 414.5 480.7 413.4 483.1 412.9 C 483.7 412.7 484.4 412.6 485.1 412.6 Z M 110.4 412.8 C 113.7 412.9 116.8 414.3 119.5 416 C 121.6 417.3 123.5 418.9 125.4 420.5 C 126.4 421.3 127.5 422.1 128.6 422.9 C 120.1 424.1 111.5 425 102.9 426 C 102.2 424.4 101.9 422.6 102.1 420.9 C 102.3 418.3 103.5 415.7 105.7 414.2 C 107 413.2 108.7 412.8 110.4 412.8 Z M 423.6 414.6 C 424.3 414.8 424.9 415 425.6 415.2 C 429.4 416.4 433.1 417.8 436.9 419 C 440.3 420 443.8 420.6 447.2 421.3 C 448.2 424 450.3 426.5 453.1 427.5 C 455 428.2 457.1 428 458.9 427.3 C 461.1 426.6 463.2 425.3 465.1 424.1 C 474 425.3 482.9 426.3 491.7 427.2 C 490.2 429.4 487.8 430.8 485.3 431.7 C 481.8 433 478.1 433.5 474.4 433.8 C 469.6 434.1 464.8 434 460 433.5 C 453.3 431.9 446.5 430.4 439.8 428.7 C 436.7 427.9 433.6 426.9 430.6 425.7 C 427.4 424.5 424.1 423.3 420.9 422.1 C 422.2 419.8 423.1 417.2 423.6 414.6 Z M 171.7 414.6 C 172.2 417.3 173.1 419.9 174.4 422.2 C 169.9 423.8 165.5 425.6 161 427.2 C 156.1 428.9 151 430 145.9 431.2 C 142.3 432 138.7 432.9 135 433.7 C 129.3 434.2 123.5 434.3 117.9 433.7 C 115.4 433.4 112.8 432.9 110.5 432.1 C 108 431.2 105.4 429.9 103.8 427.7 C 103.5 427.4 103.6 427.3 104 427.4 C 112.8 426.5 121.5 425.4 130.3 424.2 C 132.8 425.9 135.5 427.5 138.5 428 C 140 428.3 141.6 428.1 143 427.3 C 145.4 426.1 147.3 423.9 148.2 421.4 C 152.6 420.6 156.9 419.8 161.1 418.3 C 164.6 417 168.1 415.7 171.7 414.6 Z M 304.6 414.7 C 304.6 414.9 304.5 415.1 304.5 415.3 C 304.3 416.7 303.9 418 303.5 419.4 C 301.5 420 299.5 420.8 297.6 421.7 C 295.8 420.7 293.8 419.9 291.8 419.4 C 291.3 417.9 290.9 416.4 290.7 414.8 C 293.1 415.7 295.4 416.9 297.6 418.3 C 299.8 416.9 302.2 415.7 304.6 414.7 Z M 30.2 419.8 C 29.6 419.8 29.2 420 29.1 420 C 28.7 420.9 28.7 422.5 29.6 424.3 C 32 428.7 39.1 429.9 38.8 428.9 C 36 421.1 32.1 419.8 30.2 419.8 Z M 565 419.9 C 563 419.9 559.2 421.3 556.5 429.1 C 556.4 429.3 556.6 429.4 556.8 429.4 C 565.4 428.5 567.4 422.4 566.3 420.1 C 566.3 420 565.9 419.9 565.2 419.9 C 565.1 419.9 565.1 419.9 565 419.9 Z M 302.8 421.1 C 301.8 423.4 300.5 425.4 298.9 427.3 C 298.5 427.8 298.1 428.4 297.6 428.9 C 295.8 426.6 293.9 424.4 292.7 421.7 C 292.7 421.5 292.3 421 292.5 421.1 C 292.6 421.1 292.7 421.2 292.9 421.2 C 294.5 421.8 296 422.4 297.5 423.2 C 299.3 422.4 301 421.6 302.8 421.1 Z M 146.5 421.6 C 145.5 423.8 143.7 425.7 141.3 426.4 C 140.4 426.6 139.4 426.7 138.5 426.5 C 136.2 426.1 134.2 425 132.3 423.8 C 137 423.2 141.8 422.5 146.5 421.6 Z M 448.9 421.6 C 449.2 421.7 449.5 421.7 449.8 421.8 C 454.2 422.6 458.6 423.2 463 423.8 C 460.9 425.1 458.6 426.3 456.2 426.5 C 454.9 426.6 453.6 426.3 452.5 425.6 C 450.9 424.8 449.6 423.3 448.9 421.6 Z M 21.4 427.7 C 17.8 427.7 15.5 429.1 15.5 432 C 15.4 436.5 22.9 437.3 32.7 430.9 C 28.4 428.8 24.5 427.8 21.4 427.7 Z M 574.2 427.7 C 570.6 427.7 566 429.2 562.5 430.8 C 572.2 437.1 579.7 436.5 579.6 431.9 C 579.8 428.8 577.4 427.7 574.2 427.7 Z M 556.4 431.4 C 556.3 431.4 556.3 431.4 556.4 431.4 C 556.1 431.6 557.5 441.9 564.2 442 C 564.6 442 565.5 440.1 564.5 437.6 C 562.9 433.1 557.3 431.4 556.4 431.4 Z M 38.9 431.4 C 38 431.4 32.4 433 30.7 437.6 C 29.8 440.1 30.6 442 31 442 C 37.6 441.9 39.2 431.5 38.9 431.4 C 39 431.4 39 431.4 38.9 431.4 Z M 376.5 447.5 C 365.7 450.3 366.5 456.3 366.9 456.5 C 369 457.7 375.3 456.4 376.8 447.7 C 376.8 447.6 376.6 447.5 376.5 447.5 Z M 219 447.7 C 218.7 447.7 218.6 447.7 218.6 447.8 C 220.4 458.1 228.6 457.4 228.6 456.3 C 228.9 450.5 220.9 447.7 219 447.7 Z M 216.3 447.7 C 216.2 447.7 216.2 447.7 216.3 447.7 C 209.6 449.4 206.3 452.4 206.5 456.5 C 206.5 456.9 207.8 457.1 208.3 457.1 C 214.6 457.1 217.3 447.7 216.3 447.7 Z M 379.2 447.8 C 378.9 447.8 378.8 447.8 378.8 447.9 C 380.7 458.1 388.8 457.7 388.9 456.4 C 389.2 450.5 381.1 447.9 379.2 447.8 Z M 217.6 453.8 C 212.4 462.8 211.9 471 217.7 471 C 222.1 471 222.9 463.5 217.6 453.8 Z M 377.7 453.8 C 372 464.3 373.6 471.4 378 471 C 384.5 470.6 381.5 460.4 377.7 453.8 Z" style="fill: url(#gradient-0);"/>
</svg>