<?xml version="1.0" encoding="utf-8"?>
<svg viewBox="316.8377 1384.833 854.085 1010.137" xmlns="http://www.w3.org/2000/svg">
  <path d="M 583.953125 1389.449219 C 511.257812 1421.367188 463.828125 1470.746094 413.386719 1529.519531 C 413.152344 1529.804688 412.878906 1530.046875 412.570312 1530.246094 C 412.257812 1530.441406 411.921875 1530.585938 411.566406 1530.675781 C 411.210938 1530.769531 410.847656 1530.800781 410.480469 1530.777344 C 410.109375 1530.75 409.757812 1530.667969 409.414062 1530.53125 C 409.074219 1530.390625 408.761719 1530.203125 408.480469 1529.964844 C 408.199219 1529.726562 407.960938 1529.449219 407.769531 1529.136719 C 407.578125 1528.824219 407.4375 1528.488281 407.351562 1528.128906 C 407.265625 1527.769531 407.238281 1527.40625 407.269531 1527.039062 C 414.804688 1436.082031 496.453125 1381.207031 583.15625 1385.019531 C 583.417969 1385.027344 583.671875 1385.082031 583.917969 1385.175781 C 584.160156 1385.273438 584.382812 1385.40625 584.582031 1385.582031 C 584.78125 1385.753906 584.945312 1385.953125 585.074219 1386.183594 C 585.203125 1386.410156 585.292969 1386.652344 585.339844 1386.914062 C 585.386719 1387.171875 585.386719 1387.429688 585.347656 1387.691406 C 585.304688 1387.949219 585.21875 1388.195312 585.09375 1388.425781 C 584.96875 1388.65625 584.808594 1388.859375 584.613281 1389.035156 C 584.414062 1389.210938 584.195312 1389.347656 583.953125 1389.449219 Z M 583.953125 1389.449219 " fill-opacity="1" fill-rule="nonzero" style="fill: rgb(180, 0, 0);"/>
  <path d="M 820.480469 1541.933594 C 831.027344 1657.445312 762.234375 1806.828125 621.011719 1765.957031 C 620.671875 1765.851562 620.355469 1765.699219 620.066406 1765.5 C 619.773438 1765.300781 619.515625 1765.0625 619.292969 1764.789062 C 619.074219 1764.511719 618.894531 1764.207031 618.765625 1763.878906 C 618.636719 1763.550781 618.554688 1763.210938 618.527344 1762.855469 C 618.5 1762.503906 618.523438 1762.15625 618.597656 1761.808594 C 618.671875 1761.464844 618.796875 1761.136719 618.972656 1760.828125 C 619.148438 1760.519531 619.363281 1760.242188 619.617188 1760 C 619.875 1759.757812 620.160156 1759.554688 620.480469 1759.398438 C 729.609375 1706.828125 773.050781 1525 674.644531 1441.753906 C 620.921875 1396.277344 518.707031 1417.289062 503.632812 1490.867188 C 502.984375 1493.882812 501.390625 1496.21875 498.847656 1497.871094 C 476.863281 1512.410156 453.902344 1552.394531 479.167969 1575.445312 C 481.175781 1577.277344 481.382812 1579.316406 479.789062 1581.558594 C 475.53125 1587.707031 470.066406 1588.5625 463.386719 1584.132812 C 439.804688 1568.351562 435.875 1546.039062 451.597656 1517.199219 C 490.78125 1445.300781 569.238281 1390.160156 651.242188 1399.023438 C 694.265625 1403.695312 723.816406 1428.308594 739.894531 1472.871094 C 748.492188 1496.808594 743.351562 1525.089844 742.640625 1551.507812 C 742.636719 1551.859375 742.683594 1552.203125 742.792969 1552.539062 C 742.898438 1552.875 743.058594 1553.1875 743.269531 1553.46875 C 743.476562 1553.753906 743.726562 1553.996094 744.019531 1554.195312 C 744.308594 1554.394531 744.621094 1554.542969 744.960938 1554.640625 C 745.300781 1554.738281 745.648438 1554.777344 746 1554.757812 C 746.351562 1554.738281 746.691406 1554.664062 747.019531 1554.53125 C 747.347656 1554.402344 747.644531 1554.222656 747.910156 1553.992188 C 748.179688 1553.761719 748.402344 1553.496094 748.582031 1553.191406 C 762.589844 1528.722656 766.546875 1503.015625 760.460938 1476.0625 C 760.320312 1475.367188 760.355469 1474.675781 760.574219 1474 C 760.792969 1473.320312 761.164062 1472.742188 761.6875 1472.265625 C 762.207031 1471.789062 762.8125 1471.480469 763.496094 1471.335938 C 764.179688 1471.191406 764.851562 1471.230469 765.515625 1471.453125 C 798.847656 1482.210938 817.167969 1505.703125 820.480469 1541.933594 Z M 820.480469 1541.933594 " fill-opacity="1" fill-rule="nonzero" style="fill: rgb(180, 0, 0);"/>
  <path d="M 728.902344 1413.742188 C 794.148438 1390.601562 855.320312 1422.074219 870.210938 1490.160156 C 887.46875 1569.058594 868.527344 1638.0625 813.386719 1697.164062 C 813.148438 1697.378906 812.878906 1697.546875 812.582031 1697.671875 C 812.285156 1697.796875 811.976562 1697.871094 811.65625 1697.886719 C 811.335938 1697.90625 811.019531 1697.875 810.710938 1697.785156 C 810.398438 1697.695312 810.113281 1697.558594 809.851562 1697.375 C 809.585938 1697.1875 809.363281 1696.964844 809.175781 1696.703125 C 808.988281 1696.441406 808.851562 1696.15625 808.761719 1695.84375 C 808.671875 1695.535156 808.636719 1695.222656 808.652344 1694.898438 C 808.671875 1694.578125 808.742188 1694.269531 808.863281 1693.972656 C 845.921875 1621.542969 879.875 1471.984375 758.597656 1452.660156 C 756 1452.246094 753.871094 1451.035156 752.214844 1449.023438 L 727.394531 1418.972656 C 725.382812 1416.546875 725.886719 1414.804688 728.902344 1413.742188 Z M 728.902344 1413.742188 " fill-opacity="1" fill-rule="nonzero" style="fill: rgb(180, 0, 0);"/>
  <path d="M 517.554688 1480.320312 C 554.609375 1426.152344 646.71875 1406.558594 684.308594 1475.621094 C 684.953125 1476.796875 685.304688 1478.054688 685.367188 1479.390625 C 685.429688 1480.730469 685.195312 1482.015625 684.664062 1483.246094 L 668.171875 1520.125 C 668.046875 1520.40625 667.902344 1520.675781 667.738281 1520.941406 C 667.578125 1521.203125 667.398438 1521.453125 667.203125 1521.695312 C 667.007812 1521.933594 666.800781 1522.160156 666.574219 1522.371094 C 666.351562 1522.585938 666.113281 1522.78125 665.867188 1522.964844 C 665.617188 1523.144531 665.355469 1523.3125 665.085938 1523.460938 C 664.816406 1523.609375 664.535156 1523.738281 664.25 1523.851562 C 663.960938 1523.964844 663.667969 1524.058594 663.367188 1524.132812 C 663.066406 1524.207031 662.765625 1524.261719 662.457031 1524.296875 C 662.152344 1524.332031 661.84375 1524.347656 661.535156 1524.34375 C 661.226562 1524.339844 660.917969 1524.316406 660.613281 1524.273438 C 660.308594 1524.230469 660.007812 1524.164062 659.710938 1524.082031 C 659.410156 1524 659.121094 1523.898438 658.835938 1523.777344 C 658.550781 1523.660156 658.277344 1523.519531 658.007812 1523.363281 C 657.742188 1523.210938 657.488281 1523.035156 657.242188 1522.847656 C 657 1522.660156 656.765625 1522.457031 656.550781 1522.238281 C 656.332031 1522.019531 656.128906 1521.789062 655.941406 1521.542969 C 620.773438 1475.503906 575.917969 1463.355469 521.367188 1485.105469 C 521.046875 1485.234375 520.714844 1485.3125 520.371094 1485.332031 C 520.027344 1485.355469 519.691406 1485.320312 519.359375 1485.234375 C 519.023438 1485.148438 518.714844 1485.007812 518.425781 1484.820312 C 518.136719 1484.632812 517.886719 1484.40625 517.671875 1484.136719 C 517.457031 1483.867188 517.292969 1483.570312 517.171875 1483.246094 C 517.054688 1482.925781 516.988281 1482.589844 516.980469 1482.246094 C 516.96875 1481.902344 517.011719 1481.566406 517.109375 1481.238281 C 517.207031 1480.90625 517.355469 1480.601562 517.554688 1480.320312 Z M 517.554688 1480.320312 " fill-opacity="1" fill-rule="nonzero" style="fill: rgb(180, 0, 0);"/>
  <path d="M 592.289062 1497.785156 C 583.332031 1505.40625 565.335938 1509.664062 556.292969 1516.402344 C 540.394531 1528.222656 527.6875 1542.761719 518.171875 1560.019531 C 516.402344 1563.210938 513.710938 1564.363281 510.105469 1563.476562 L 484.042969 1557.003906 C 483.625 1556.902344 483.222656 1556.769531 482.828125 1556.597656 C 482.433594 1556.429688 482.058594 1556.226562 481.699219 1555.992188 C 481.339844 1555.757812 481.003906 1555.496094 480.6875 1555.203125 C 480.375 1554.914062 480.085938 1554.597656 479.828125 1554.257812 C 479.566406 1553.914062 479.335938 1553.554688 479.136719 1553.175781 C 478.9375 1552.796875 478.773438 1552.402344 478.640625 1551.996094 C 478.511719 1551.585938 478.414062 1551.171875 478.351562 1550.746094 C 478.292969 1550.324219 478.269531 1549.894531 478.28125 1549.46875 C 480.140625 1501.0625 554.253906 1487.058594 589.628906 1489.628906 C 597.132812 1490.21875 598.019531 1492.9375 592.289062 1497.785156 Z M 592.289062 1497.785156 " fill-opacity="1" fill-rule="nonzero" style="fill: rgb(180, 0, 0);"/>
  <path d="M 645.035156 1546.632812 L 611.082031 1573.492188 C 610.753906 1573.757812 610.394531 1573.964844 610.003906 1574.121094 C 609.613281 1574.273438 609.207031 1574.363281 608.789062 1574.390625 C 608.371094 1574.421875 607.957031 1574.382812 607.546875 1574.285156 C 607.140625 1574.183594 606.757812 1574.027344 606.398438 1573.808594 C 606.039062 1573.589844 605.71875 1573.320312 605.445312 1573.003906 C 605.167969 1572.6875 604.945312 1572.335938 604.777344 1571.953125 C 604.609375 1571.566406 604.503906 1571.164062 604.460938 1570.746094 C 604.417969 1570.328125 604.4375 1569.914062 604.519531 1569.503906 L 616.046875 1504.964844 C 616.519531 1502.007812 617.878906 1501.507812 620.125 1503.457031 L 645.480469 1525.796875 C 645.855469 1526.125 646.210938 1526.472656 646.546875 1526.835938 C 646.886719 1527.203125 647.203125 1527.585938 647.5 1527.984375 C 647.792969 1528.386719 648.066406 1528.800781 648.316406 1529.230469 C 648.566406 1529.660156 648.792969 1530.105469 648.996094 1530.558594 C 649.195312 1531.011719 649.375 1531.476562 649.523438 1531.949219 C 649.675781 1532.425781 649.800781 1532.90625 649.898438 1533.394531 C 649.996094 1533.878906 650.066406 1534.371094 650.109375 1534.867188 C 650.152344 1535.359375 650.171875 1535.855469 650.160156 1536.351562 C 650.148438 1536.847656 650.113281 1537.339844 650.046875 1537.832031 C 649.980469 1538.324219 649.890625 1538.808594 649.769531 1539.292969 C 649.652344 1539.773438 649.507812 1540.246094 649.335938 1540.710938 C 649.167969 1541.175781 648.972656 1541.628906 648.75 1542.070312 C 648.53125 1542.515625 648.285156 1542.945312 648.015625 1543.359375 C 647.75 1543.773438 647.457031 1544.175781 647.144531 1544.558594 C 646.832031 1544.941406 646.5 1545.308594 646.148438 1545.652344 C 645.796875 1546 645.425781 1546.324219 645.035156 1546.632812 Z M 645.035156 1546.632812 " fill-opacity="1" fill-rule="nonzero" style="fill: rgb(180, 0, 0);"/>
  <path d="M 597.164062 1668.707031 C 596.695312 1668.8125 596.222656 1668.828125 595.746094 1668.753906 C 595.273438 1668.679688 594.828125 1668.515625 594.414062 1668.269531 C 594.003906 1668.023438 593.652344 1667.707031 593.363281 1667.324219 C 593.070312 1666.941406 592.863281 1666.515625 592.738281 1666.050781 C 592.609375 1665.589844 592.578125 1665.117188 592.632812 1664.640625 C 592.6875 1664.160156 592.832031 1663.710938 593.0625 1663.289062 C 593.292969 1662.867188 593.59375 1662.503906 593.96875 1662.199219 C 594.339844 1661.894531 594.753906 1661.667969 595.210938 1661.523438 C 663.742188 1633.511719 672.25 1568.085938 692.199219 1503.101562 C 692.398438 1502.476562 692.761719 1501.960938 693.28125 1501.558594 C 693.800781 1501.152344 694.390625 1500.933594 695.046875 1500.894531 C 695.703125 1500.855469 696.316406 1501.003906 696.878906 1501.34375 C 697.445312 1501.679688 697.863281 1502.148438 698.136719 1502.75 C 736.878906 1588.121094 684.042969 1656.914062 597.164062 1668.707031 Z M 597.164062 1668.707031 " fill-opacity="1" fill-rule="nonzero" style="fill: rgb(180, 0, 0);"/>
  <path d="M 595.746094 1510.636719 C 595.832031 1510.359375 595.964844 1510.101562 596.140625 1509.863281 C 596.320312 1509.628906 596.53125 1509.429688 596.777344 1509.265625 C 597.027344 1509.101562 597.292969 1508.984375 597.578125 1508.914062 C 597.863281 1508.847656 598.152344 1508.828125 598.441406 1508.859375 C 598.730469 1508.890625 599.003906 1508.972656 599.257812 1509.101562 C 599.515625 1509.234375 599.738281 1509.402344 599.929688 1509.617188 C 600.125 1509.828125 600.269531 1510.066406 600.375 1510.335938 C 600.476562 1510.601562 600.53125 1510.878906 600.53125 1511.171875 C 601.359375 1526.359375 597.28125 1539.570312 588.296875 1550.796875 C 588.117188 1551.066406 587.871094 1551.246094 587.5625 1551.332031 C 587.253906 1551.421875 586.949219 1551.402344 586.65625 1551.269531 C 586.359375 1551.140625 586.140625 1550.929688 586 1550.640625 C 585.859375 1550.347656 585.824219 1550.046875 585.902344 1549.734375 C 588.621094 1536.257812 591.902344 1523.226562 595.746094 1510.636719 Z M 595.746094 1510.636719 " fill-opacity="1" fill-rule="nonzero" style="fill: rgb(180, 0, 0);"/>
  <path d="M 566.402344 1527.128906 C 567.699219 1525.175781 569.53125 1523.609375 571.898438 1522.429688 C 572.230469 1522.269531 572.582031 1522.167969 572.953125 1522.117188 C 573.320312 1522.066406 573.6875 1522.070312 574.054688 1522.136719 C 574.421875 1522.199219 574.769531 1522.3125 575.101562 1522.484375 C 575.429688 1522.652344 575.722656 1522.867188 575.984375 1523.128906 C 576.242188 1523.386719 576.457031 1523.679688 576.621094 1524.003906 C 576.785156 1524.332031 576.898438 1524.671875 576.953125 1525.03125 C 577.007812 1525.390625 577.003906 1525.75 576.945312 1526.105469 C 576.882812 1526.464844 576.765625 1526.804688 576.597656 1527.128906 C 568.378906 1543.5 555.40625 1554.3125 537.675781 1559.574219 C 537.355469 1559.664062 537.027344 1559.695312 536.695312 1559.671875 C 536.359375 1559.644531 536.042969 1559.5625 535.738281 1559.421875 C 535.433594 1559.285156 535.164062 1559.097656 534.925781 1558.863281 C 534.6875 1558.625 534.496094 1558.359375 534.351562 1558.054688 C 534.210938 1557.753906 534.121094 1557.4375 534.089844 1557.101562 C 534.058594 1556.769531 534.085938 1556.441406 534.171875 1556.117188 C 534.257812 1555.796875 534.394531 1555.496094 534.585938 1555.222656 C 534.777344 1554.945312 535.011719 1554.714844 535.285156 1554.519531 C 545.804688 1547.546875 555.4375 1539.363281 564.183594 1529.964844 C 565.011719 1529.078125 565.75 1528.132812 566.402344 1527.128906 Z M 566.402344 1527.128906 " fill-opacity="1" fill-rule="nonzero" style="fill: rgb(180, 0, 0);"/>
  <path d="M 474.644531 1756.207031 C 477.480469 1758.925781 476.949219 1760.667969 473.050781 1761.4375 C 418.707031 1771.808594 368.707031 1701.328125 357.890625 1658.421875 C 346.246094 1612.382812 356.621094 1570.125 389.007812 1531.648438 C 391.902344 1528.28125 393.527344 1528.8125 393.882812 1533.246094 C 402.039062 1630.496094 400.53125 1685.195312 474.644531 1756.207031 Z M 474.644531 1756.207031 " fill-opacity="1" fill-rule="nonzero" style="fill: rgb(180, 0, 0);"/>
  <path d="M 468.882812 1605.054688 C 469.253906 1605.238281 469.535156 1605.515625 469.730469 1605.890625 C 469.925781 1606.265625 469.996094 1606.664062 469.945312 1607.09375 L 469.503906 1609.839844 C 469.464844 1610.203125 469.363281 1610.550781 469.199219 1610.878906 C 469.039062 1611.210938 468.824219 1611.503906 468.558594 1611.761719 C 468.289062 1612.019531 467.988281 1612.230469 467.648438 1612.386719 C 467.308594 1612.542969 466.953125 1612.640625 466.578125 1612.675781 L 422.871094 1617.730469 C 422.5 1617.769531 422.128906 1617.777344 421.757812 1617.746094 C 421.386719 1617.71875 421.019531 1617.65625 420.660156 1617.558594 C 420.300781 1617.460938 419.957031 1617.332031 419.621094 1617.171875 C 419.285156 1617.011719 418.972656 1616.820312 418.671875 1616.597656 C 418.375 1616.378906 418.101562 1616.132812 417.851562 1615.863281 C 417.601562 1615.589844 417.378906 1615.296875 417.183594 1614.984375 C 416.988281 1614.671875 416.824219 1614.34375 416.695312 1614 C 416.5625 1613.65625 416.464844 1613.304688 416.402344 1612.941406 C 412.324219 1590.839844 413.296875 1569 419.328125 1547.429688 C 419.421875 1547.09375 419.570312 1546.785156 419.773438 1546.5 C 419.972656 1546.214844 420.214844 1545.96875 420.496094 1545.765625 C 420.78125 1545.5625 421.089844 1545.410156 421.421875 1545.3125 C 421.757812 1545.210938 422.097656 1545.171875 422.445312 1545.1875 C 422.792969 1545.203125 423.128906 1545.273438 423.453125 1545.402344 C 423.777344 1545.53125 424.070312 1545.707031 424.335938 1545.9375 C 424.597656 1546.164062 424.816406 1546.429688 424.992188 1546.730469 C 425.167969 1547.03125 425.289062 1547.351562 425.355469 1547.695312 C 429.789062 1573.050781 444.296875 1592.167969 468.882812 1605.054688 Z M 468.882812 1605.054688 " fill-opacity="1" fill-rule="nonzero" style="fill: rgb(180, 0, 0);"/>
  <path d="M 512.675781 1657.800781 C 554.167969 1615.691406 610.992188 1592.730469 657.003906 1553.8125 C 657.375 1553.507812 657.800781 1553.339844 658.28125 1553.304688 C 658.757812 1553.265625 659.203125 1553.371094 659.605469 1553.613281 C 660.011719 1553.855469 660.300781 1554.191406 660.476562 1554.621094 C 660.648438 1555.050781 660.671875 1555.488281 660.550781 1555.941406 C 648.257812 1606.707031 618.851562 1641.371094 572.339844 1659.929688 C 554.875 1666.84375 533.597656 1664.894531 515.160156 1664.097656 C 514.433594 1664.054688 513.777344 1663.824219 513.1875 1663.398438 C 512.597656 1662.972656 512.167969 1662.421875 511.902344 1661.746094 C 511.632812 1661.066406 511.570312 1660.371094 511.710938 1659.660156 C 511.851562 1658.945312 512.175781 1658.328125 512.675781 1657.800781 Z M 512.675781 1657.800781 " fill-opacity="1" fill-rule="nonzero" style="fill: rgb(180, 0, 0);"/>
  <path d="M 489.097656 1609.929688 C 476.566406 1606.324219 475.945312 1601.210938 487.234375 1594.59375 C 514.183594 1578.929688 543.617188 1569.53125 575.53125 1566.402344 C 576.707031 1566.289062 577.875 1566.339844 579.035156 1566.554688 C 580.195312 1566.765625 581.304688 1567.128906 582.367188 1567.648438 C 583.425781 1568.164062 584.394531 1568.816406 585.277344 1569.597656 C 586.15625 1570.382812 586.917969 1571.273438 587.554688 1572.265625 C 588.1875 1573.257812 588.679688 1574.320312 589.023438 1575.449219 C 589.367188 1576.578125 589.554688 1577.730469 589.582031 1578.910156 C 589.605469 1580.089844 589.472656 1581.25 589.179688 1582.394531 C 588.886719 1583.535156 588.445312 1584.617188 587.855469 1585.636719 C 572.519531 1612.144531 514.183594 1617.289062 489.097656 1609.929688 Z M 489.097656 1609.929688 " fill-opacity="1" fill-rule="nonzero" style="fill: rgb(180, 0, 0);"/>
  <path d="M 445.566406 1640.25 C 444.941406 1640.019531 444.371094 1639.691406 443.855469 1639.261719 C 443.34375 1638.835938 442.917969 1638.332031 442.578125 1637.757812 C 442.242188 1637.179688 442.007812 1636.5625 441.886719 1635.90625 C 441.761719 1635.25 441.75 1634.59375 441.855469 1633.933594 C 441.960938 1633.273438 442.175781 1632.652344 442.496094 1632.066406 C 442.816406 1631.480469 443.226562 1630.964844 443.726562 1630.523438 C 444.226562 1630.078125 444.789062 1629.734375 445.410156 1629.484375 C 446.027344 1629.238281 446.671875 1629.101562 447.339844 1629.078125 L 517.730469 1625.175781 C 521.394531 1625 522.132812 1626.359375 519.945312 1629.253906 L 499.558594 1657.269531 C 499.234375 1657.707031 498.851562 1658.078125 498.40625 1658.386719 C 497.960938 1658.699219 497.480469 1658.929688 496.957031 1659.082031 C 496.4375 1659.234375 495.90625 1659.296875 495.367188 1659.277344 C 494.824219 1659.253906 494.300781 1659.148438 493.792969 1658.953125 Z M 445.566406 1640.25 " fill-opacity="1" fill-rule="nonzero" style="fill: rgb(180, 0, 0);"/>
  <path d="M 426.152344 1647.074219 C 500.53125 1693.261719 608.953125 1695.210938 686.4375 1650.796875 C 686.78125 1650.605469 687.148438 1650.464844 687.535156 1650.386719 C 687.925781 1650.304688 688.316406 1650.28125 688.710938 1650.316406 C 689.105469 1650.355469 689.484375 1650.449219 689.851562 1650.605469 C 690.214844 1650.757812 690.550781 1650.960938 690.851562 1651.214844 C 691.15625 1651.472656 691.414062 1651.765625 691.628906 1652.101562 C 691.839844 1652.433594 692 1652.792969 692.105469 1653.175781 C 692.210938 1653.554688 692.253906 1653.945312 692.238281 1654.339844 C 692.226562 1654.738281 692.152344 1655.121094 692.019531 1655.496094 C 643.972656 1792.375 462.144531 1792.820312 423.582031 1648.9375 C 422.871094 1646.21875 423.730469 1645.597656 426.152344 1647.074219 Z M 426.152344 1647.074219 " fill-opacity="1" fill-rule="nonzero" style="fill: rgb(180, 0, 0);"/>
  <path d="M 605.585938 1780.40625 C 676.328125 1798.9375 739.363281 1778.191406 785.992188 1723.582031 C 787.941406 1721.335938 790.335938 1719.769531 793.171875 1718.882812 C 835.285156 1706.292969 849.113281 1678.546875 872.074219 1644.679688 C 874.378906 1641.195312 876.210938 1641.429688 877.570312 1645.390625 C 938.652344 1828.457031 615.601562 1909.839844 600.355469 1784.929688 C 599.882812 1780.851562 601.625 1779.34375 605.585938 1780.40625 Z M 605.585938 1780.40625 " fill-opacity="1" fill-rule="nonzero" style="fill: rgb(180, 0, 0);"/>
  <path d="M 350.175781 1694.769531 C 371.808594 1729.789062 394.503906 1751.242188 431.738281 1769.59375 C 432.4375 1769.9375 433.003906 1770.4375 433.433594 1771.085938 C 433.863281 1771.738281 434.101562 1772.453125 434.148438 1773.230469 C 434.195312 1774.011719 434.042969 1774.746094 433.691406 1775.445312 C 433.339844 1776.140625 432.835938 1776.703125 432.179688 1777.128906 C 397.605469 1799.527344 377.570312 1831.351562 372.074219 1872.605469 C 371.425781 1877.511719 373.375 1880.910156 377.925781 1882.800781 C 458.953125 1916.488281 542.996094 1925.796875 608.597656 1854.789062 C 609.132812 1854.21875 609.707031 1853.695312 610.328125 1853.222656 C 610.945312 1852.75 611.601562 1852.332031 612.292969 1851.96875 C 612.980469 1851.605469 613.695312 1851.300781 614.4375 1851.058594 C 615.179688 1850.816406 615.933594 1850.636719 616.707031 1850.519531 C 617.476562 1850.402344 618.253906 1850.355469 619.03125 1850.367188 C 619.8125 1850.382812 620.585938 1850.460938 621.351562 1850.605469 C 622.117188 1850.75 622.867188 1850.957031 623.597656 1851.226562 C 624.328125 1851.496094 625.03125 1851.828125 625.710938 1852.214844 C 647.398438 1864.804688 670.832031 1869.207031 696.011719 1865.425781 C 696.730469 1865.316406 697.421875 1865.402344 698.09375 1865.683594 C 698.765625 1865.960938 699.3125 1866.394531 699.742188 1866.984375 C 700.171875 1867.570312 700.414062 1868.222656 700.476562 1868.949219 C 700.539062 1869.671875 700.410156 1870.359375 700.089844 1871.011719 C 635.726562 2002.304688 434.664062 1988.210938 361.789062 1875 C 320.65625 1811.082031 293.617188 1766.753906 344.945312 1694.59375 C 345.101562 1694.386719 345.277344 1694.203125 345.476562 1694.039062 C 345.675781 1693.875 345.890625 1693.738281 346.121094 1693.628906 C 346.351562 1693.515625 346.59375 1693.4375 346.847656 1693.382812 C 347.097656 1693.332031 347.351562 1693.308594 347.609375 1693.316406 C 347.863281 1693.324219 348.117188 1693.363281 348.363281 1693.433594 C 348.613281 1693.503906 348.847656 1693.601562 349.070312 1693.730469 C 349.292969 1693.855469 349.5 1694.007812 349.6875 1694.183594 C 349.875 1694.359375 350.039062 1694.554688 350.175781 1694.769531 Z M 350.175781 1694.769531 " fill-opacity="1" fill-rule="nonzero" style="fill: rgb(180, 0, 0);"/>
  <path d="M 777.214844 2051.949219 C 821.898438 2030.585938 807.445312 1965.601562 879.167969 1979.609375 C 879.4375 1979.664062 879.707031 1979.671875 879.980469 1979.636719 C 880.253906 1979.601562 880.515625 1979.523438 880.765625 1979.40625 C 881.011719 1979.285156 881.238281 1979.132812 881.433594 1978.941406 C 881.632812 1978.75 881.796875 1978.535156 881.925781 1978.289062 C 882.054688 1978.046875 882.144531 1977.789062 882.191406 1977.519531 C 882.238281 1977.246094 882.238281 1976.976562 882.199219 1976.703125 C 882.15625 1976.429688 882.074219 1976.171875 881.949219 1975.925781 C 881.824219 1975.679688 881.667969 1975.460938 881.472656 1975.265625 C 878.457031 1972.191406 874.910156 1970.597656 870.832031 1970.480469 C 870 1970.453125 869.191406 1970.304688 868.40625 1970.03125 C 867.621094 1969.757812 866.894531 1969.371094 866.230469 1968.871094 C 865.5625 1968.375 864.988281 1967.785156 864.503906 1967.109375 C 864.019531 1966.433594 863.648438 1965.699219 863.390625 1964.910156 C 863.132812 1964.117188 863.003906 1963.304688 862.996094 1962.472656 C 862.992188 1961.640625 863.109375 1960.828125 863.355469 1960.035156 C 863.601562 1959.238281 863.960938 1958.5 864.433594 1957.816406 C 864.910156 1957.132812 865.476562 1956.535156 866.132812 1956.027344 C 909.398438 1921.867188 957.179688 1896.011719 1009.484375 1878.457031 C 1009.820312 1878.335938 1010.125 1878.164062 1010.402344 1877.933594 C 1010.675781 1877.703125 1010.902344 1877.433594 1011.078125 1877.125 C 1011.257812 1876.816406 1011.378906 1876.488281 1011.4375 1876.136719 C 1011.5 1875.785156 1011.496094 1875.433594 1011.433594 1875.082031 C 1011.371094 1874.730469 1011.246094 1874.398438 1011.066406 1874.09375 C 1010.886719 1873.785156 1010.65625 1873.519531 1010.382812 1873.292969 C 1010.105469 1873.066406 1009.800781 1872.890625 1009.460938 1872.773438 C 1009.125 1872.65625 1008.777344 1872.601562 1008.421875 1872.605469 C 963.652344 1874.289062 890.070312 1920.300781 861.171875 1940.335938 C 851.714844 1946.898438 849.644531 1945.09375 854.964844 1934.929688 C 859.574219 1925.945312 861.171875 1916.253906 859.75 1905.851562 C 859.667969 1905.425781 859.46875 1905.070312 859.148438 1904.78125 C 858.828125 1904.488281 858.453125 1904.324219 858.023438 1904.285156 C 857.59375 1904.242188 857.191406 1904.335938 856.824219 1904.558594 C 856.453125 1904.78125 856.191406 1905.097656 856.027344 1905.496094 C 845.390625 1936.40625 828.988281 1964.125 806.828125 1988.652344 C 804.699219 1991.015625 803.632812 1990.601562 803.632812 1987.410156 C 804.253906 1925.976562 806.117188 1876.417969 859.21875 1837.589844 C 859.703125 1837.257812 860.238281 1837.101562 860.824219 1837.113281 C 861.410156 1837.125 861.9375 1837.304688 862.410156 1837.65625 C 862.878906 1838.003906 863.203125 1838.460938 863.382812 1839.015625 C 863.5625 1839.574219 863.5625 1840.132812 863.386719 1840.691406 L 855.496094 1861.96875 C 854.3125 1865.21875 855.40625 1866.460938 858.777344 1865.691406 C 860.550781 1865.277344 862.292969 1863.769531 864.007812 1861.171875 C 881.148438 1835.164062 906.148438 1817.878906 939.007812 1809.308594 C 942.019531 1808.480469 942.730469 1809.425781 941.132812 1812.144531 L 930.496094 1830.054688 C 930.34375 1830.320312 930.238281 1830.605469 930.179688 1830.90625 C 930.117188 1831.210938 930.109375 1831.515625 930.148438 1831.820312 C 930.1875 1832.125 930.273438 1832.417969 930.410156 1832.695312 C 930.542969 1832.972656 930.71875 1833.21875 930.933594 1833.441406 C 931.148438 1833.660156 931.394531 1833.839844 931.667969 1833.980469 C 931.941406 1834.121094 932.230469 1834.214844 932.535156 1834.261719 C 932.839844 1834.308594 933.144531 1834.304688 933.445312 1834.253906 C 933.75 1834.199219 934.039062 1834.101562 934.308594 1833.953125 C 985.019531 1804.875 1044.238281 1815.957031 1092.640625 1821.632812 C 1121.097656 1825 1149.46875 1789.980469 1167.820312 1771.011719 C 1170.242188 1768.585938 1171.246094 1769.058594 1170.832031 1772.429688 C 1166.578125 1806.707031 1158.511719 1830.820312 1146.632812 1844.769531 C 1087.855469 1914.007812 1030.941406 1987.324219 951.152344 2003.546875 C 950.691406 2003.621094 950.257812 2003.773438 949.851562 2004.003906 C 949.449219 2004.234375 949.09375 2004.53125 948.792969 2004.886719 C 948.496094 2005.242188 948.265625 2005.640625 948.109375 2006.082031 C 947.953125 2006.519531 947.875 2006.972656 947.878906 2007.441406 C 947.886719 2007.90625 947.972656 2008.359375 948.140625 2008.792969 C 948.308594 2009.230469 948.542969 2009.621094 948.851562 2009.972656 C 949.160156 2010.324219 949.519531 2010.609375 949.933594 2010.832031 C 950.34375 2011.050781 950.777344 2011.195312 951.242188 2011.257812 C 979.433594 2015.808594 1007.269531 2014.804688 1034.75 2008.246094 C 1040.128906 2007.003906 1040.75 2008.246094 1036.613281 2011.96875 C 983.863281 2059.929688 883.863281 2063.296875 819.238281 2044.238281 C 807.625 2040.867188 804.875 2046.097656 796.71875 2051.417969 C 745.539062 2084.515625 703.753906 2127.480469 671.367188 2180.320312 C 671.210938 2180.574219 671.101562 2180.84375 671.035156 2181.132812 C 670.96875 2181.421875 670.949219 2181.714844 670.976562 2182.011719 C 671.007812 2182.304688 671.082031 2182.589844 671.199219 2182.859375 C 671.320312 2183.128906 671.480469 2183.375 671.679688 2183.59375 C 671.878906 2183.816406 672.109375 2183.996094 672.367188 2184.144531 C 672.625 2184.289062 672.902344 2184.390625 673.191406 2184.445312 C 673.484375 2184.5 673.777344 2184.511719 674.070312 2184.472656 C 674.363281 2184.433594 674.644531 2184.347656 674.910156 2184.21875 L 715.25 2164.097656 C 715.644531 2163.902344 716.042969 2163.796875 716.441406 2163.785156 C 716.839844 2163.769531 717.207031 2163.847656 717.546875 2164.019531 C 717.882812 2164.191406 718.167969 2164.4375 718.394531 2164.765625 C 718.625 2165.09375 718.777344 2165.472656 718.859375 2165.910156 C 718.945312 2166.34375 718.945312 2166.800781 718.871094 2167.277344 C 718.792969 2167.753906 718.644531 2168.214844 718.421875 2168.660156 C 718.199219 2169.101562 717.921875 2169.5 717.585938 2169.84375 C 717.253906 2170.191406 716.886719 2170.460938 716.488281 2170.65625 C 628.8125 2214.714844 628.457031 2298.847656 632.269531 2387.765625 C 632.507812 2392.847656 630.082031 2395.242188 625 2394.945312 L 614.539062 2394.414062 C 610.519531 2394.179688 608.539062 2392.050781 608.597656 2388.03125 C 610.019531 2306.175781 618.5 2225.148438 634.042969 2144.945312 C 645.921875 2083.597656 637.234375 2038.917969 602.128906 1990.691406 C 602.011719 1990.53125 601.9375 1990.351562 601.902344 1990.15625 C 601.867188 1989.964844 601.875 1989.773438 601.929688 1989.589844 C 601.980469 1989.40625 602.070312 1989.246094 602.199219 1989.113281 C 602.328125 1988.980469 602.484375 1988.882812 602.660156 1988.828125 C 603.902344 1988.417969 605.113281 1988.003906 606.292969 1987.589844 C 607.476562 1987.234375 608.390625 1987.558594 609.042969 1988.5625 L 641.84375 2038.5625 C 642.03125 2038.835938 642.253906 2039.070312 642.515625 2039.265625 C 642.777344 2039.464844 643.066406 2039.617188 643.378906 2039.71875 C 643.6875 2039.824219 644.007812 2039.875 644.335938 2039.875 C 644.667969 2039.875 644.984375 2039.820312 645.296875 2039.714844 C 645.609375 2039.609375 645.894531 2039.457031 646.15625 2039.257812 C 646.417969 2039.058594 646.640625 2038.824219 646.824219 2038.550781 C 647.007812 2038.28125 647.144531 2037.984375 647.234375 2037.667969 C 647.320312 2037.351562 647.359375 2037.03125 647.339844 2036.703125 C 644.738281 2008.628906 644.03125 1980.140625 645.210938 1951.242188 C 645.566406 1942.199219 650.089844 1936.878906 658.066406 1934.484375 C 661.554688 1933.480469 663.417969 1934.75 663.652344 1938.296875 C 669.148438 2022.105469 663.59375 2105.023438 646.984375 2187.058594 C 646.933594 2187.339844 646.929688 2187.621094 646.96875 2187.910156 C 647.011719 2188.195312 647.097656 2188.46875 647.226562 2188.726562 C 647.359375 2188.984375 647.523438 2189.214844 647.730469 2189.417969 C 647.933594 2189.617188 648.164062 2189.78125 648.421875 2189.902344 C 648.679688 2190.027344 648.945312 2190.105469 649.226562 2190.132812 C 649.503906 2190.164062 649.78125 2190.148438 650.054688 2190.082031 C 650.324219 2190.015625 650.578125 2189.90625 650.8125 2189.753906 C 651.046875 2189.597656 651.25 2189.410156 651.417969 2189.183594 C 681.207031 2150.976562 677.128906 2130.761719 685.902344 2085.285156 C 685.917969 2084.941406 685.992188 2084.617188 686.136719 2084.308594 C 686.277344 2083.996094 686.472656 2083.726562 686.722656 2083.496094 C 686.96875 2083.261719 687.253906 2083.085938 687.574219 2082.96875 C 687.894531 2082.847656 688.222656 2082.792969 688.5625 2082.804688 C 688.902344 2082.816406 689.230469 2082.894531 689.539062 2083.035156 C 689.851562 2083.175781 690.121094 2083.371094 690.355469 2083.621094 C 690.585938 2083.867188 690.761719 2084.152344 690.882812 2084.472656 C 691.003906 2084.789062 691.058594 2085.121094 691.046875 2085.460938 L 694.058594 2111.171875 C 694.15625 2111.984375 694.453125 2112.71875 694.953125 2113.367188 C 695.457031 2114.019531 696.085938 2114.488281 696.847656 2114.78125 C 697.609375 2115.070312 698.382812 2115.136719 699.175781 2114.984375 C 699.964844 2114.828125 700.65625 2114.472656 701.242188 2113.917969 L 764.273438 2056.648438 C 764.75 2056.253906 765.117188 2055.777344 765.382812 2055.222656 C 765.644531 2054.664062 765.777344 2054.074219 765.78125 2053.457031 C 766.726562 2018.527344 773.523438 1984.722656 786.171875 1952.039062 C 788.179688 1946.839844 789.480469 1947.015625 790.070312 1952.570312 C 793.5 1986.140625 788.089844 2018.144531 773.847656 2048.582031 C 771.898438 2052.835938 773.019531 2053.960938 777.214844 2051.949219 Z M 777.214844 2051.949219 " fill-opacity="1" fill-rule="nonzero" style="fill: rgb(0, 71, 11);"/>
  <path d="M 406.738281 1828.8125 C 447.605469 1765.160156 509.839844 1771.898438 575.621094 1780.140625 C 578.695312 1780.496094 580.527344 1782.179688 581.117188 1785.195312 C 584.898438 1804.34375 593.675781 1820.714844 607.445312 1834.308594 C 610.046875 1836.910156 609.839844 1839.273438 606.828125 1841.402344 C 543.617188 1886.4375 490.25 1915.335938 414.183594 1872.871094 C 398.316406 1864.007812 397.339844 1843.441406 406.738281 1828.8125 Z M 406.738281 1828.8125 " fill-opacity="1" fill-rule="nonzero" style="fill: rgb(180, 0, 0);"/>
</svg>