<?xml version="1.0" encoding="utf-8"?>
<svg viewBox="1561.3091 1402.9847 885.2534 992.4962" xmlns="http://www.w3.org/2000/svg">
  <path d="M 1735.019531 1475.089844 C 1734.476562 1475.414062 1733.894531 1475.632812 1733.277344 1475.75 C 1732.65625 1475.867188 1732.035156 1475.871094 1731.417969 1475.765625 C 1730.796875 1475.65625 1730.214844 1475.445312 1729.667969 1475.128906 C 1729.125 1474.808594 1728.648438 1474.40625 1728.246094 1473.917969 C 1727.84375 1473.429688 1727.53125 1472.882812 1727.320312 1472.28125 C 1727.105469 1471.683594 1727 1471.0625 1727.003906 1470.421875 C 1727.007812 1469.785156 1727.117188 1469.164062 1727.335938 1468.5625 C 1727.558594 1467.964844 1727.871094 1467.421875 1728.28125 1466.933594 C 1735.015625 1458.894531 1738.148438 1449.558594 1737.675781 1438.917969 C 1737.636719 1438.074219 1737.707031 1437.242188 1737.890625 1436.414062 C 1738.074219 1435.589844 1738.367188 1434.800781 1738.765625 1434.054688 C 1739.164062 1433.304688 1739.652344 1432.621094 1740.234375 1432.003906 C 1740.816406 1431.382812 1741.472656 1430.851562 1742.199219 1430.40625 C 1744.738281 1428.871094 1745.773438 1427.15625 1745.300781 1425.265625 C 1744.941406 1423.761719 1744.742188 1422.222656 1744.703125 1420.640625 C 1744.664062 1419.0625 1744.789062 1417.503906 1745.070312 1415.96875 C 1745.355469 1414.433594 1745.789062 1412.980469 1746.375 1411.605469 C 1746.960938 1410.230469 1747.675781 1408.988281 1748.515625 1407.878906 C 1749.359375 1406.769531 1750.296875 1405.835938 1751.332031 1405.078125 C 1752.367188 1404.320312 1753.457031 1403.761719 1754.605469 1403.410156 C 1755.757812 1403.0625 1756.917969 1402.925781 1758.09375 1403.007812 C 1759.269531 1403.09375 1760.414062 1403.390625 1761.523438 1403.902344 L 1795.566406 1419.238281 C 1798.285156 1420.480469 1798.640625 1422.222656 1796.632812 1424.46875 C 1778.722656 1444.679688 1758.183594 1461.554688 1735.019531 1475.089844 Z M 1735.019531 1475.089844 " fill-opacity="1" fill-rule="nonzero" style="fill: rgb(180, 0, 0);"/>
  <path d="M 1815.335938 1431.117188 C 1815.101562 1431.945312 1814.835938 1432.742188 1814.539062 1433.511719 C 1814.007812 1435.105469 1813.03125 1435.492188 1811.613281 1434.664062 L 1807.890625 1432.359375 C 1805.230469 1430.820312 1805.230469 1429.253906 1807.890625 1427.660156 C 1867.878906 1392.613281 1908.894531 1407.121094 1930.941406 1471.1875 C 1938.976562 1494.472656 1931.414062 1511.050781 1908.246094 1520.921875 C 1905.585938 1522.042969 1904.402344 1521.1875 1904.699219 1518.351562 C 1910.019531 1469.769531 1882.359375 1390.867188 1816.578125 1429.609375 C 1815.929688 1429.964844 1815.515625 1430.46875 1815.335938 1431.117188 Z M 1815.335938 1431.117188 " fill-opacity="1" fill-rule="nonzero" style="fill: rgb(180, 0, 0);"/>
  <path d="M 1872.960938 1605.585938 C 1826.980469 1599.910156 1782.476562 1588.710938 1739.449219 1571.984375 C 1736.789062 1570.921875 1734.78125 1569.121094 1733.421875 1566.578125 L 1726.328125 1553.191406 C 1726.203125 1552.953125 1726.097656 1552.710938 1726.003906 1552.457031 C 1725.910156 1552.207031 1725.832031 1551.949219 1725.769531 1551.6875 C 1725.710938 1551.429688 1725.667969 1551.164062 1725.640625 1550.898438 C 1725.613281 1550.628906 1725.601562 1550.363281 1725.609375 1550.09375 C 1725.617188 1549.828125 1725.640625 1549.558594 1725.683594 1549.296875 C 1725.722656 1549.03125 1725.78125 1548.769531 1725.859375 1548.511719 C 1725.933594 1548.253906 1726.023438 1548.003906 1726.128906 1547.757812 C 1726.238281 1547.511719 1726.359375 1547.273438 1726.496094 1547.042969 C 1726.632812 1546.8125 1726.785156 1546.589844 1726.949219 1546.378906 C 1727.117188 1546.167969 1727.292969 1545.96875 1727.484375 1545.78125 C 1727.675781 1545.59375 1727.878906 1545.417969 1728.089844 1545.253906 C 1728.304688 1545.09375 1728.527344 1544.945312 1728.761719 1544.8125 C 1728.992188 1544.675781 1729.234375 1544.558594 1729.480469 1544.457031 C 1729.726562 1544.351562 1729.980469 1544.265625 1730.238281 1544.195312 C 1730.496094 1544.125 1730.761719 1544.070312 1731.027344 1544.03125 C 1731.292969 1543.996094 1731.558594 1543.976562 1731.828125 1543.972656 C 1768.234375 1543.261719 1803.042969 1542.699219 1836.257812 1542.289062 C 1875 1541.753906 1928.191406 1540.957031 1944.59375 1497.519531 C 1946.1875 1493.320312 1947.605469 1493.351562 1948.847656 1497.605469 C 1965.957031 1557.980469 1871.453125 1632.800781 1826.949219 1654.433594 C 1763.828125 1685.019531 1689.007812 1649.558594 1620.65625 1672.074219 C 1617.582031 1673.078125 1616.222656 1671.957031 1616.578125 1668.707031 C 1624.023438 1598.050781 1593.972656 1566.132812 1582.890625 1509.132812 C 1574.644531 1467.109375 1592.019531 1406.292969 1646.632812 1413.828125 C 1657.742188 1415.367188 1674.4375 1421.277344 1696.71875 1431.558594 C 1699.554688 1432.859375 1700.148438 1434.839844 1698.492188 1437.5 C 1635.726562 1538.296875 1700.621094 1598.050781 1800.265625 1598.226562 C 1803.574219 1598.226562 1804.226562 1599.558594 1802.214844 1602.214844 L 1800.710938 1604.34375 C 1799.230469 1606.414062 1797.25 1607.238281 1794.769531 1606.828125 C 1734.574219 1597.339844 1655.320312 1593.261719 1643.972656 1514.894531 C 1643.558594 1511.703125 1641.8125 1510.609375 1638.742188 1511.613281 C 1630.320312 1514.363281 1625.355469 1521.808594 1627.394531 1531.027344 C 1649.023438 1627.039062 1800.621094 1631.207031 1873.402344 1612.675781 C 1873.804688 1612.566406 1874.171875 1612.386719 1874.511719 1612.148438 C 1874.851562 1611.910156 1875.140625 1611.621094 1875.382812 1611.28125 C 1875.621094 1610.941406 1875.800781 1610.574219 1875.914062 1610.171875 C 1876.027344 1609.773438 1876.070312 1609.367188 1876.046875 1608.953125 C 1876.019531 1608.539062 1875.925781 1608.140625 1875.761719 1607.757812 C 1875.601562 1607.375 1875.378906 1607.03125 1875.097656 1606.722656 C 1874.816406 1606.417969 1874.492188 1606.167969 1874.128906 1605.972656 C 1873.761719 1605.777344 1873.371094 1605.648438 1872.960938 1605.585938 Z M 1872.960938 1605.585938 " fill-opacity="1" fill-rule="nonzero" style="fill: rgb(180, 0, 0);"/>
  <path d="M 1684.21875 1519.238281 C 1683.15625 1480.941406 1704.167969 1435.816406 1734.574219 1418.085938 C 1734.851562 1417.917969 1735.144531 1417.800781 1735.460938 1417.734375 C 1735.773438 1417.664062 1736.089844 1417.648438 1736.40625 1417.683594 C 1736.726562 1417.71875 1737.03125 1417.804688 1737.324219 1417.941406 C 1737.617188 1418.074219 1737.882812 1418.253906 1738.117188 1418.476562 C 1738.355469 1418.699219 1738.554688 1418.953125 1738.710938 1419.242188 C 1738.871094 1419.527344 1738.980469 1419.835938 1739.046875 1420.15625 C 1739.109375 1420.480469 1739.125 1420.804688 1739.085938 1421.132812 C 1739.050781 1421.460938 1738.964844 1421.773438 1738.828125 1422.074219 C 1721.1875 1460.105469 1725.175781 1490.78125 1691.578125 1522.25 C 1691.273438 1522.542969 1690.9375 1522.789062 1690.5625 1522.980469 C 1690.1875 1523.175781 1689.792969 1523.3125 1689.378906 1523.390625 C 1688.964844 1523.472656 1688.550781 1523.488281 1688.128906 1523.449219 C 1687.710938 1523.40625 1687.304688 1523.304688 1686.914062 1523.144531 C 1686.527344 1522.984375 1686.167969 1522.773438 1685.839844 1522.507812 C 1685.511719 1522.246094 1685.226562 1521.9375 1684.988281 1521.59375 C 1684.746094 1521.246094 1684.5625 1520.871094 1684.433594 1520.46875 C 1684.300781 1520.070312 1684.230469 1519.660156 1684.21875 1519.238281 Z M 1684.21875 1519.238281 " fill-opacity="1" fill-rule="nonzero" style="fill: rgb(180, 0, 0);"/>
  <path d="M 1977.835938 1500.355469 L 1967.464844 1521.898438 C 1967.332031 1522.183594 1967.152344 1522.4375 1966.929688 1522.660156 C 1966.707031 1522.882812 1966.449219 1523.058594 1966.164062 1523.1875 C 1965.878906 1523.320312 1965.578125 1523.398438 1965.261719 1523.421875 C 1964.949219 1523.449219 1964.640625 1523.417969 1964.335938 1523.332031 C 1964.03125 1523.246094 1963.753906 1523.113281 1963.496094 1522.929688 C 1963.242188 1522.742188 1963.027344 1522.519531 1962.847656 1522.257812 C 1962.671875 1521.996094 1962.546875 1521.714844 1962.472656 1521.40625 C 1962.398438 1521.101562 1962.375 1520.792969 1962.410156 1520.480469 C 1966.546875 1485.019531 1953.429688 1457.710938 1923.050781 1438.5625 C 1922.703125 1438.347656 1922.378906 1438.097656 1922.074219 1437.824219 C 1921.773438 1437.546875 1921.496094 1437.246094 1921.25 1436.921875 C 1921 1436.59375 1920.78125 1436.25 1920.597656 1435.882812 C 1920.410156 1435.519531 1920.257812 1435.140625 1920.140625 1434.75 C 1920.019531 1434.355469 1919.9375 1433.957031 1919.894531 1433.550781 C 1919.847656 1433.144531 1919.835938 1432.734375 1919.863281 1432.328125 C 1919.890625 1431.917969 1919.953125 1431.515625 1920.054688 1431.117188 C 1920.15625 1430.71875 1920.289062 1430.335938 1920.457031 1429.960938 C 1920.628906 1429.589844 1920.828125 1429.234375 1921.0625 1428.898438 C 1921.292969 1428.558594 1921.554688 1428.246094 1921.84375 1427.957031 C 1922.132812 1427.667969 1922.449219 1427.40625 1922.785156 1427.171875 C 1923.121094 1426.9375 1923.476562 1426.738281 1923.847656 1426.566406 C 1924.21875 1426.398438 1924.605469 1426.261719 1925.003906 1426.160156 C 1925.398438 1426.0625 1925.804688 1425.996094 1926.210938 1425.96875 C 1926.621094 1425.941406 1927.027344 1425.949219 1927.433594 1425.996094 C 1927.84375 1426.042969 1928.242188 1426.125 1928.632812 1426.242188 C 1956.886719 1434.75 1985.460938 1436.316406 2014.363281 1430.941406 C 2016.960938 1430.464844 2019.503906 1430.761719 2021.984375 1431.828125 C 2060.902344 1448.847656 2057.09375 1478.457031 2044.503906 1514.449219 C 2023.136719 1575.621094 2011.613281 1619.058594 2029.875 1682.445312 C 2029.960938 1682.738281 2030.027344 1683.035156 2030.078125 1683.332031 C 2030.128906 1683.632812 2030.164062 1683.933594 2030.179688 1684.238281 C 2030.195312 1684.542969 2030.195312 1684.84375 2030.175781 1685.148438 C 2030.15625 1685.449219 2030.121094 1685.753906 2030.070312 1686.050781 C 2030.015625 1686.351562 2029.945312 1686.644531 2029.859375 1686.9375 C 2029.773438 1687.226562 2029.671875 1687.511719 2029.550781 1687.792969 C 2029.433594 1688.074219 2029.300781 1688.34375 2029.148438 1688.609375 C 2029 1688.871094 2028.835938 1689.125 2028.65625 1689.371094 C 2028.476562 1689.617188 2028.285156 1689.851562 2028.078125 1690.074219 C 2027.871094 1690.296875 2027.652344 1690.507812 2027.421875 1690.707031 C 2027.195312 1690.90625 2026.953125 1691.089844 2026.703125 1691.261719 C 2026.449219 1691.433594 2026.191406 1691.589844 2025.921875 1691.730469 C 2025.652344 1691.871094 2025.375 1691.996094 2025.09375 1692.105469 C 2024.808594 1692.214844 2024.523438 1692.308594 2024.226562 1692.386719 C 2023.933594 1692.460938 2023.636719 1692.523438 2023.335938 1692.566406 C 2023.035156 1692.609375 2022.734375 1692.632812 2022.429688 1692.640625 C 2001.742188 1693.234375 1982.359375 1698.402344 1964.273438 1708.15625 C 1961.140625 1709.871094 1958.214844 1709.605469 1955.496094 1707.359375 C 1926.890625 1684.308594 1894.679688 1669.386719 1858.863281 1662.589844 C 1858.285156 1662.472656 1857.734375 1662.273438 1857.214844 1661.992188 C 1856.691406 1661.710938 1856.222656 1661.363281 1855.804688 1660.941406 C 1855.386719 1660.523438 1855.039062 1660.054688 1854.757812 1659.535156 C 1854.480469 1659.015625 1854.285156 1658.464844 1854.167969 1657.890625 C 1854.054688 1657.3125 1854.027344 1656.734375 1854.085938 1656.152344 C 1854.148438 1655.566406 1854.292969 1655.007812 1854.519531 1654.472656 C 1854.75 1653.933594 1855.054688 1653.445312 1855.429688 1653 C 1855.808594 1652.554688 1856.242188 1652.175781 1856.738281 1651.863281 C 1912.53125 1616.105469 1956.558594 1568.085938 1988.828125 1507.800781 C 1991.488281 1502.835938 1990.25 1499.378906 1985.105469 1497.429688 C 1984.773438 1497.296875 1984.429688 1497.195312 1984.078125 1497.128906 C 1983.726562 1497.0625 1983.371094 1497.03125 1983.011719 1497.03125 C 1982.65625 1497.03125 1982.296875 1497.066406 1981.945312 1497.136719 C 1981.59375 1497.207031 1981.25 1497.308594 1980.914062 1497.441406 C 1980.578125 1497.578125 1980.261719 1497.742188 1979.957031 1497.9375 C 1979.652344 1498.132812 1979.367188 1498.355469 1979.105469 1498.605469 C 1978.839844 1498.855469 1978.601562 1499.125 1978.390625 1499.421875 C 1978.175781 1499.714844 1977.992188 1500.027344 1977.835938 1500.355469 Z M 1977.835938 1500.355469 " fill-opacity="1" fill-rule="nonzero" style="fill: rgb(180, 0, 0);"/>
  <path d="M 1819.238281 1443.171875 C 1873.050781 1409.839844 1898.9375 1484.574219 1884.398438 1523.582031 C 1884.199219 1524.125 1883.917969 1524.628906 1883.5625 1525.085938 C 1883.207031 1525.542969 1882.789062 1525.9375 1882.3125 1526.265625 C 1881.835938 1526.59375 1881.316406 1526.839844 1880.761719 1527.007812 C 1880.207031 1527.175781 1879.640625 1527.253906 1879.058594 1527.242188 C 1878.480469 1527.234375 1877.914062 1527.136719 1877.363281 1526.949219 C 1876.816406 1526.765625 1876.308594 1526.5 1875.839844 1526.15625 C 1875.375 1525.8125 1874.96875 1525.40625 1874.628906 1524.933594 C 1874.289062 1524.464844 1874.027344 1523.957031 1873.847656 1523.402344 C 1862.027344 1488.003906 1838.179688 1465.21875 1802.304688 1455.054688 C 1801.734375 1454.863281 1801.210938 1454.582031 1800.738281 1454.210938 C 1800.265625 1453.835938 1799.871094 1453.394531 1799.554688 1452.882812 C 1799.238281 1452.371094 1799.015625 1451.820312 1798.894531 1451.230469 C 1798.769531 1450.640625 1798.75 1450.046875 1798.832031 1449.453125 C 1798.917969 1448.855469 1799.101562 1448.292969 1799.382812 1447.761719 C 1799.667969 1447.230469 1800.03125 1446.761719 1800.476562 1446.359375 C 1800.925781 1445.953125 1801.425781 1445.636719 1801.984375 1445.410156 C 1802.542969 1445.183594 1803.121094 1445.058594 1803.722656 1445.035156 L 1812.855469 1445.035156 C 1815.164062 1445.035156 1817.289062 1444.414062 1819.238281 1443.171875 Z M 1819.238281 1443.171875 " fill-opacity="1" fill-rule="nonzero" style="fill: rgb(180, 0, 0);"/>
  <path d="M 1852.570312 1519.769531 C 1853.457031 1518.171875 1855.140625 1517.640625 1857.625 1518.171875 C 1858.089844 1518.277344 1858.53125 1518.445312 1858.949219 1518.683594 C 1859.363281 1518.921875 1859.734375 1519.214844 1860.058594 1519.566406 C 1860.382812 1519.914062 1860.648438 1520.304688 1860.859375 1520.738281 C 1861.066406 1521.171875 1861.203125 1521.625 1861.277344 1522.101562 C 1861.347656 1522.578125 1861.347656 1523.054688 1861.277344 1523.535156 C 1861.207031 1524.015625 1861.066406 1524.476562 1860.859375 1524.914062 C 1860.652344 1525.355469 1860.386719 1525.753906 1860.0625 1526.117188 C 1859.738281 1526.480469 1859.367188 1526.785156 1858.953125 1527.039062 C 1845.773438 1534.664062 1833.363281 1533.984375 1821.71875 1525 C 1819.53125 1523.34375 1819.445312 1521.601562 1821.453125 1519.769531 C 1822.929688 1518.351562 1823.730469 1516.636719 1823.847656 1514.628906 C 1823.90625 1513.089844 1823.375 1511.464844 1822.25 1509.75 C 1803.722656 1482.359375 1759.839844 1491.488281 1778.28125 1525 C 1778.484375 1525.480469 1778.597656 1525.984375 1778.617188 1526.503906 C 1778.636719 1527.027344 1778.5625 1527.535156 1778.394531 1528.03125 C 1778.226562 1528.527344 1777.976562 1528.972656 1777.644531 1529.378906 C 1777.308594 1529.78125 1776.914062 1530.109375 1776.460938 1530.367188 C 1776.007812 1530.625 1775.519531 1530.792969 1775.003906 1530.871094 C 1774.488281 1530.949219 1773.972656 1530.933594 1773.460938 1530.824219 C 1772.953125 1530.710938 1772.476562 1530.515625 1772.039062 1530.230469 C 1771.601562 1529.945312 1771.230469 1529.589844 1770.921875 1529.167969 L 1758.6875 1508.511719 C 1756.621094 1504.964844 1757.210938 1501.921875 1760.460938 1499.378906 L 1772.960938 1489.980469 C 1775.382812 1488.148438 1775.53125 1486.140625 1773.402344 1483.953125 C 1772.398438 1482.949219 1771.097656 1482.535156 1769.503906 1482.710938 C 1768.386719 1482.828125 1767.46875 1483.273438 1766.753906 1484.042969 C 1756.414062 1494.621094 1743.914062 1501.269531 1729.253906 1503.988281 C 1728.898438 1504.0625 1728.542969 1504.078125 1728.183594 1504.035156 C 1727.824219 1503.996094 1727.480469 1503.902344 1727.148438 1503.753906 C 1726.820312 1503.605469 1726.519531 1503.40625 1726.25 1503.164062 C 1725.984375 1502.921875 1725.757812 1502.644531 1725.578125 1502.332031 C 1725.394531 1502.015625 1725.265625 1501.683594 1725.191406 1501.332031 C 1725.113281 1500.976562 1725.09375 1500.621094 1725.128906 1500.257812 C 1725.164062 1499.898438 1725.253906 1499.554688 1725.398438 1499.222656 C 1725.542969 1498.890625 1725.734375 1498.585938 1725.976562 1498.316406 C 1739.507812 1482.300781 1756.886719 1473.109375 1778.101562 1470.746094 C 1780.644531 1470.449219 1782.832031 1471.160156 1784.664062 1472.871094 C 1790.988281 1478.839844 1798.199219 1479.964844 1806.292969 1476.242188 C 1806.625 1476.054688 1806.976562 1475.9375 1807.351562 1475.890625 C 1807.726562 1475.84375 1808.097656 1475.871094 1808.460938 1475.972656 C 1808.824219 1476.074219 1809.15625 1476.238281 1809.457031 1476.46875 C 1809.753906 1476.703125 1809.996094 1476.980469 1810.183594 1477.3125 C 1810.371094 1477.640625 1810.492188 1477.992188 1810.539062 1478.367188 C 1810.585938 1478.742188 1810.5625 1479.109375 1810.460938 1479.476562 C 1810.363281 1479.839844 1810.199219 1480.171875 1809.96875 1480.472656 C 1809.738281 1480.773438 1809.457031 1481.015625 1809.132812 1481.207031 C 1808.246094 1481.855469 1807.445312 1482.59375 1806.738281 1483.421875 C 1806.617188 1483.550781 1806.515625 1483.691406 1806.429688 1483.847656 C 1806.347656 1484.003906 1806.285156 1484.167969 1806.242188 1484.339844 C 1806.199219 1484.511719 1806.183594 1484.6875 1806.1875 1484.863281 C 1806.191406 1485.039062 1806.214844 1485.214844 1806.265625 1485.382812 C 1806.316406 1485.554688 1806.386719 1485.714844 1806.476562 1485.867188 C 1806.566406 1486.019531 1806.675781 1486.15625 1806.804688 1486.277344 C 1806.929688 1486.402344 1807.070312 1486.507812 1807.226562 1486.59375 C 1807.378906 1486.679688 1807.542969 1486.746094 1807.710938 1486.789062 C 1835.195312 1494.503906 1826.949219 1510.285156 1840.601562 1520.65625 C 1842.90625 1522.371094 1845.597656 1523.019531 1848.671875 1522.605469 C 1850.441406 1522.3125 1851.742188 1521.367188 1852.570312 1519.769531 Z M 1852.570312 1519.769531 " fill-opacity="1" fill-rule="nonzero" style="fill: rgb(180, 0, 0);"/>
  <path d="M 1750.710938 1519.058594 C 1751.421875 1519.304688 1752.070312 1519.660156 1752.660156 1520.128906 C 1753.246094 1520.601562 1753.738281 1521.15625 1754.132812 1521.796875 C 1754.527344 1522.4375 1754.800781 1523.128906 1754.953125 1523.863281 C 1755.109375 1524.601562 1755.132812 1525.34375 1755.027344 1526.085938 C 1754.921875 1526.832031 1754.695312 1527.539062 1754.34375 1528.203125 C 1753.992188 1528.871094 1753.539062 1529.457031 1752.984375 1529.964844 C 1752.425781 1530.472656 1751.800781 1530.871094 1751.105469 1531.160156 C 1750.410156 1531.449219 1749.6875 1531.613281 1748.9375 1531.648438 C 1743.378906 1531.828125 1738.386719 1531.441406 1733.953125 1530.496094 C 1732.867188 1530.265625 1731.730469 1530.09375 1730.546875 1529.976562 C 1729.367188 1529.863281 1728.152344 1529.808594 1726.910156 1529.8125 C 1725.667969 1529.816406 1724.414062 1529.878906 1723.148438 1530.003906 C 1721.882812 1530.125 1720.628906 1530.308594 1719.378906 1530.546875 C 1718.132812 1530.785156 1716.910156 1531.078125 1715.71875 1531.425781 C 1714.523438 1531.773438 1713.378906 1532.167969 1712.273438 1532.613281 C 1711.171875 1533.058594 1710.132812 1533.546875 1709.15625 1534.074219 C 1708.179688 1534.605469 1707.277344 1535.167969 1706.457031 1535.761719 C 1705.632812 1536.359375 1704.898438 1536.980469 1704.257812 1537.628906 C 1703.613281 1538.273438 1703.070312 1538.9375 1702.625 1539.613281 C 1702.183594 1540.289062 1701.84375 1540.96875 1701.613281 1541.65625 C 1701.382812 1542.339844 1701.261719 1543.019531 1701.25 1543.695312 C 1701.238281 1544.371094 1701.335938 1545.027344 1701.546875 1545.671875 C 1701.753906 1546.3125 1702.070312 1546.929688 1702.492188 1547.519531 C 1702.917969 1548.109375 1703.4375 1548.664062 1704.0625 1549.1875 C 1704.6875 1549.707031 1705.398438 1550.183594 1706.207031 1550.621094 C 1709.21875 1552.335938 1710.84375 1554.195312 1711.082031 1556.207031 C 1711.257812 1558.511719 1710.253906 1559.25 1708.066406 1558.421875 C 1694.148438 1553.28125 1689.539062 1540.160156 1700.089844 1528.101562 C 1711.851562 1514.746094 1728.722656 1511.730469 1750.710938 1519.058594 Z M 1750.710938 1519.058594 " fill-opacity="1" fill-rule="nonzero" style="fill: rgb(180, 0, 0);"/>
  <path d="M 1814.792969 1521.796875 C 1814.78125 1522.035156 1814.714844 1522.269531 1814.589844 1522.5 C 1814.464844 1522.726562 1814.285156 1522.945312 1814.050781 1523.15625 C 1813.820312 1523.363281 1813.535156 1523.558594 1813.203125 1523.742188 C 1812.871094 1523.925781 1812.496094 1524.089844 1812.074219 1524.238281 C 1811.65625 1524.386719 1811.203125 1524.515625 1810.710938 1524.625 C 1810.222656 1524.734375 1809.707031 1524.820312 1809.164062 1524.886719 C 1808.621094 1524.949219 1808.066406 1524.992188 1807.492188 1525.011719 C 1806.921875 1525.027344 1806.34375 1525.023438 1805.761719 1524.996094 C 1805.179688 1524.96875 1804.605469 1524.914062 1804.039062 1524.839844 C 1803.46875 1524.765625 1802.917969 1524.671875 1802.386719 1524.554688 C 1801.855469 1524.4375 1801.347656 1524.300781 1800.871094 1524.144531 C 1800.394531 1523.988281 1799.957031 1523.816406 1799.554688 1523.625 C 1799.148438 1523.4375 1798.792969 1523.234375 1798.480469 1523.023438 C 1798.164062 1522.808594 1797.902344 1522.585938 1797.691406 1522.355469 C 1797.480469 1522.125 1797.324219 1521.886719 1797.21875 1521.648438 C 1797.117188 1521.410156 1797.074219 1521.171875 1797.085938 1520.933594 C 1797.097656 1520.695312 1797.164062 1520.460938 1797.289062 1520.230469 C 1797.414062 1520.003906 1797.59375 1519.785156 1797.828125 1519.574219 C 1798.058594 1519.367188 1798.34375 1519.171875 1798.675781 1518.988281 C 1799.007812 1518.804688 1799.382812 1518.640625 1799.804688 1518.492188 C 1800.222656 1518.34375 1800.679688 1518.214844 1801.167969 1518.105469 C 1801.65625 1517.996094 1802.171875 1517.910156 1802.714844 1517.84375 C 1803.257812 1517.78125 1803.8125 1517.738281 1804.386719 1517.71875 C 1804.957031 1517.703125 1805.535156 1517.707031 1806.117188 1517.734375 C 1806.699219 1517.761719 1807.273438 1517.816406 1807.839844 1517.890625 C 1808.410156 1517.964844 1808.960938 1518.058594 1809.492188 1518.175781 C 1810.023438 1518.292969 1810.53125 1518.429688 1811.007812 1518.585938 C 1811.484375 1518.742188 1811.921875 1518.914062 1812.328125 1519.105469 C 1812.730469 1519.292969 1813.085938 1519.496094 1813.402344 1519.707031 C 1813.714844 1519.921875 1813.976562 1520.144531 1814.1875 1520.375 C 1814.398438 1520.605469 1814.558594 1520.84375 1814.660156 1521.082031 C 1814.761719 1521.320312 1814.804688 1521.558594 1814.792969 1521.796875 Z M 1814.792969 1521.796875 " fill-opacity="1" fill-rule="nonzero" style="fill: rgb(180, 0, 0);"/>
  <path d="M 1927.835938 1836.789062 C 1965.957031 1847.488281 1995.003906 1870.332031 2014.980469 1905.320312 C 2016.753906 1908.390625 2016.132812 1909.011719 2013.121094 1907.179688 C 1973.050781 1882.359375 1929.875 1865.308594 1883.597656 1856.027344 C 1882.859375 1855.867188 1882.164062 1855.597656 1881.511719 1855.214844 C 1880.859375 1854.835938 1880.28125 1854.363281 1879.777344 1853.800781 C 1879.273438 1853.238281 1878.871094 1852.613281 1878.5625 1851.921875 C 1878.257812 1851.230469 1878.066406 1850.511719 1877.988281 1849.757812 C 1877.90625 1849.007812 1877.945312 1848.261719 1878.105469 1847.523438 C 1878.261719 1846.785156 1878.527344 1846.089844 1878.902344 1845.433594 C 1879.28125 1844.777344 1879.746094 1844.195312 1880.308594 1843.691406 C 1880.867188 1843.183594 1881.492188 1842.773438 1882.179688 1842.464844 C 1939.804688 1817.996094 1942.554688 1771.71875 1966.933594 1722.519531 C 1967.273438 1721.808594 1967.710938 1721.164062 1968.246094 1720.582031 C 1968.78125 1720 1969.394531 1719.507812 1970.078125 1719.105469 C 1970.765625 1718.703125 1971.496094 1718.410156 1972.277344 1718.21875 C 1973.054688 1718.03125 1973.84375 1717.957031 1974.644531 1717.996094 C 2013.296875 1719.945312 2057.890625 1714.714844 2044.59375 1661.257812 C 2043.527344 1657.0625 2045.125 1654.757812 2049.378906 1654.34375 C 2092.878906 1649.851562 2128.664062 1663.859375 2156.738281 1696.367188 C 2163.59375 1704.285156 2161.789062 1708.125 2151.328125 1707.890625 C 2075.441406 1705.761719 2078.722656 1756.648438 2042.90625 1799.824219 C 2014.539062 1833.953125 1970.566406 1837.144531 1929.078125 1831.207031 C 1928.726562 1831.179688 1928.375 1831.21875 1928.035156 1831.320312 C 1927.691406 1831.421875 1927.375 1831.578125 1927.089844 1831.792969 C 1926.800781 1832.003906 1926.5625 1832.261719 1926.367188 1832.558594 C 1926.171875 1832.859375 1926.035156 1833.179688 1925.960938 1833.523438 C 1925.882812 1833.867188 1925.871094 1834.210938 1925.921875 1834.558594 C 1925.972656 1834.902344 1926.085938 1835.226562 1926.257812 1835.527344 C 1926.433594 1835.828125 1926.65625 1836.085938 1926.925781 1836.304688 C 1927.199219 1836.523438 1927.5 1836.683594 1927.835938 1836.789062 Z M 1927.835938 1836.789062 " fill-opacity="1" fill-rule="nonzero" style="fill: rgb(180, 0, 0);"/>
  <path d="M 1776.152344 1826.773438 C 1776.695312 1826.855469 1777.238281 1826.84375 1777.777344 1826.734375 C 1778.316406 1826.625 1778.820312 1826.425781 1779.289062 1826.132812 C 1779.753906 1825.84375 1780.15625 1825.480469 1780.496094 1825.046875 C 1780.832031 1824.613281 1781.085938 1824.132812 1781.25 1823.609375 C 1781.417969 1823.082031 1781.488281 1822.546875 1781.460938 1821.996094 C 1781.433594 1821.445312 1781.3125 1820.917969 1781.097656 1820.410156 C 1780.882812 1819.90625 1780.585938 1819.453125 1780.207031 1819.050781 C 1779.828125 1818.652344 1779.394531 1818.328125 1778.902344 1818.085938 C 1752.1875 1803.367188 1728.160156 1784.988281 1706.824219 1762.941406 C 1706.203125 1762.277344 1705.792969 1761.5 1705.59375 1760.609375 C 1705.390625 1759.71875 1705.429688 1758.84375 1705.707031 1757.984375 C 1705.984375 1757.121094 1706.464844 1756.394531 1707.140625 1755.808594 C 1707.820312 1755.21875 1708.601562 1754.847656 1709.484375 1754.699219 C 1762.203125 1745.539062 1803.367188 1718.824219 1832.980469 1674.558594 C 1834.691406 1671.957031 1837.085938 1670.863281 1840.160156 1671.277344 C 1879.046875 1676.417969 1914.746094 1689.894531 1947.25 1711.703125 C 1950.03125 1713.535156 1950.945312 1716.074219 1950 1719.328125 C 1922.074219 1816.3125 1856.558594 1880.054688 1749.46875 1844.859375 C 1716.046875 1833.777344 1687.589844 1808.953125 1662.144531 1784.042969 C 1651.269531 1773.40625 1638.476562 1770.359375 1623.757812 1774.910156 C 1621.691406 1775.5625 1620.804688 1774.792969 1621.097656 1772.605469 C 1621.160156 1771.839844 1621.511719 1770.980469 1622.164062 1770.035156 C 1622.636719 1769.265625 1623.316406 1768.675781 1624.203125 1768.261719 C 1656.738281 1752.925781 1672.339844 1765.601562 1697.695312 1789.980469 C 1719.738281 1811.257812 1745.890625 1823.523438 1776.152344 1826.773438 Z M 1776.152344 1826.773438 " fill-opacity="1" fill-rule="nonzero" style="fill: rgb(180, 0, 0);"/>
  <path d="M 1720.390625 1683.867188 C 1736.347656 1686.230469 1764.125 1684.132812 1803.722656 1677.570312 C 1808.273438 1676.800781 1808.925781 1678.074219 1805.671875 1681.382812 C 1733.777344 1753.457031 1622.429688 1719.59375 1576.773438 1808.066406 C 1574.761719 1812.027344 1573.316406 1811.820312 1572.429688 1807.445312 C 1562.203125 1753.605469 1577.480469 1714.777344 1618.261719 1690.957031 C 1647.871094 1673.671875 1687.144531 1678.902344 1720.390625 1683.867188 Z M 1720.390625 1683.867188 " fill-opacity="1" fill-rule="nonzero" style="fill: rgb(180, 0, 0);"/>
  <path d="M 1792.464844 1868.792969 C 1792.554688 1868.429688 1792.707031 1868.089844 1792.917969 1867.777344 C 1793.128906 1867.464844 1793.386719 1867.195312 1793.695312 1866.96875 C 1794 1866.742188 1794.335938 1866.574219 1794.703125 1866.460938 C 1795.070312 1866.347656 1795.449219 1866.296875 1795.832031 1866.3125 C 1816.992188 1867.019531 1837.351562 1863.386719 1856.914062 1855.40625 C 1859.75 1854.226562 1860.816406 1855.140625 1860.105469 1858.15625 C 1856.207031 1873.996094 1850.976562 1884.191406 1844.414062 1888.742188 C 1815.515625 1908.835938 1791.609375 1932.503906 1772.695312 1959.75 C 1772.523438 1960.007812 1772.289062 1960.179688 1771.992188 1960.261719 C 1771.691406 1960.34375 1771.402344 1960.316406 1771.125 1960.183594 C 1770.84375 1960.050781 1770.644531 1959.839844 1770.519531 1959.558594 C 1770.398438 1959.273438 1770.382812 1958.984375 1770.480469 1958.6875 Z M 1792.464844 1868.792969 " fill-opacity="1" fill-rule="nonzero" style="fill: rgb(180, 0, 0);"/>
  <path d="M 2293.617188 1902.75 C 2343.972656 1884.484375 2381.472656 1950.796875 2442.464844 1939.449219 C 2447.132812 1938.5625 2447.8125 1939.804688 2444.503906 1943.171875 C 2402.570312 1985.902344 2358.597656 1982.003906 2307.625 1982.179688 C 2306.890625 1982.195312 2306.183594 1982.328125 2305.496094 1982.578125 C 2304.808594 1982.832031 2304.179688 1983.1875 2303.613281 1983.648438 C 2303.042969 1984.113281 2302.566406 1984.652344 2302.179688 1985.277344 C 2301.792969 1985.898438 2301.519531 1986.566406 2301.355469 1987.277344 C 2301.191406 1987.992188 2301.148438 1988.710938 2301.226562 1989.441406 C 2301.304688 1990.167969 2301.5 1990.863281 2301.8125 1991.527344 C 2302.121094 1992.1875 2302.535156 1992.78125 2303.042969 1993.308594 C 2303.550781 1993.832031 2304.132812 1994.261719 2304.789062 1994.59375 L 2324.378906 2004.34375 C 2324.945312 2004.617188 2325.398438 2005.011719 2325.75 2005.535156 C 2326.097656 2006.054688 2326.289062 2006.628906 2326.328125 2007.253906 C 2326.363281 2007.878906 2326.238281 2008.472656 2325.953125 2009.03125 C 2325.667969 2009.585938 2325.261719 2010.035156 2324.734375 2010.371094 C 2300.265625 2026.863281 2273.34375 2033.984375 2243.972656 2031.738281 C 2243.4375 2031.710938 2242.910156 2031.773438 2242.398438 2031.925781 C 2241.882812 2032.082031 2241.410156 2032.316406 2240.976562 2032.628906 C 2240.542969 2032.945312 2240.171875 2033.324219 2239.867188 2033.765625 C 2239.5625 2034.207031 2239.34375 2034.6875 2239.203125 2035.207031 C 2239.0625 2035.722656 2239.011719 2036.25 2239.054688 2036.785156 C 2239.09375 2037.320312 2239.222656 2037.832031 2239.4375 2038.324219 C 2239.652344 2038.8125 2239.945312 2039.253906 2240.3125 2039.644531 C 2240.679688 2040.039062 2241.101562 2040.355469 2241.578125 2040.601562 L 2283.953125 2061.703125 C 2284.285156 2061.871094 2284.582031 2062.085938 2284.84375 2062.347656 C 2285.109375 2062.609375 2285.324219 2062.902344 2285.496094 2063.234375 C 2285.664062 2063.5625 2285.78125 2063.910156 2285.84375 2064.277344 C 2285.902344 2064.644531 2285.90625 2065.007812 2285.851562 2065.375 C 2285.800781 2065.742188 2285.691406 2066.09375 2285.527344 2066.425781 C 2285.363281 2066.757812 2285.152344 2067.058594 2284.894531 2067.328125 C 2284.636719 2067.59375 2284.34375 2067.8125 2284.015625 2067.988281 C 2283.691406 2068.164062 2283.34375 2068.285156 2282.980469 2068.351562 C 2213.917969 2079.433594 2101.863281 2052.214844 2101.863281 1967.554688 C 2101.863281 1926.300781 2119.5625 1891.902344 2154.964844 1864.363281 C 2155.242188 1864.144531 2155.550781 1863.976562 2155.882812 1863.855469 C 2156.214844 1863.734375 2156.558594 1863.667969 2156.910156 1863.652344 C 2157.265625 1863.640625 2157.609375 1863.683594 2157.949219 1863.777344 C 2158.292969 1863.875 2158.609375 1864.019531 2158.902344 1864.21875 C 2159.195312 1864.414062 2159.453125 1864.648438 2159.671875 1864.925781 C 2159.894531 1865.203125 2160.066406 1865.507812 2160.1875 1865.839844 C 2160.3125 1866.171875 2160.382812 1866.511719 2160.398438 1866.867188 C 2160.414062 1867.21875 2160.375 1867.566406 2160.285156 1867.90625 L 2151.683594 1899.023438 C 2151.542969 1899.507812 2151.492188 1900 2151.53125 1900.5 C 2151.570312 1901.003906 2151.695312 1901.480469 2151.90625 1901.9375 C 2152.117188 1902.394531 2152.402344 1902.800781 2152.757812 1903.152344 C 2153.117188 1903.507812 2153.527344 1903.785156 2153.984375 1903.992188 C 2154.445312 1904.195312 2154.925781 1904.3125 2155.425781 1904.34375 C 2155.929688 1904.375 2156.421875 1904.320312 2156.902344 1904.171875 C 2157.382812 1904.023438 2157.820312 1903.796875 2158.222656 1903.492188 C 2158.621094 1903.1875 2158.953125 1902.820312 2159.21875 1902.394531 C 2178.074219 1873.433594 2204.875 1857.535156 2239.628906 1854.699219 C 2240.03125 1854.667969 2240.433594 1854.6875 2240.832031 1854.75 C 2241.234375 1854.816406 2241.621094 1854.925781 2241.996094 1855.078125 C 2242.371094 1855.230469 2242.722656 1855.425781 2243.050781 1855.664062 C 2243.382812 1855.898438 2243.679688 1856.167969 2243.945312 1856.476562 C 2244.210938 1856.78125 2244.441406 1857.113281 2244.628906 1857.46875 C 2244.820312 1857.828125 2244.964844 1858.203125 2245.066406 1858.59375 C 2245.167969 1858.988281 2245.226562 1859.386719 2245.234375 1859.789062 C 2245.246094 1860.195312 2245.207031 1860.597656 2245.125 1860.992188 L 2242.554688 1873.757812 C 2242.019531 1876.476562 2243.144531 1877.6875 2245.921875 1877.394531 L 2303.101562 1871.367188 C 2303.652344 1871.300781 2304.199219 1871.320312 2304.742188 1871.425781 C 2305.285156 1871.535156 2305.796875 1871.722656 2306.28125 1871.992188 C 2306.761719 1872.261719 2307.191406 1872.601562 2307.570312 1873.007812 C 2307.945312 1873.414062 2308.246094 1873.867188 2308.480469 1874.367188 C 2308.710938 1874.871094 2308.859375 1875.398438 2308.921875 1875.949219 C 2308.988281 1876.496094 2308.964844 1877.042969 2308.855469 1877.585938 C 2308.75 1878.128906 2308.558594 1878.640625 2308.289062 1879.121094 C 2308.015625 1879.605469 2307.675781 1880.035156 2307.269531 1880.40625 L 2289.980469 1896.808594 C 2289.679688 1897.085938 2289.429688 1897.40625 2289.238281 1897.773438 C 2289.046875 1898.136719 2288.921875 1898.523438 2288.863281 1898.929688 C 2288.804688 1899.335938 2288.816406 1899.742188 2288.902344 1900.148438 C 2288.984375 1900.550781 2289.132812 1900.925781 2289.347656 1901.277344 C 2289.5625 1901.628906 2289.832031 1901.933594 2290.152344 1902.191406 C 2290.472656 1902.449219 2290.828125 1902.644531 2291.21875 1902.78125 C 2291.609375 1902.914062 2292.007812 1902.980469 2292.421875 1902.972656 C 2292.832031 1902.96875 2293.230469 1902.894531 2293.617188 1902.75 Z M 2293.617188 1902.75 " fill-opacity="1" fill-rule="nonzero" style="fill: rgb(0, 71, 11);"/>
  <path d="M 1630.230469 2156.824219 L 1626.59375 2156.382812 C 1625.765625 2156.261719 1625.027344 2155.929688 1624.382812 2155.390625 C 1623.738281 2154.851562 1623.285156 2154.179688 1623.023438 2153.382812 C 1622.761719 2152.585938 1622.726562 2151.777344 1622.921875 2150.960938 C 1623.121094 2150.144531 1623.515625 2149.4375 1624.113281 2148.847656 C 1638.476562 2134.839844 1655.464844 2126.121094 1675.089844 2122.695312 C 1675.472656 2122.625 1675.839844 2122.496094 1676.183594 2122.308594 C 1676.53125 2122.125 1676.839844 2121.890625 1677.113281 2121.609375 C 1677.390625 2121.328125 1677.613281 2121.011719 1677.789062 2120.664062 C 1677.964844 2120.3125 1678.082031 2119.945312 1678.140625 2119.5625 C 1678.199219 2119.179688 1678.199219 2118.796875 1678.132812 2118.417969 C 1678.070312 2118.035156 1677.949219 2117.675781 1677.773438 2117.335938 C 1677.59375 2116.996094 1677.367188 2116.695312 1677.089844 2116.429688 C 1676.8125 2116.164062 1676.5 2115.945312 1676.152344 2115.78125 L 1667.109375 2111.347656 C 1666.542969 2111.058594 1666.09375 2110.644531 1665.753906 2110.105469 C 1665.417969 2109.566406 1665.242188 2108.984375 1665.234375 2108.355469 C 1665.226562 2107.726562 1665.382812 2107.148438 1665.703125 2106.617188 C 1666.023438 2106.085938 1666.464844 2105.683594 1667.019531 2105.40625 C 1694.976562 2091.636719 1724.320312 2086.316406 1755.054688 2089.449219 C 1755.382812 2089.480469 1755.710938 2089.460938 1756.035156 2089.386719 C 1756.359375 2089.316406 1756.664062 2089.195312 1756.949219 2089.027344 C 1757.234375 2088.863281 1757.492188 2088.65625 1757.710938 2088.410156 C 1757.933594 2088.164062 1758.113281 2087.886719 1758.25 2087.585938 C 1758.386719 2087.28125 1758.472656 2086.96875 1758.511719 2086.636719 C 1758.550781 2086.308594 1758.535156 2085.980469 1758.472656 2085.65625 C 1758.410156 2085.332031 1758.296875 2085.023438 1758.136719 2084.730469 C 1757.976562 2084.441406 1757.777344 2084.183594 1757.535156 2083.953125 L 1748.050781 2075.175781 C 1744.859375 2072.164062 1745.449219 2070.507812 1749.824219 2070.210938 C 1780.671875 2068.203125 1804.046875 2079.847656 1819.945312 2105.140625 C 1821.304688 2107.328125 1823.195312 2108.835938 1825.621094 2109.664062 L 1869.148438 2124.378906 C 1869.722656 2124.558594 1870.300781 2124.566406 1870.882812 2124.40625 C 1871.464844 2124.246094 1871.953125 2123.945312 1872.347656 2123.5 C 1872.746094 2123.058594 1872.984375 2122.542969 1873.0625 2121.960938 C 1873.140625 2121.382812 1873.046875 2120.828125 1872.785156 2120.300781 C 1844.355469 2062.972656 1802.214844 2018.792969 1746.367188 1987.765625 C 1743.46875 1986.171875 1740.394531 1985.492188 1737.144531 1985.726562 C 1706.382812 1987.765625 1691.132812 1980.140625 1671.542969 1954.433594 C 1651.625 1928.367188 1626.152344 1909.929688 1595.125 1899.113281 C 1594.773438 1898.980469 1594.453125 1898.792969 1594.167969 1898.546875 C 1593.882812 1898.300781 1593.644531 1898.011719 1593.457031 1897.683594 C 1593.269531 1897.355469 1593.140625 1897.007812 1593.074219 1896.636719 C 1593.007812 1896.265625 1593.007812 1895.898438 1593.070312 1895.53125 C 1593.136719 1895.164062 1593.261719 1894.820312 1593.445312 1894.5 C 1593.632812 1894.179688 1593.867188 1893.90625 1594.152344 1893.671875 C 1594.4375 1893.441406 1594.757812 1893.265625 1595.105469 1893.152344 C 1595.457031 1893.035156 1595.816406 1892.984375 1596.1875 1892.996094 C 1654.964844 1893.441406 1730.140625 1913.296875 1751.863281 1974.023438 C 1752.984375 1977.097656 1754.933594 1979.433594 1757.710938 1981.027344 C 1832.59375 2024.703125 1880.527344 2088.621094 1901.507812 2172.785156 C 1901.570312 2173.054688 1901.675781 2173.308594 1901.828125 2173.542969 C 1901.976562 2173.777344 1902.164062 2173.976562 1902.386719 2174.144531 C 1902.605469 2174.316406 1902.847656 2174.441406 1903.113281 2174.527344 C 1903.378906 2174.609375 1903.652344 2174.648438 1903.929688 2174.636719 C 1904.207031 2174.628906 1904.476562 2174.570312 1904.734375 2174.464844 C 1904.992188 2174.363281 1905.226562 2174.21875 1905.433594 2174.03125 C 1905.640625 2173.847656 1905.8125 2173.632812 1905.945312 2173.386719 C 1906.078125 2173.140625 1906.164062 2172.882812 1906.207031 2172.605469 C 1922.25 2075.089844 1941.402344 1971.097656 1907.535156 1876.0625 C 1905.761719 1871.097656 1907.328125 1869.59375 1912.234375 1871.542969 L 1937.058594 1881.472656 C 1940.070312 1882.652344 1941.933594 1884.839844 1942.640625 1888.03125 C 1961.347656 1972.429688 1951.949219 2059.132812 1937.675781 2143.351562 C 1936.613281 2149.792969 1937.972656 2150.382812 1941.753906 2145.125 C 1988.476562 2080.140625 2022.429688 2034.042969 2094.945312 1994.945312 C 2098.019531 1993.292969 2099.585938 1994.207031 2099.644531 1997.695312 C 2099.703125 1999.410156 2098.816406 2000.796875 2096.984375 2001.863281 C 2006.292969 2057.890625 1944.679688 2138.210938 1917.730469 2241.578125 C 1904.492188 2292.289062 1888.476562 2342.199219 1869.679688 2391.3125 C 1869.453125 2391.929688 1869.128906 2392.5 1868.71875 2393.023438 C 1868.308594 2393.542969 1867.824219 2393.992188 1867.265625 2394.363281 C 1866.710938 2394.738281 1866.109375 2395.019531 1865.460938 2395.207031 C 1864.816406 2395.398438 1864.152344 2395.488281 1863.476562 2395.480469 L 1841.84375 2395.035156 C 1837.941406 2394.917969 1836.730469 2393.054688 1838.210938 2389.449219 C 1871.1875 2311.171875 1916.3125 2211.347656 1876.152344 2143.441406 C 1874.675781 2140.898438 1872.578125 2139.066406 1869.859375 2137.941406 L 1835.019531 2123.492188 C 1834.824219 2123.410156 1834.625 2123.339844 1834.421875 2123.28125 C 1834.21875 2123.222656 1834.011719 2123.179688 1833.804688 2123.144531 C 1833.59375 2123.113281 1833.386719 2123.097656 1833.171875 2123.089844 C 1832.960938 2123.085938 1832.75 2123.09375 1832.542969 2123.117188 C 1832.332031 2123.136719 1832.125 2123.175781 1831.917969 2123.222656 C 1831.710938 2123.269531 1831.511719 2123.332031 1831.3125 2123.40625 C 1831.113281 2123.480469 1830.921875 2123.566406 1830.734375 2123.667969 C 1830.550781 2123.765625 1830.371094 2123.875 1830.195312 2123.996094 C 1830.023438 2124.117188 1829.859375 2124.25 1829.703125 2124.394531 C 1829.546875 2124.535156 1829.402344 2124.6875 1829.265625 2124.851562 C 1829.128906 2125.011719 1829.003906 2125.179688 1828.890625 2125.359375 C 1828.773438 2125.535156 1828.671875 2125.71875 1828.578125 2125.910156 C 1828.488281 2126.101562 1828.410156 2126.296875 1828.34375 2126.496094 C 1828.277344 2126.699219 1828.222656 2126.902344 1828.183594 2127.109375 C 1828.144531 2127.316406 1828.117188 2127.527344 1828.101562 2127.738281 C 1828.089844 2127.949219 1828.089844 2128.15625 1828.101562 2128.367188 L 1831.558594 2175.976562 C 1831.972656 2181.351562 1829.785156 2182.800781 1825 2180.320312 L 1817.730469 2176.507812 C 1813.949219 2174.554688 1811.851562 2175.710938 1811.4375 2179.964844 C 1809.132812 2202.421875 1801.183594 2222.664062 1787.589844 2240.691406 C 1787.320312 2241.078125 1786.964844 2241.355469 1786.523438 2241.523438 C 1786.082031 2241.691406 1785.632812 2241.722656 1785.175781 2241.613281 C 1784.714844 2241.507812 1784.328125 2241.28125 1784.007812 2240.933594 C 1783.6875 2240.585938 1783.492188 2240.183594 1783.421875 2239.714844 L 1781.382812 2227.570312 C 1780.320312 2221.71875 1778.28125 2221.335938 1775.265625 2226.417969 C 1759.25 2253.074219 1736.554688 2272.042969 1707.179688 2283.332031 C 1701.980469 2285.34375 1700.382812 2283.746094 1702.394531 2278.546875 L 1712.855469 2251.773438 C 1714.390625 2247.871094 1713.210938 2246.71875 1709.308594 2248.316406 L 1632.625 2279.253906 C 1632.429688 2279.335938 1632.234375 2279.390625 1632.027344 2279.417969 C 1631.820312 2279.449219 1631.613281 2279.457031 1631.40625 2279.4375 C 1631.199219 2279.417969 1631 2279.375 1630.800781 2279.304688 C 1630.605469 2279.238281 1630.421875 2279.144531 1630.246094 2279.03125 C 1630.070312 2278.917969 1629.914062 2278.785156 1629.773438 2278.632812 C 1629.628906 2278.484375 1629.507812 2278.316406 1629.40625 2278.136719 C 1629.304688 2277.953125 1629.226562 2277.761719 1629.171875 2277.5625 C 1629.113281 2277.363281 1629.082031 2277.15625 1629.078125 2276.949219 C 1629.019531 2275.886719 1628.988281 2274.792969 1628.988281 2273.671875 C 1629.019531 2273.351562 1628.945312 2273.0625 1628.773438 2272.800781 C 1628.597656 2272.539062 1628.359375 2272.355469 1628.050781 2272.253906 C 1627.742188 2272.148438 1627.429688 2272.148438 1627.113281 2272.246094 C 1626.792969 2272.34375 1626.53125 2272.523438 1626.328125 2272.785156 C 1610.019531 2293.765625 1589.597656 2309.515625 1565.070312 2320.035156 C 1564.8125 2320.152344 1564.539062 2320.226562 1564.257812 2320.257812 C 1563.972656 2320.289062 1563.691406 2320.277344 1563.414062 2320.214844 C 1563.136719 2320.15625 1562.875 2320.054688 1562.628906 2319.914062 C 1562.382812 2319.769531 1562.164062 2319.589844 1561.976562 2319.375 C 1561.785156 2319.164062 1561.636719 2318.925781 1561.523438 2318.664062 C 1561.410156 2318.402344 1561.34375 2318.128906 1561.320312 2317.84375 C 1561.292969 2317.5625 1561.316406 2317.28125 1561.378906 2317.003906 C 1561.445312 2316.726562 1561.554688 2316.464844 1561.703125 2316.222656 C 1575.175781 2292.9375 1584.75 2268.054688 1590.425781 2241.578125 C 1591.074219 2238.800781 1590.660156 2236.199219 1589.183594 2233.777344 L 1587.058594 2230.140625 C 1586.710938 2229.566406 1586.46875 2228.953125 1586.324219 2228.292969 C 1586.179688 2227.636719 1586.144531 2226.972656 1586.214844 2226.304688 C 1586.285156 2225.632812 1586.460938 2224.988281 1586.742188 2224.371094 C 1587.023438 2223.753906 1587.394531 2223.195312 1587.855469 2222.695312 L 1610.550781 2197.519531 C 1610.808594 2197.226562 1610.996094 2196.902344 1611.121094 2196.535156 C 1611.242188 2196.167969 1611.289062 2195.796875 1611.253906 2195.414062 C 1611.21875 2195.035156 1611.109375 2194.679688 1610.925781 2194.351562 C 1610.742188 2194.023438 1610.5 2193.75 1610.195312 2193.527344 C 1607.949219 2191.8125 1606.589844 2192.140625 1606.117188 2194.503906 C 1606.050781 2194.847656 1605.890625 2195.140625 1605.640625 2195.382812 C 1605.390625 2195.628906 1605.09375 2195.78125 1604.75 2195.839844 C 1604.40625 2195.898438 1604.074219 2195.855469 1603.757812 2195.707031 C 1603.441406 2195.558594 1603.191406 2195.335938 1603.015625 2195.035156 C 1598.582031 2187.824219 1608.125 2177.628906 1631.648438 2164.449219 C 1632.027344 2164.246094 1632.363281 2163.984375 1632.660156 2163.671875 C 1632.957031 2163.359375 1633.195312 2163.007812 1633.378906 2162.621094 C 1633.566406 2162.230469 1633.6875 2161.824219 1633.742188 2161.398438 C 1633.796875 2160.972656 1633.785156 2160.546875 1633.707031 2160.125 C 1633.628906 2159.699219 1633.484375 2159.300781 1633.28125 2158.921875 C 1633.074219 2158.542969 1632.816406 2158.207031 1632.503906 2157.910156 C 1632.191406 2157.613281 1631.839844 2157.375 1631.453125 2157.1875 C 1631.066406 2157.003906 1630.65625 2156.882812 1630.230469 2156.824219 Z M 1630.230469 2156.824219 " fill-opacity="1" fill-rule="nonzero" style="fill: rgb(0, 71, 11);"/>
</svg>