<?xml version="1.0" encoding="utf-8"?>
<svg viewBox="2639.5239 170.7281 923.8411 920.4958" xmlns="http://www.w3.org/2000/svg">
  <path d="M 2842.90625 667.996094 C 2858.6875 638.742188 2873.226562 612.058594 2909.21875 619.769531 C 2909.710938 619.867188 2910.128906 620.097656 2910.476562 620.457031 C 2910.824219 620.816406 2911.039062 621.246094 2911.117188 621.738281 C 2911.195312 622.234375 2911.125 622.707031 2910.910156 623.15625 C 2910.691406 623.609375 2910.363281 623.957031 2909.929688 624.203125 L 2886.523438 638.5625 C 2884.992188 639.507812 2883.925781 640.867188 2883.332031 642.640625 C 2874.289062 668.792969 2843.882812 706.382812 2843.617188 729.699219 C 2843.261719 759.546875 2857.328125 785.195312 2885.816406 806.648438 C 2943.707031 850.175781 3002.039062 888.476562 3046.1875 947.429688 C 3046.40625 947.710938 3046.664062 947.953125 3046.960938 948.15625 C 3047.257812 948.355469 3047.578125 948.503906 3047.921875 948.605469 C 3048.265625 948.703125 3048.617188 948.746094 3048.972656 948.734375 C 3049.332031 948.71875 3049.675781 948.652344 3050.011719 948.527344 C 3050.347656 948.40625 3050.65625 948.230469 3050.9375 948.011719 C 3051.21875 947.789062 3051.457031 947.527344 3051.65625 947.230469 C 3051.855469 946.933594 3052 946.609375 3052.097656 946.265625 C 3052.191406 945.921875 3052.234375 945.570312 3052.214844 945.210938 C 3047.25 879.316406 3044.238281 812.824219 3043.171875 745.746094 C 3042.90625 728.457031 3040.867188 696.1875 3031.914062 680.941406 C 3018.378906 657.890625 3010.636719 632.980469 3008.6875 606.207031 C 3008.511719 603.191406 3007.003906 601.152344 3004.167969 600.089844 C 2945.210938 576.863281 2910.816406 510.550781 2879.167969 454.253906 C 2860.964844 421.925781 2834.25 413.148438 2799.023438 427.925781 C 2795.183594 429.519531 2794.5625 428.695312 2797.164062 425.441406 C 2837.765625 374.910156 2901.152344 426.0625 2922.695312 467.019531 C 2934.515625 489.300781 2947.578125 510.90625 2961.878906 531.828125 C 2963.238281 533.835938 2965.128906 534.664062 2967.554688 534.308594 C 2968.5 534.191406 2969.355469 534.132812 2970.125 534.132812 C 2971.777344 534.25 2972.222656 533.597656 2971.453125 532.179688 C 2933.511719 462.589844 2954.34375 400.265625 2989.539062 332.003906 C 2993.085938 325.089844 2995.273438 314.273438 2996.097656 299.558594 C 2996.277344 297.429688 2995.300781 296.160156 2993.171875 295.746094 L 2980.320312 293.351562 C 2979.863281 293.273438 2979.421875 293.140625 2979 292.957031 C 2978.574219 292.773438 2978.179688 292.542969 2977.808594 292.265625 C 2977.4375 291.988281 2977.105469 291.671875 2976.8125 291.316406 C 2976.515625 290.960938 2976.265625 290.574219 2976.0625 290.160156 C 2975.859375 289.742188 2975.710938 289.3125 2975.609375 288.859375 C 2975.507812 288.40625 2975.460938 287.953125 2975.46875 287.488281 C 2975.476562 287.027344 2975.539062 286.570312 2975.652344 286.125 C 2975.769531 285.675781 2975.9375 285.25 2976.152344 284.839844 C 2994.121094 250.324219 3003.398438 213.800781 3003.988281 175.265625 C 3004.046875 169.769531 3005.671875 169.265625 3008.863281 173.757812 L 3061.347656 247.519531 C 3061.824219 248.183594 3062.179688 248.910156 3062.40625 249.699219 C 3062.632812 250.484375 3062.722656 251.289062 3062.675781 252.113281 C 3062.628906 252.9375 3062.445312 253.726562 3062.125 254.492188 C 3061.804688 255.253906 3061.371094 255.945312 3060.816406 256.558594 L 3043.972656 275.621094 C 3040.425781 279.640625 3036.910156 279.609375 3033.421875 275.53125 L 3021.898438 261.878906 C 3019.121094 258.570312 3017.492188 259.070312 3017.019531 263.386719 C 3016.488281 269.238281 3017.847656 273.730469 3021.097656 276.863281 C 3076.0625 330.40625 3134.574219 370.566406 3143.171875 454.167969 C 3143.46875 456.707031 3144.710938 457.328125 3146.898438 456.027344 C 3153.8125 452.214844 3150.796875 399.023438 3156.207031 385.371094 C 3177.925781 331.117188 3242.464844 308.332031 3285.460938 355.941406 C 3286.582031 357.179688 3286.523438 358.363281 3285.285156 359.484375 C 3284.691406 360.078125 3284.132812 360.636719 3283.597656 361.171875 C 3283.421875 361.289062 3283.273438 361.289062 3283.15625 361.171875 C 3240.25 321.011719 3199.644531 355.585938 3189.09375 402.925781 C 3171.097656 483.6875 3203.632812 575.886719 3092.109375 603.101562 C 3091.472656 603.257812 3090.875 603.507812 3090.3125 603.847656 C 3089.75 604.1875 3089.25 604.601562 3088.816406 605.09375 C 3088.378906 605.582031 3088.027344 606.128906 3087.757812 606.726562 C 3087.488281 607.324219 3087.3125 607.949219 3087.234375 608.597656 C 3079.433594 681.382812 3068.707031 742.464844 3144.324219 781.828125 C 3144.578125 781.945312 3144.800781 782.109375 3144.992188 782.308594 C 3145.1875 782.511719 3145.335938 782.742188 3145.449219 783 C 3145.558594 783.253906 3145.617188 783.523438 3145.628906 783.800781 C 3145.644531 784.082031 3145.605469 784.355469 3145.519531 784.621094 C 3145.433594 784.886719 3145.300781 785.125 3145.125 785.34375 C 3144.953125 785.5625 3144.746094 785.742188 3144.503906 785.886719 C 3144.265625 786.027344 3144.007812 786.125 3143.730469 786.171875 C 3143.457031 786.222656 3143.183594 786.222656 3142.90625 786.171875 C 3117.375 782.980469 3089.714844 770.125 3073.671875 747.960938 C 3073.308594 747.449219 3072.878906 747.011719 3072.375 746.640625 C 3071.871094 746.269531 3071.320312 745.988281 3070.726562 745.800781 C 3070.128906 745.609375 3069.519531 745.515625 3068.894531 745.523438 C 3068.269531 745.53125 3067.664062 745.636719 3067.070312 745.84375 C 3066.480469 746.046875 3065.9375 746.339844 3065.445312 746.722656 C 3064.949219 747.105469 3064.527344 747.554688 3064.179688 748.074219 C 3063.832031 748.59375 3063.574219 749.152344 3063.40625 749.753906 C 3063.242188 750.359375 3063.175781 750.972656 3063.210938 751.597656 L 3073.316406 990.335938 C 3073.328125 990.796875 3073.417969 991.242188 3073.582031 991.671875 C 3073.75 992.101562 3073.984375 992.488281 3074.289062 992.832031 C 3074.589844 993.175781 3074.945312 993.460938 3075.347656 993.679688 C 3075.75 993.902344 3076.183594 994.050781 3076.640625 994.125 C 3077.097656 994.195312 3077.558594 994.191406 3078.015625 994.105469 C 3078.476562 994.023438 3078.910156 993.863281 3079.316406 993.632812 C 3079.726562 993.398438 3080.085938 993.109375 3080.394531 992.753906 C 3080.703125 992.402344 3080.941406 992.011719 3081.117188 991.578125 C 3121.808594 885.105469 3244.238281 914.804688 3286.257812 815.515625 C 3295.035156 794.59375 3293.171875 768.351562 3300.886719 743.882812 C 3301.714844 741.105469 3301.300781 738.503906 3299.644531 736.082031 C 3268.144531 690.574219 3256.558594 640.542969 3264.894531 585.992188 C 3270.832031 546.71875 3272.960938 524.378906 3258.6875 493.261719 C 3258.570312 492.984375 3258.5 492.695312 3258.476562 492.394531 C 3258.457031 492.09375 3258.480469 491.796875 3258.558594 491.507812 C 3258.632812 491.214844 3258.75 490.941406 3258.917969 490.691406 C 3259.082031 490.4375 3259.28125 490.21875 3259.519531 490.03125 C 3259.753906 489.84375 3260.015625 489.699219 3260.300781 489.601562 C 3260.582031 489.5 3260.875 489.445312 3261.179688 489.441406 C 3261.480469 489.4375 3261.773438 489.480469 3262.0625 489.574219 C 3262.347656 489.667969 3262.613281 489.804688 3262.855469 489.980469 C 3309.484375 527.214844 3297.960938 559.75 3290.601562 611.523438 C 3290.484375 612.46875 3290.898438 613.089844 3291.84375 613.386719 C 3292.613281 613.621094 3293.378906 613.890625 3294.148438 614.183594 C 3295.152344 614.480469 3295.804688 614.125 3296.097656 613.121094 C 3314.007812 555.761719 3371.011719 531.382812 3424.910156 515.160156 C 3427.746094 514.332031 3429.847656 515.21875 3431.207031 517.820312 C 3466.960938 586.023438 3462.144531 650.917969 3416.753906 712.5 C 3414.980469 714.921875 3415.601562 716.046875 3418.617188 715.867188 C 3419.445312 715.867188 3420.183594 715.867188 3420.832031 715.867188 C 3422.191406 715.988281 3423.316406 715.542969 3424.203125 714.539062 C 3474.144531 660.933594 3483.125 600.296875 3451.152344 532.625 C 3450.949219 532.195312 3450.785156 531.75 3450.667969 531.292969 C 3450.550781 530.832031 3450.476562 530.367188 3450.453125 529.890625 C 3450.425781 529.417969 3450.445312 528.949219 3450.511719 528.480469 C 3450.578125 528.011719 3450.691406 527.554688 3450.847656 527.109375 C 3451.003906 526.664062 3451.203125 526.238281 3451.441406 525.832031 C 3451.683594 525.429688 3451.960938 525.050781 3452.277344 524.703125 C 3452.59375 524.355469 3452.9375 524.042969 3453.316406 523.765625 C 3453.695312 523.484375 3454.09375 523.246094 3454.519531 523.050781 L 3493.707031 504.34375 C 3493.949219 504.226562 3494.207031 504.144531 3494.472656 504.09375 C 3494.738281 504.042969 3495.007812 504.03125 3495.277344 504.050781 C 3495.546875 504.070312 3495.8125 504.125 3496.066406 504.214844 C 3496.324219 504.304688 3496.5625 504.425781 3496.785156 504.578125 C 3497.011719 504.730469 3497.210938 504.910156 3497.390625 505.113281 C 3497.566406 505.320312 3497.714844 505.542969 3497.832031 505.789062 C 3497.953125 506.03125 3498.035156 506.285156 3498.089844 506.554688 C 3498.140625 506.820312 3498.15625 507.085938 3498.136719 507.359375 L 3494.414062 566.046875 C 3494.402344 566.367188 3494.476562 566.671875 3494.628906 566.953125 C 3494.78125 567.238281 3495 567.460938 3495.273438 567.628906 C 3495.550781 567.792969 3495.851562 567.878906 3496.171875 567.878906 C 3496.496094 567.882812 3496.796875 567.804688 3497.074219 567.640625 L 3500 565.957031 C 3500.828125 565.425781 3501.300781 564.6875 3501.417969 563.742188 C 3503.605469 543.527344 3511.761719 526.597656 3525.886719 512.941406 C 3526.179688 512.667969 3526.511719 512.449219 3526.878906 512.292969 C 3527.25 512.132812 3527.632812 512.039062 3528.035156 512.011719 C 3528.4375 511.988281 3528.828125 512.03125 3529.214844 512.144531 C 3529.601562 512.253906 3529.957031 512.429688 3530.285156 512.664062 C 3530.609375 512.902344 3530.882812 513.1875 3531.109375 513.519531 C 3531.335938 513.851562 3531.5 514.210938 3531.601562 514.601562 C 3531.699219 514.992188 3531.734375 515.386719 3531.695312 515.785156 C 3531.65625 516.1875 3531.554688 516.570312 3531.382812 516.933594 L 3523.757812 532.269531 C 3522.695312 534.457031 3522.164062 536.789062 3522.164062 539.273438 C 3522.222656 609.191406 3496.128906 667.140625 3443.882812 713.121094 C 3436.082031 720.035156 3437.175781 721.957031 3447.164062 718.882812 C 3487.5 706.648438 3553.632812 710.550781 3563.03125 758.066406 C 3563.976562 762.738281 3562.914062 763.269531 3559.839844 759.664062 C 3500.976562 690.957031 3431.648438 777.214844 3363.03125 769.503906 C 3359.25 769.089844 3356.234375 770.390625 3353.988281 773.402344 L 3340.070312 792.019531 C 3339.65625 792.554688 3339.183594 793.027344 3338.652344 793.441406 C 3307.003906 814.449219 3299.554688 846.1875 3269.324219 871.632812 C 3224.023438 909.839844 3158.15625 911.878906 3119.414062 957.890625 C 3090.75 991.992188 3078.222656 1033.332031 3081.824219 1081.914062 C 3082.0625 1085.046875 3080.671875 1087.027344 3077.660156 1087.855469 L 3066.933594 1090.867188 C 3062.855469 1091.992188 3060.816406 1090.457031 3060.816406 1086.257812 C 3060.636719 1050.355469 3060.105469 1015.691406 3042.90625 983.511719 C 3008.6875 919.414062 2972.695312 888.917969 2905.496094 842.109375 C 2869.59375 817.199219 2815.25 781.558594 2796.1875 741.578125 C 2794.886719 738.800781 2792.699219 737.175781 2789.628906 736.703125 C 2737.144531 728.015625 2695.035156 675.441406 2642.640625 694.328125 C 2642.378906 694.410156 2642.113281 694.445312 2641.835938 694.4375 C 2641.5625 694.425781 2641.296875 694.371094 2641.042969 694.273438 C 2640.785156 694.171875 2640.554688 694.03125 2640.347656 693.851562 C 2640.140625 693.671875 2639.96875 693.460938 2639.835938 693.222656 C 2639.699219 692.984375 2639.609375 692.730469 2639.5625 692.457031 C 2639.511719 692.1875 2639.511719 691.917969 2639.558594 691.644531 C 2639.605469 691.375 2639.695312 691.121094 2639.828125 690.878906 C 2639.960938 690.640625 2640.128906 690.429688 2640.335938 690.25 C 2661.378906 672.398438 2684.457031 669.03125 2709.574219 680.140625 C 2715.308594 682.683594 2716.3125 681.414062 2712.589844 676.328125 C 2683.628906 637.441406 2679.933594 595.273438 2701.507812 549.824219 C 2702.6875 547.28125 2704.253906 547.015625 2706.207031 549.023438 C 2713.535156 556.351562 2716.546875 563.917969 2715.25 571.71875 C 2707.210938 619.886719 2716.8125 660.757812 2744.058594 694.328125 C 2745.773438 696.453125 2747.871094 697.015625 2750.355469 696.011719 C 2751.121094 695.714844 2751.890625 695.449219 2752.660156 695.210938 C 2752.816406 695.160156 2752.949219 695.074219 2753.066406 694.957031 C 2753.179688 694.839844 2753.265625 694.703125 2753.316406 694.546875 C 2753.367188 694.390625 2753.382812 694.230469 2753.363281 694.066406 C 2753.339844 693.902344 2753.28125 693.753906 2753.191406 693.617188 C 2722.042969 644.328125 2718.527344 592.789062 2742.640625 539.007812 C 2743.941406 536.050781 2745.65625 535.816406 2747.785156 538.296875 C 2785.371094 582.09375 2831.738281 604.34375 2837.589844 666.933594 C 2838.179688 673.078125 2839.953125 673.433594 2842.90625 667.996094 Z M 3072.25 541.402344 C 3079.609375 455.941406 3028.28125 430.851562 2985.992188 366.488281 C 2984.101562 363.535156 2982.503906 363.710938 2981.207031 367.019531 C 2980.4375 369.03125 2980.644531 371.335938 2981.828125 373.9375 C 3008.511719 433.15625 3060.816406 472.695312 3063.5625 541.222656 C 3063.558594 541.507812 3063.582031 541.789062 3063.632812 542.070312 C 3063.683594 542.351562 3063.761719 542.625 3063.863281 542.886719 C 3063.96875 543.152344 3064.097656 543.40625 3064.25 543.644531 C 3064.40625 543.882812 3064.582031 544.105469 3064.777344 544.3125 C 3064.976562 544.515625 3065.191406 544.699219 3065.425781 544.863281 C 3065.660156 545.027344 3065.90625 545.164062 3066.167969 545.277344 C 3066.429688 545.394531 3066.699219 545.480469 3066.976562 545.542969 C 3067.253906 545.601562 3067.535156 545.636719 3067.820312 545.640625 C 3068.105469 545.648438 3068.386719 545.625 3068.667969 545.574219 C 3068.945312 545.527344 3069.21875 545.449219 3069.484375 545.347656 C 3069.75 545.242188 3070.003906 545.113281 3070.242188 544.960938 C 3070.484375 544.808594 3070.707031 544.632812 3070.910156 544.4375 C 3071.117188 544.242188 3071.300781 544.023438 3071.464844 543.792969 C 3071.628906 543.558594 3071.769531 543.3125 3071.882812 543.050781 C 3071.996094 542.792969 3072.085938 542.523438 3072.148438 542.246094 C 3072.210938 541.964844 3072.246094 541.683594 3072.25 541.402344 Z M 3353.8125 616.488281 C 3310.816406 627.75 3288.652344 659.484375 3300.710938 701.242188 C 3300.816406 701.546875 3300.972656 701.824219 3301.179688 702.074219 C 3301.382812 702.324219 3301.621094 702.535156 3301.898438 702.703125 C 3302.175781 702.871094 3302.46875 702.992188 3302.785156 703.058594 C 3303.101562 703.125 3303.421875 703.136719 3303.742188 703.097656 C 3304.0625 703.054688 3304.367188 702.960938 3304.65625 702.816406 C 3304.945312 702.671875 3305.203125 702.480469 3305.425781 702.25 C 3305.648438 702.015625 3305.828125 701.75 3305.960938 701.457031 C 3306.097656 701.164062 3306.175781 700.855469 3306.207031 700.53125 C 3308.597656 613.296875 3441.046875 625.710938 3444.238281 585.992188 C 3444.414062 583.6875 3443.46875 583.125 3441.402344 584.308594 C 3422.015625 595.597656 3392.820312 606.324219 3353.8125 616.488281 Z M 3353.8125 616.488281 " fill-opacity="1" fill-rule="nonzero" style="fill: rgb(0, 71, 11);"/>
  <path d="M 3137.855469 382.09375 C 3113.296875 336.613281 3087.855469 318.351562 3053.015625 289.363281 C 3050.175781 286.996094 3050.058594 284.515625 3052.660156 281.914062 L 3070.921875 263.917969 C 3071.378906 263.476562 3071.882812 263.101562 3072.4375 262.796875 C 3072.992188 262.492188 3073.582031 262.261719 3074.195312 262.113281 C 3074.8125 261.964844 3075.441406 261.902344 3076.074219 261.921875 C 3076.707031 261.9375 3077.328125 262.042969 3077.933594 262.226562 C 3078.542969 262.414062 3079.113281 262.675781 3079.648438 263.015625 C 3080.1875 263.351562 3080.667969 263.757812 3081.097656 264.226562 C 3081.523438 264.695312 3081.882812 265.210938 3082.171875 265.773438 C 3082.460938 266.339844 3082.671875 266.933594 3082.800781 267.554688 L 3086.347656 284.398438 C 3086.460938 284.863281 3086.648438 285.296875 3086.910156 285.699219 C 3087.171875 286.097656 3087.492188 286.445312 3087.875 286.734375 C 3088.253906 287.023438 3088.675781 287.242188 3089.132812 287.390625 C 3089.585938 287.535156 3090.054688 287.601562 3090.535156 287.585938 C 3091.011719 287.570312 3091.476562 287.472656 3091.921875 287.296875 C 3092.367188 287.121094 3092.769531 286.878906 3093.132812 286.5625 C 3093.496094 286.25 3093.792969 285.882812 3094.027344 285.464844 C 3094.261719 285.046875 3094.421875 284.601562 3094.503906 284.132812 C 3095.980469 273.789062 3098.402344 263.859375 3101.773438 254.34375 C 3104.136719 247.605469 3106 247.726562 3107.359375 254.699219 C 3116.222656 299.734375 3141.132812 331.292969 3141.402344 381.207031 C 3141.402344 386.230469 3140.21875 386.523438 3137.855469 382.09375 Z M 3137.855469 382.09375 " fill-opacity="1" fill-rule="nonzero" style="fill: rgb(180, 0, 0);"/>
  <path d="M 2936.96875 435.460938 C 2936.613281 437.351562 2935.933594 437.46875 2934.929688 435.816406 C 2914.714844 402.304688 2954.875 330.230469 2926.152344 278.988281 C 2926.03125 278.800781 2925.945312 278.59375 2925.894531 278.375 C 2925.84375 278.15625 2925.828125 277.933594 2925.855469 277.710938 C 2925.882812 277.488281 2925.945312 277.273438 2926.042969 277.070312 C 2926.144531 276.871094 2926.273438 276.691406 2926.4375 276.535156 C 2926.597656 276.378906 2926.78125 276.253906 2926.988281 276.160156 C 2927.191406 276.066406 2927.40625 276.011719 2927.632812 275.992188 C 2927.855469 275.972656 2928.078125 275.992188 2928.296875 276.050781 C 2928.515625 276.109375 2928.714844 276.203125 2928.902344 276.328125 L 2978.546875 306.558594 C 2979.003906 306.839844 2979.433594 307.15625 2979.832031 307.511719 C 2980.234375 307.867188 2980.597656 308.253906 2980.929688 308.679688 C 2981.257812 309.101562 2981.550781 309.550781 2981.800781 310.023438 C 2982.050781 310.5 2982.253906 310.992188 2982.417969 311.507812 C 2982.578125 312.019531 2982.695312 312.542969 2982.761719 313.078125 C 2982.828125 313.613281 2982.847656 314.148438 2982.820312 314.6875 C 2982.792969 315.226562 2982.71875 315.757812 2982.597656 316.285156 C 2982.472656 316.8125 2982.304688 317.324219 2982.09375 317.820312 C 2964.539062 358.953125 2945.65625 389.804688 2936.96875 435.460938 Z M 2936.96875 435.460938 " fill-opacity="1" fill-rule="nonzero" style="fill: rgb(180, 0, 0);"/>
  <path d="M 3419.769531 461.347656 L 3480.851562 428.101562 C 3481.5 427.746094 3482.195312 427.582031 3482.9375 427.605469 C 3483.679688 427.628906 3484.363281 427.839844 3484.988281 428.234375 C 3485.613281 428.628906 3486.097656 429.15625 3486.433594 429.816406 C 3486.773438 430.476562 3486.921875 431.175781 3486.878906 431.914062 L 3483.863281 489.183594 C 3483.824219 490.058594 3483.675781 490.917969 3483.421875 491.757812 C 3483.164062 492.597656 3482.808594 493.398438 3482.351562 494.15625 C 3481.894531 494.914062 3481.355469 495.605469 3480.726562 496.234375 C 3480.09375 496.863281 3479.398438 497.410156 3478.632812 497.871094 L 3450.265625 515.160156 C 3449.902344 515.378906 3449.519531 515.554688 3449.121094 515.691406 C 3448.71875 515.824219 3448.308594 515.914062 3447.886719 515.960938 C 3447.464844 516.007812 3447.046875 516.007812 3446.628906 515.960938 C 3446.207031 515.914062 3445.800781 515.824219 3445.402344 515.6875 C 3445.003906 515.554688 3444.625 515.375 3444.269531 515.15625 C 3443.910156 514.9375 3443.582031 514.683594 3443.285156 514.394531 C 3442.984375 514.101562 3442.71875 513.78125 3442.492188 513.433594 C 3442.265625 513.085938 3442.078125 512.714844 3441.933594 512.324219 L 3437.058594 499.378906 C 3436.929688 499.054688 3436.769531 498.746094 3436.582031 498.453125 C 3436.390625 498.160156 3436.175781 497.890625 3435.933594 497.640625 C 3435.6875 497.394531 3435.425781 497.171875 3435.136719 496.976562 C 3434.851562 496.78125 3434.546875 496.617188 3434.226562 496.484375 C 3433.90625 496.351562 3433.578125 496.253906 3433.242188 496.1875 C 3432.902344 496.121094 3432.5625 496.09375 3432.21875 496.097656 C 3431.875 496.101562 3431.535156 496.144531 3431.199219 496.21875 C 3430.867188 496.292969 3430.542969 496.402344 3430.230469 496.542969 C 3399.644531 510.285156 3345.390625 525.886719 3324.113281 550.796875 C 3323.863281 551.046875 3323.578125 551.242188 3323.261719 551.390625 C 3322.941406 551.539062 3322.605469 551.628906 3322.257812 551.660156 C 3321.90625 551.691406 3321.558594 551.664062 3321.21875 551.574219 C 3320.878906 551.484375 3320.566406 551.339844 3320.277344 551.140625 C 3319.988281 550.9375 3319.738281 550.695312 3319.535156 550.410156 C 3319.332031 550.121094 3319.183594 549.808594 3319.085938 549.472656 C 3318.992188 549.132812 3318.957031 548.789062 3318.984375 548.4375 C 3319.007812 548.085938 3319.09375 547.75 3319.238281 547.429688 C 3341.578125 506.117188 3370.832031 471.570312 3407.003906 443.792969 C 3409.78125 441.726562 3413.683594 436.703125 3418.707031 428.722656 C 3418.828125 428.527344 3418.96875 428.34375 3419.132812 428.179688 C 3419.296875 428.015625 3419.476562 427.871094 3419.671875 427.746094 C 3419.871094 427.625 3420.078125 427.523438 3420.300781 427.445312 C 3420.523438 427.371094 3420.75 427.320312 3420.984375 427.292969 C 3421.21875 427.269531 3421.453125 427.269531 3421.6875 427.296875 C 3421.921875 427.324219 3422.152344 427.375 3422.375 427.453125 C 3422.601562 427.53125 3422.816406 427.632812 3423.019531 427.757812 C 3423.222656 427.878906 3423.410156 428.027344 3423.582031 428.191406 L 3426.328125 431.027344 C 3426.980469 431.679688 3427.097656 432.386719 3426.683594 433.15625 L 3414.539062 456.207031 C 3414.339844 456.570312 3414.203125 456.957031 3414.128906 457.363281 C 3414.058594 457.773438 3414.050781 458.183594 3414.113281 458.59375 C 3414.171875 459.003906 3414.296875 459.394531 3414.484375 459.761719 C 3414.671875 460.132812 3414.914062 460.460938 3415.210938 460.753906 C 3415.507812 461.042969 3415.839844 461.28125 3416.214844 461.460938 C 3416.585938 461.644531 3416.980469 461.761719 3417.390625 461.816406 C 3417.800781 461.867188 3418.210938 461.855469 3418.617188 461.777344 C 3419.023438 461.695312 3419.410156 461.554688 3419.769531 461.347656 Z M 3419.769531 461.347656 " fill-opacity="1" fill-rule="nonzero" style="fill: rgb(180, 0, 0);"/>
  <path d="M 2714.980469 511.96875 C 2710.136719 494.652344 2708.835938 476.949219 2711.082031 458.867188 C 2711.613281 454.492188 2713.355469 453.929688 2716.3125 457.179688 L 2745.566406 489.007812 C 2747.929688 491.546875 2748.433594 494.445312 2747.074219 497.695312 L 2727.660156 543.171875 C 2725.648438 547.84375 2722.902344 548.316406 2719.414062 544.59375 L 2693.085938 516.488281 C 2692.707031 516.085938 2692.417969 515.621094 2692.214844 515.101562 C 2692.015625 514.582031 2691.921875 514.042969 2691.929688 513.480469 C 2691.9375 512.921875 2692.050781 512.378906 2692.265625 511.859375 C 2692.480469 511.335938 2692.78125 510.871094 2693.171875 510.460938 L 2695.65625 508.066406 C 2696.070312 507.652344 2696.484375 507.625 2696.898438 507.980469 L 2708.332031 516.578125 C 2708.691406 516.847656 2709.082031 517.058594 2709.503906 517.207031 C 2709.929688 517.355469 2710.367188 517.433594 2710.8125 517.441406 C 2711.261719 517.453125 2711.703125 517.390625 2712.132812 517.261719 C 2712.5625 517.132812 2712.960938 516.941406 2713.332031 516.683594 C 2713.699219 516.429688 2714.019531 516.125 2714.292969 515.765625 C 2714.5625 515.410156 2714.773438 515.019531 2714.921875 514.59375 C 2715.070312 514.171875 2715.148438 513.734375 2715.160156 513.285156 C 2715.171875 512.835938 2715.109375 512.398438 2714.980469 511.96875 Z M 2714.980469 511.96875 " fill-opacity="1" fill-rule="nonzero" style="fill: rgb(180, 0, 0);"/>
  <path d="M 2810.816406 562.765625 C 2806.324219 540.484375 2812.054688 521.570312 2828.015625 506.027344 C 2828.273438 505.777344 2828.574219 505.582031 2828.90625 505.4375 C 2829.242188 505.292969 2829.589844 505.207031 2829.957031 505.1875 C 2830.320312 505.164062 2830.675781 505.207031 2831.023438 505.308594 C 2831.371094 505.414062 2831.691406 505.574219 2831.976562 505.789062 C 2832.265625 506.007812 2832.503906 506.265625 2832.691406 506.566406 C 2832.882812 506.871094 2833.011719 507.195312 2833.078125 507.542969 C 2833.144531 507.890625 2833.148438 508.238281 2833.085938 508.589844 C 2833.023438 508.9375 2832.898438 509.269531 2832.710938 509.574219 C 2811.878906 547.25 2834.398438 584.839844 2846.277344 621.808594 C 2846.445312 622.335938 2846.519531 622.871094 2846.492188 623.421875 C 2846.464844 623.972656 2846.339844 624.496094 2846.117188 624.996094 C 2845.894531 625.496094 2845.59375 625.9375 2845.207031 626.320312 C 2844.820312 626.703125 2844.378906 627.003906 2843.882812 627.214844 C 2842.9375 627.6875 2842.050781 627.75 2841.222656 627.394531 C 2840.453125 627.039062 2839.894531 626.269531 2839.539062 625.089844 C 2826.417969 581.648438 2732.003906 540.691406 2760.636719 498.050781 C 2763.0625 494.386719 2765.425781 494.445312 2767.730469 498.226562 L 2807.800781 564.007812 C 2807.886719 564.1875 2808.003906 564.347656 2808.148438 564.484375 C 2808.292969 564.617188 2808.457031 564.722656 2808.640625 564.792969 C 2808.824219 564.863281 2809.015625 564.894531 2809.214844 564.890625 C 2809.414062 564.890625 2809.605469 564.847656 2809.792969 564.773438 C 2809.980469 564.695312 2810.148438 564.585938 2810.300781 564.445312 C 2810.449219 564.304688 2810.570312 564.140625 2810.667969 563.957031 C 2810.761719 563.773438 2810.820312 563.578125 2810.847656 563.371094 C 2810.871094 563.167969 2810.863281 562.964844 2810.816406 562.765625 Z M 2810.816406 562.765625 " fill-opacity="1" fill-rule="nonzero" style="fill: rgb(180, 0, 0);"/>
  <path d="M 2830.40625 975.175781 L 2823.402344 975.175781 C 2822.699219 975.183594 2822.046875 975 2821.449219 974.625 C 2820.851562 974.25 2820.402344 973.746094 2820.097656 973.109375 C 2819.792969 972.472656 2819.683594 971.804688 2819.769531 971.105469 C 2819.855469 970.40625 2820.121094 969.78125 2820.566406 969.238281 C 2856.382812 926.0625 2890.246094 894.328125 2949.910156 918.085938 C 2950.457031 918.292969 2951.046875 918.414062 2951.679688 918.453125 C 2952.3125 918.488281 2952.945312 918.441406 2953.578125 918.304688 C 2954.210938 918.167969 2954.804688 917.953125 2955.351562 917.660156 C 2955.902344 917.371094 2956.371094 917.019531 2956.765625 916.613281 C 2957.15625 916.203125 2957.445312 915.761719 2957.625 915.292969 C 2957.808594 914.820312 2957.875 914.351562 2957.820312 913.882812 C 2957.769531 913.414062 2957.605469 912.972656 2957.324219 912.566406 C 2957.046875 912.160156 2956.675781 911.8125 2956.207031 911.523438 C 2955.082031 910.816406 2954.402344 909.871094 2954.167969 908.6875 C 2954.132812 908.375 2954.15625 908.078125 2954.242188 907.796875 C 2954.328125 907.511719 2954.464844 907.261719 2954.65625 907.046875 C 2954.851562 906.832031 2955.085938 906.664062 2955.359375 906.542969 C 2955.632812 906.425781 2955.929688 906.363281 2956.246094 906.355469 C 2956.566406 906.351562 2956.882812 906.402344 2957.203125 906.511719 C 2957.519531 906.621094 2957.816406 906.777344 2958.09375 906.984375 C 2958.367188 907.195312 2958.601562 907.4375 2958.796875 907.714844 C 2958.992188 907.992188 2959.132812 908.289062 2959.21875 908.597656 C 2961.761719 921.777344 2969 930.703125 2980.941406 935.371094 C 2983.597656 936.378906 2985.371094 938.238281 2986.257812 940.957031 C 2995.359375 968.558594 2989.273438 991.546875 2967.996094 1009.929688 C 2967.605469 1010.253906 2967.167969 1010.503906 2966.6875 1010.671875 C 2966.210938 1010.84375 2965.714844 1010.921875 2965.207031 1010.917969 C 2964.695312 1010.910156 2964.203125 1010.8125 2963.730469 1010.628906 C 2963.253906 1010.441406 2962.828125 1010.183594 2962.445312 1009.84375 C 2962.066406 1009.507812 2961.753906 1009.113281 2961.515625 1008.664062 C 2961.277344 1008.214844 2961.121094 1007.738281 2961.054688 1007.230469 C 2960.984375 1006.726562 2961.007812 1006.226562 2961.117188 1005.730469 C 2961.230469 1005.234375 2961.425781 1004.769531 2961.703125 1004.34375 L 2965.691406 998.316406 C 2966.578125 996.957031 2966.371094 995.804688 2965.070312 994.859375 C 2964.007812 994.089844 2962.824219 994.386719 2961.523438 995.746094 C 2948.816406 1008.804688 2935.078125 1018.085938 2920.300781 1023.582031 C 2919.980469 1023.691406 2919.644531 1023.753906 2919.304688 1023.765625 C 2918.960938 1023.777344 2918.625 1023.742188 2918.292969 1023.652344 C 2917.964844 1023.566406 2917.652344 1023.433594 2917.363281 1023.253906 C 2917.074219 1023.074219 2916.820312 1022.855469 2916.597656 1022.601562 C 2916.375 1022.34375 2916.199219 1022.0625 2916.066406 1021.753906 C 2915.933594 1021.449219 2915.847656 1021.128906 2915.816406 1020.796875 C 2915.78125 1020.464844 2915.800781 1020.136719 2915.867188 1019.808594 C 2915.9375 1019.480469 2916.058594 1019.171875 2916.222656 1018.882812 L 2924.824219 1003.636719 C 2926.359375 1000.855469 2925.53125 999.4375 2922.339844 999.378906 C 2917.019531 999.289062 2894.769531 1015.691406 2883.863281 1019.148438 C 2879.492188 1020.507812 2877.746094 1018.941406 2878.632812 1014.449219 L 2881.382812 999.558594 C 2881.449219 999.179688 2881.460938 998.800781 2881.410156 998.421875 C 2881.363281 998.042969 2881.257812 997.675781 2881.09375 997.328125 C 2880.933594 996.980469 2880.722656 996.667969 2880.464844 996.386719 C 2880.207031 996.105469 2879.914062 995.871094 2879.582031 995.683594 C 2879.253906 995.496094 2878.902344 995.367188 2878.535156 995.292969 C 2878.167969 995.21875 2877.796875 995.203125 2877.425781 995.246094 C 2877.050781 995.292969 2876.695312 995.394531 2876.359375 995.554688 C 2876.019531 995.71875 2875.714844 995.925781 2875.441406 996.1875 L 2854.34375 1015.335938 C 2853.984375 1015.667969 2853.585938 1015.941406 2853.144531 1016.15625 C 2852.703125 1016.371094 2852.242188 1016.515625 2851.757812 1016.59375 C 2851.273438 1016.671875 2850.789062 1016.679688 2850.304688 1016.613281 C 2849.816406 1016.546875 2849.351562 1016.410156 2848.90625 1016.207031 C 2848.460938 1016.003906 2848.054688 1015.738281 2847.6875 1015.414062 C 2847.320312 1015.089844 2847.007812 1014.722656 2846.75 1014.304688 C 2846.492188 1013.886719 2846.300781 1013.441406 2846.175781 1012.96875 C 2846.046875 1012.496094 2845.992188 1012.015625 2846.011719 1011.523438 L 2846.363281 997.871094 C 2846.375 997.433594 2846.308594 997.007812 2846.171875 996.59375 C 2846.035156 996.175781 2845.832031 995.796875 2845.5625 995.453125 C 2845.292969 995.105469 2844.976562 994.816406 2844.605469 994.578125 C 2844.238281 994.34375 2843.839844 994.175781 2843.414062 994.078125 C 2842.988281 993.980469 2842.558594 993.953125 2842.121094 994.003906 C 2841.6875 994.054688 2841.273438 994.175781 2840.878906 994.367188 C 2840.488281 994.558594 2840.136719 994.8125 2839.832031 995.125 C 2839.523438 995.4375 2839.28125 995.789062 2839.09375 996.1875 C 2827.925781 1022.074219 2809.191406 1040.425781 2782.890625 1051.242188 C 2782.640625 1051.332031 2782.378906 1051.378906 2782.113281 1051.386719 C 2781.847656 1051.394531 2781.585938 1051.359375 2781.332031 1051.28125 C 2781.078125 1051.207031 2780.839844 1051.089844 2780.621094 1050.9375 C 2780.402344 1050.785156 2780.214844 1050.601562 2780.054688 1050.386719 C 2779.730469 1049.949219 2779.566406 1049.457031 2779.566406 1048.910156 C 2779.566406 1048.363281 2779.726562 1047.867188 2780.054688 1047.429688 C 2791.402344 1033.246094 2801.242188 1018.027344 2809.574219 1001.773438 C 2810.875 999.230469 2812.675781 997.132812 2814.980469 995.480469 L 2832.800781 982.445312 C 2833.15625 982.203125 2833.460938 981.90625 2833.722656 981.5625 C 2833.980469 981.21875 2834.179688 980.84375 2834.316406 980.433594 C 2834.453125 980.027344 2834.523438 979.605469 2834.523438 979.175781 C 2834.523438 978.746094 2834.457031 978.324219 2834.324219 977.917969 C 2834.1875 977.507812 2833.992188 977.128906 2833.734375 976.785156 C 2833.476562 976.4375 2833.171875 976.144531 2832.820312 975.894531 C 2832.46875 975.648438 2832.085938 975.464844 2831.671875 975.339844 C 2831.261719 975.21875 2830.839844 975.164062 2830.40625 975.175781 Z M 2830.40625 975.175781 " fill-opacity="1" fill-rule="nonzero" style="fill: rgb(0, 71, 11);"/>
</svg>