<?xml version="1.0" encoding="utf-8"?>
<svg viewBox="1369.9879 2492.4465 924.9572 1056.0635" xmlns="http://www.w3.org/2000/svg">
  <path d="M 2082.179688 2653.457031 C 2094.148438 2579.34375 1971.011719 2517.019531 1911.082031 2515.425781 C 1910.703125 2515.414062 1910.335938 2515.34375 1909.980469 2515.214844 C 1909.628906 2515.082031 1909.300781 2514.898438 1909.007812 2514.660156 C 1908.714844 2514.425781 1908.464844 2514.144531 1908.261719 2513.828125 C 1908.058594 2513.507812 1907.910156 2513.164062 1907.820312 2512.796875 C 1907.730469 2512.429688 1907.699219 2512.058594 1907.730469 2511.679688 C 1907.761719 2511.304688 1907.855469 2510.941406 1908.003906 2510.59375 C 1908.15625 2510.246094 1908.359375 2509.933594 1908.609375 2509.652344 C 1908.863281 2509.371094 1909.15625 2509.140625 1909.484375 2508.953125 C 1966.488281 2477.304688 2042.996094 2489.183594 2057.800781 2561.878906 C 2058.453125 2564.835938 2060.136719 2566.960938 2062.855469 2568.261719 C 2102.570312 2586.613281 2099.289062 2610.285156 2096.542969 2648.9375 C 2096.1875 2653.78125 2093.46875 2657.0625 2088.386719 2658.777344 C 2088.191406 2658.839844 2087.996094 2658.890625 2087.792969 2658.929688 C 2087.59375 2658.964844 2087.390625 2658.992188 2087.1875 2659.003906 C 2086.984375 2659.015625 2086.777344 2659.015625 2086.574219 2659 C 2086.371094 2658.984375 2086.167969 2658.957031 2085.96875 2658.917969 C 2085.769531 2658.878906 2085.570312 2658.824219 2085.378906 2658.761719 C 2085.183594 2658.695312 2084.996094 2658.617188 2084.8125 2658.527344 C 2084.628906 2658.441406 2084.449219 2658.339844 2084.28125 2658.226562 C 2084.109375 2658.113281 2083.945312 2657.992188 2083.789062 2657.859375 C 2083.636719 2657.726562 2083.488281 2657.582031 2083.351562 2657.433594 C 2083.214844 2657.28125 2083.089844 2657.121094 2082.972656 2656.953125 C 2082.855469 2656.785156 2082.75 2656.609375 2082.65625 2656.429688 C 2082.5625 2656.246094 2082.480469 2656.0625 2082.410156 2655.867188 C 2082.339844 2655.675781 2082.28125 2655.480469 2082.238281 2655.28125 C 2082.191406 2655.082031 2082.160156 2654.882812 2082.140625 2654.679688 C 2082.121094 2654.472656 2082.113281 2654.269531 2082.121094 2654.066406 C 2082.128906 2653.863281 2082.148438 2653.660156 2082.179688 2653.457031 Z M 2082.179688 2653.457031 " fill-opacity="1" fill-rule="nonzero" style="fill: rgb(180, 0, 0);"/>
  <path d="M 1766.578125 2575.710938 C 1764.746094 2600.355469 1768.675781 2624.082031 1778.367188 2646.898438 C 1778.640625 2647.550781 1778.8125 2648.234375 1778.878906 2648.941406 C 1778.949219 2649.648438 1778.910156 2650.347656 1778.769531 2651.042969 C 1778.625 2651.738281 1778.386719 2652.398438 1778.046875 2653.019531 C 1777.707031 2653.644531 1777.28125 2654.203125 1776.773438 2654.699219 L 1756.027344 2675.53125 C 1753.429688 2678.074219 1751.242188 2677.777344 1749.46875 2674.644531 C 1729.253906 2639.183594 1721.71875 2578.457031 1754.609375 2548.050781 C 1760.460938 2542.613281 1766.546875 2541.578125 1772.871094 2544.945312 C 1773.394531 2545.226562 1773.949219 2545.414062 1774.535156 2545.507812 C 1775.117188 2545.605469 1775.703125 2545.605469 1776.289062 2545.507812 C 1776.871094 2545.410156 1777.425781 2545.226562 1777.949219 2544.945312 C 1778.472656 2544.667969 1778.9375 2544.3125 1779.34375 2543.882812 C 1832.800781 2485.105469 1901.683594 2516.667969 1953.632812 2554.519531 C 1975.441406 2570.417969 1982.300781 2591.933594 1974.203125 2619.058594 C 1974.074219 2619.488281 1973.882812 2619.890625 1973.632812 2620.265625 C 1973.386719 2620.640625 1973.085938 2620.96875 1972.738281 2621.253906 C 1972.394531 2621.539062 1972.011719 2621.765625 1971.597656 2621.9375 C 1971.179688 2622.109375 1970.75 2622.214844 1970.304688 2622.257812 C 1969.855469 2622.300781 1969.414062 2622.277344 1968.972656 2622.1875 C 1968.53125 2622.097656 1968.117188 2621.949219 1967.71875 2621.734375 C 1967.324219 2621.519531 1966.96875 2621.253906 1966.65625 2620.933594 C 1966.339844 2620.613281 1966.078125 2620.253906 1965.867188 2619.859375 C 1924.289062 2541.136719 1846.71875 2534.664062 1771.277344 2568.972656 C 1768.378906 2570.273438 1766.8125 2572.519531 1766.578125 2575.710938 Z M 1766.578125 2575.710938 " fill-opacity="1" fill-rule="nonzero" style="fill: rgb(180, 0, 0);"/>
  <path d="M 1915.335938 2600.53125 C 1914.035156 2604.3125 1911.230469 2605.054688 1906.914062 2602.75 C 1862.824219 2578.753906 1830.734375 2588.742188 1810.636719 2632.710938 C 1810.191406 2633.671875 1809.625 2634.550781 1808.929688 2635.351562 C 1808.234375 2636.152344 1807.445312 2636.839844 1806.558594 2637.417969 C 1805.667969 2637.996094 1804.71875 2638.4375 1803.707031 2638.742188 C 1802.699219 2639.050781 1801.664062 2639.210938 1800.609375 2639.226562 C 1799.554688 2639.238281 1798.519531 2639.105469 1797.503906 2638.828125 C 1796.492188 2638.546875 1795.535156 2638.128906 1794.644531 2637.574219 C 1793.75 2637.023438 1792.953125 2636.355469 1792.25 2635.574219 C 1791.546875 2634.792969 1790.96875 2633.925781 1790.515625 2632.980469 C 1781.648438 2614.835938 1781.265625 2596.71875 1789.363281 2578.632812 C 1790.601562 2575.738281 1792.640625 2573.609375 1795.480469 2572.25 C 1861.523438 2540.335938 1890.515625 2570.832031 1940.25 2605.40625 C 1940.671875 2605.707031 1941.042969 2606.0625 1941.351562 2606.480469 C 1941.664062 2606.898438 1941.902344 2607.351562 1942.066406 2607.84375 C 1942.230469 2608.335938 1942.316406 2608.84375 1942.320312 2609.363281 C 1942.324219 2609.882812 1942.246094 2610.386719 1942.089844 2610.882812 C 1941.929688 2611.378906 1941.699219 2611.835938 1941.394531 2612.257812 C 1941.089844 2612.675781 1940.726562 2613.039062 1940.304688 2613.34375 C 1939.886719 2613.648438 1939.425781 2613.882812 1938.933594 2614.039062 C 1938.4375 2614.199219 1937.929688 2614.277344 1937.410156 2614.273438 L 1928.8125 2614.273438 C 1925.441406 2614.273438 1923.757812 2612.589844 1923.757812 2609.21875 L 1923.757812 2601.949219 C 1923.75 2601.445312 1923.65625 2600.953125 1923.472656 2600.480469 C 1923.292969 2600.007812 1923.039062 2599.578125 1922.707031 2599.191406 C 1922.375 2598.808594 1921.992188 2598.492188 1921.550781 2598.242188 C 1921.109375 2597.992188 1920.636719 2597.828125 1920.136719 2597.742188 C 1919.636719 2597.660156 1919.136719 2597.664062 1918.640625 2597.753906 C 1918.140625 2597.84375 1917.671875 2598.015625 1917.234375 2598.269531 C 1916.796875 2598.523438 1916.414062 2598.847656 1916.085938 2599.234375 C 1915.761719 2599.625 1915.511719 2600.054688 1915.335938 2600.53125 Z M 1915.335938 2600.53125 " fill-opacity="1" fill-rule="nonzero" style="fill: rgb(180, 0, 0);"/>
  <path d="M 1648.9375 2697.25 C 1643.527344 2662.058594 1653.546875 2593.351562 1690.515625 2575.710938 C 1691.039062 2575.457031 1691.578125 2575.238281 1692.128906 2575.046875 C 1692.683594 2574.859375 1693.242188 2574.703125 1693.8125 2574.582031 C 1694.382812 2574.457031 1694.957031 2574.367188 1695.539062 2574.3125 C 1696.117188 2574.253906 1696.699219 2574.234375 1697.28125 2574.246094 C 1697.867188 2574.257812 1698.445312 2574.304688 1699.023438 2574.382812 C 1699.601562 2574.460938 1700.171875 2574.574219 1700.738281 2574.722656 C 1701.300781 2574.867188 1701.855469 2575.046875 1702.398438 2575.257812 C 1702.941406 2575.46875 1703.472656 2575.710938 1703.988281 2575.980469 C 1704.503906 2576.253906 1705 2576.554688 1705.480469 2576.886719 C 1705.960938 2577.21875 1706.417969 2577.574219 1706.859375 2577.960938 C 1707.296875 2578.34375 1707.710938 2578.753906 1708.101562 2579.183594 C 1708.492188 2579.617188 1708.855469 2580.074219 1709.195312 2580.546875 C 1709.53125 2581.023438 1709.839844 2581.515625 1710.121094 2582.027344 C 1710.398438 2582.539062 1710.648438 2583.066406 1710.867188 2583.605469 C 1711.085938 2584.144531 1711.273438 2584.699219 1711.425781 2585.261719 C 1711.582031 2585.824219 1711.703125 2586.390625 1711.789062 2586.96875 L 1714.628906 2605.851562 C 1715.160156 2609.277344 1713.859375 2611.703125 1710.726562 2613.121094 C 1674.558594 2629.550781 1656.5 2657.800781 1656.558594 2697.871094 C 1656.558594 2701.242188 1654.964844 2702.304688 1651.773438 2701.0625 C 1650.175781 2700.472656 1649.230469 2699.203125 1648.9375 2697.25 Z M 1648.9375 2697.25 " fill-opacity="1" fill-rule="nonzero" style="fill: rgb(180, 0, 0);"/>
  <path d="M 2000.53125 2595.300781 C 2000.25 2595.28125 1999.984375 2595.210938 1999.730469 2595.085938 C 1999.476562 2594.960938 1999.257812 2594.792969 1999.070312 2594.582031 C 1998.886719 2594.371094 1998.746094 2594.132812 1998.65625 2593.863281 C 1998.5625 2593.597656 1998.527344 2593.324219 1998.542969 2593.042969 C 1998.5625 2592.757812 1998.632812 2592.492188 1998.757812 2592.238281 C 1998.878906 2591.984375 1999.046875 2591.765625 1999.257812 2591.578125 C 1999.46875 2591.390625 1999.707031 2591.25 1999.976562 2591.160156 C 2000.242188 2591.066406 2000.515625 2591.03125 2000.796875 2591.046875 C 2098.226562 2585.195312 2059.484375 2709.398438 2035.816406 2753.988281 C 2034.339844 2756.828125 2032.152344 2757.566406 2029.253906 2756.207031 L 1976.328125 2731.648438 C 1975.96875 2731.492188 1975.636719 2731.289062 1975.339844 2731.035156 C 1975.039062 2730.78125 1974.78125 2730.488281 1974.566406 2730.15625 C 1974.355469 2729.828125 1974.191406 2729.472656 1974.082031 2729.097656 C 1973.972656 2728.71875 1973.921875 2728.332031 1973.925781 2727.941406 C 1973.929688 2727.546875 1973.992188 2727.164062 1974.109375 2726.789062 C 1974.230469 2726.414062 1974.398438 2726.0625 1974.621094 2725.738281 C 1974.84375 2725.414062 1975.105469 2725.128906 1975.414062 2724.882812 C 1975.71875 2724.636719 1976.054688 2724.4375 1976.417969 2724.289062 C 2022.074219 2705.054688 2094.414062 2614.007812 2000.53125 2595.300781 Z M 2000.53125 2595.300781 " fill-opacity="1" fill-rule="nonzero" style="fill: rgb(180, 0, 0);"/>
  <path d="M 1883.6875 2605.671875 C 1884.421875 2605.769531 1885.117188 2605.988281 1885.773438 2606.324219 C 1886.429688 2606.664062 1887.011719 2607.101562 1887.515625 2607.644531 C 1888.023438 2608.183594 1888.421875 2608.792969 1888.714844 2609.472656 C 1889.007812 2610.148438 1889.179688 2610.859375 1889.226562 2611.597656 C 1889.273438 2612.332031 1889.195312 2613.058594 1888.988281 2613.769531 C 1888.785156 2614.480469 1888.464844 2615.132812 1888.035156 2615.734375 C 1887.601562 2616.332031 1887.082031 2616.84375 1886.472656 2617.261719 C 1885.863281 2617.679688 1885.199219 2617.984375 1884.484375 2618.171875 C 1866.695312 2623.433594 1851.566406 2632.859375 1839.09375 2646.453125 C 1838.875 2646.707031 1838.621094 2646.917969 1838.332031 2647.085938 C 1838.042969 2647.253906 1837.738281 2647.375 1837.410156 2647.445312 C 1837.082031 2647.515625 1836.753906 2647.53125 1836.417969 2647.496094 C 1836.085938 2647.460938 1835.769531 2647.371094 1835.464844 2647.230469 C 1835.160156 2647.09375 1834.886719 2646.90625 1834.640625 2646.679688 C 1834.398438 2646.453125 1834.195312 2646.191406 1834.035156 2645.898438 C 1833.875 2645.601562 1833.765625 2645.292969 1833.707031 2644.960938 C 1833.644531 2644.632812 1833.640625 2644.300781 1833.6875 2643.972656 C 1837.882812 2613.890625 1854.550781 2601.121094 1883.6875 2605.671875 Z M 1883.6875 2605.671875 " fill-opacity="1" fill-rule="nonzero" style="fill: rgb(180, 0, 0);"/>
  <path d="M 1906.648438 2630.671875 C 1906.300781 2630.539062 1905.96875 2630.367188 1905.65625 2630.15625 C 1905.347656 2629.945312 1905.0625 2629.707031 1904.808594 2629.429688 C 1904.550781 2629.15625 1904.328125 2628.859375 1904.140625 2628.535156 C 1903.953125 2628.210938 1903.800781 2627.867188 1903.691406 2627.507812 C 1903.582031 2627.152344 1903.511719 2626.785156 1903.484375 2626.410156 C 1903.457031 2626.035156 1903.46875 2625.664062 1903.527344 2625.292969 C 1903.582031 2624.921875 1903.679688 2624.5625 1903.816406 2624.214844 C 1903.957031 2623.863281 1904.132812 2623.535156 1904.34375 2623.226562 L 1910.105469 2614.894531 C 1912.292969 2611.703125 1914.539062 2611.671875 1916.84375 2614.804688 C 1929.609375 2631.914062 1950.265625 2623.492188 1957.359375 2651.242188 C 1957.464844 2651.707031 1957.535156 2652.179688 1957.5625 2652.65625 C 1957.589844 2653.132812 1957.574219 2653.609375 1957.519531 2654.085938 C 1957.464844 2654.5625 1957.371094 2655.027344 1957.234375 2655.488281 C 1957.097656 2655.945312 1956.925781 2656.390625 1956.714844 2656.820312 C 1956.5 2657.246094 1956.253906 2657.65625 1955.972656 2658.042969 C 1955.691406 2658.429688 1955.378906 2658.789062 1955.035156 2659.121094 C 1954.6875 2659.453125 1954.320312 2659.753906 1953.925781 2660.023438 C 1953.527344 2660.292969 1953.113281 2660.523438 1952.675781 2660.722656 C 1952.242188 2660.917969 1951.789062 2661.078125 1951.328125 2661.199219 C 1950.863281 2661.316406 1950.394531 2661.398438 1949.917969 2661.433594 C 1949.441406 2661.472656 1948.964844 2661.472656 1948.488281 2661.429688 C 1948.011719 2661.386719 1947.542969 2661.300781 1947.078125 2661.175781 C 1946.617188 2661.054688 1946.167969 2660.890625 1945.734375 2660.6875 C 1945.300781 2660.488281 1944.886719 2660.25 1944.496094 2659.980469 C 1944.101562 2659.707031 1943.734375 2659.402344 1943.394531 2659.066406 C 1943.050781 2658.730469 1942.742188 2658.367188 1942.464844 2657.980469 C 1933.597656 2645.152344 1921.660156 2636.050781 1906.648438 2630.671875 Z M 1906.648438 2630.671875 " fill-opacity="1" fill-rule="nonzero" style="fill: rgb(180, 0, 0);"/>
  <path d="M 1604.078125 2793.085938 C 1540.515625 2751.0625 1575.621094 2677.304688 1589.007812 2618.617188 C 1589.128906 2618.042969 1589.394531 2617.546875 1589.800781 2617.128906 C 1590.210938 2616.710938 1590.703125 2616.4375 1591.273438 2616.304688 C 1591.839844 2616.171875 1592.402344 2616.199219 1592.953125 2616.394531 C 1593.507812 2616.589844 1593.964844 2616.914062 1594.324219 2617.375 C 1620.300781 2649.824219 1623.136719 2689.539062 1648.316406 2718.882812 C 1650.265625 2721.070312 1651.507812 2723.609375 1652.039062 2726.507812 L 1665.78125 2799.910156 C 1666.132812 2801.980469 1665.277344 2803.132812 1663.210938 2803.367188 C 1638.5625 2806.324219 1618.851562 2802.894531 1604.078125 2793.085938 Z M 1604.078125 2793.085938 " fill-opacity="1" fill-rule="nonzero" style="fill: rgb(180, 0, 0);"/>
  <path d="M 1715.601562 2635.992188 C 1727.394531 2692.464844 1763.828125 2723.9375 1816.753906 2756.117188 C 1867.375 2786.878906 1936.613281 2847.339844 1893.527344 2914.273438 C 1892.046875 2916.578125 1890.066406 2918.234375 1887.589844 2919.238281 C 1759.574219 2972.695312 1611.257812 2726.328125 1707.09375 2633.421875 C 1707.75 2632.769531 1708.53125 2632.328125 1709.429688 2632.105469 C 1710.332031 2631.878906 1711.226562 2631.902344 1712.113281 2632.171875 C 1713.003906 2632.4375 1713.757812 2632.914062 1714.386719 2633.601562 C 1715.011719 2634.285156 1715.417969 2635.082031 1715.601562 2635.992188 Z M 1715.601562 2635.992188 " fill-opacity="1" fill-rule="nonzero" style="fill: rgb(180, 0, 0);"/>
  <path d="M 1962.058594 2716.222656 C 1942.996094 2722.519531 1923.492188 2719.058594 1902.660156 2719.503906 C 1902.222656 2719.53125 1901.796875 2719.480469 1901.382812 2719.351562 C 1900.964844 2719.21875 1900.589844 2719.015625 1900.25 2718.742188 C 1899.910156 2718.464844 1899.632812 2718.140625 1899.417969 2717.761719 C 1899.203125 2717.378906 1899.066406 2716.976562 1899.003906 2716.542969 C 1898.941406 2716.109375 1898.960938 2715.683594 1899.0625 2715.257812 C 1899.160156 2714.835938 1899.335938 2714.441406 1899.585938 2714.085938 C 1899.832031 2713.726562 1900.140625 2713.425781 1900.5 2713.183594 C 1900.863281 2712.9375 1901.257812 2712.769531 1901.683594 2712.675781 C 1945.242188 2700.324219 1979.816406 2675.679688 2005.40625 2638.742188 C 2008.183594 2634.78125 2009.691406 2635.222656 2009.929688 2640.070312 C 2012.058594 2679.492188 1996.097656 2704.875 1962.058594 2716.222656 Z M 1962.058594 2716.222656 " fill-opacity="1" fill-rule="nonzero" style="fill: rgb(180, 0, 0);"/>
  <path d="M 1902.558594 2639.136719 C 1902.859375 2639.476562 1903.113281 2639.851562 1903.324219 2640.261719 C 1903.53125 2640.671875 1903.691406 2641.109375 1903.800781 2641.574219 C 1903.90625 2642.042969 1903.960938 2642.527344 1903.964844 2643.03125 C 1903.964844 2643.535156 1903.917969 2644.046875 1903.8125 2644.566406 C 1903.710938 2645.089844 1903.558594 2645.609375 1903.351562 2646.128906 C 1903.148438 2646.648438 1902.898438 2647.160156 1902.597656 2647.65625 C 1902.300781 2648.15625 1901.960938 2648.632812 1901.582031 2649.089844 C 1901.203125 2649.546875 1900.789062 2649.976562 1900.339844 2650.375 C 1899.890625 2650.773438 1899.417969 2651.136719 1898.921875 2651.460938 C 1898.421875 2651.785156 1897.910156 2652.066406 1897.378906 2652.308594 C 1896.851562 2652.546875 1896.316406 2652.738281 1895.777344 2652.878906 C 1895.238281 2653.023438 1894.703125 2653.117188 1894.171875 2653.15625 C 1893.640625 2653.199219 1893.125 2653.191406 1892.625 2653.132812 C 1892.125 2653.070312 1891.652344 2652.960938 1891.203125 2652.800781 C 1890.75 2652.640625 1890.335938 2652.433594 1889.949219 2652.175781 C 1889.566406 2651.921875 1889.222656 2651.625 1888.921875 2651.285156 C 1888.621094 2650.949219 1888.363281 2650.574219 1888.15625 2650.164062 C 1887.945312 2649.753906 1887.789062 2649.3125 1887.679688 2648.847656 C 1887.574219 2648.382812 1887.519531 2647.898438 1887.515625 2647.394531 C 1887.511719 2646.890625 1887.5625 2646.378906 1887.667969 2645.855469 C 1887.769531 2645.335938 1887.921875 2644.8125 1888.128906 2644.292969 C 1888.332031 2643.773438 1888.582031 2643.265625 1888.882812 2642.765625 C 1889.179688 2642.269531 1889.519531 2641.789062 1889.898438 2641.332031 C 1890.277344 2640.875 1890.691406 2640.449219 1891.140625 2640.050781 C 1891.585938 2639.652344 1892.058594 2639.289062 1892.558594 2638.964844 C 1893.054688 2638.636719 1893.570312 2638.355469 1894.097656 2638.117188 C 1894.628906 2637.878906 1895.164062 2637.6875 1895.703125 2637.542969 C 1896.242188 2637.402344 1896.777344 2637.308594 1897.308594 2637.265625 C 1897.839844 2637.222656 1898.351562 2637.234375 1898.851562 2637.292969 C 1899.351562 2637.351562 1899.828125 2637.464844 1900.277344 2637.625 C 1900.730469 2637.785156 1901.144531 2637.992188 1901.527344 2638.246094 C 1901.914062 2638.503906 1902.253906 2638.800781 1902.558594 2639.136719 Z M 1902.558594 2639.136719 " fill-opacity="1" fill-rule="nonzero" style="fill: rgb(180, 0, 0);"/>
  <path d="M 2167.90625 2676.683594 C 2161.878906 2650.796875 2127.128906 2648.757812 2104.789062 2652.570312 C 2102.070312 2652.984375 2100.796875 2651.832031 2100.976562 2649.113281 C 2101.035156 2648.167969 2101.269531 2647.339844 2101.683594 2646.632812 C 2102.097656 2645.980469 2102.867188 2645.449219 2103.988281 2645.035156 C 2132.003906 2635.019531 2187.054688 2634.398438 2195.746094 2671.898438 C 2208.6875 2727.394531 2121.984375 2745.746094 2087.410156 2765.160156 C 2084.75 2766.636719 2082.859375 2765.988281 2081.738281 2763.210938 C 2081.382812 2762.382812 2081.058594 2761.496094 2080.761719 2760.550781 C 2080.667969 2760.304688 2080.625 2760.050781 2080.636719 2759.785156 C 2080.648438 2759.523438 2080.714844 2759.269531 2080.832031 2759.027344 C 2080.945312 2758.785156 2081.105469 2758.574219 2081.3125 2758.390625 C 2081.515625 2758.210938 2081.746094 2758.070312 2082.003906 2757.980469 C 2109.398438 2749.023438 2176.417969 2713.652344 2167.90625 2676.683594 Z M 2167.90625 2676.683594 " fill-opacity="1" fill-rule="nonzero" style="fill: rgb(180, 0, 0);"/>
  <path d="M 1786.082031 2689.628906 C 1780.054688 2666.222656 1788.949219 2651.476562 1812.765625 2645.390625 C 1816.84375 2644.386719 1818.882812 2645.953125 1818.882812 2650.089844 L 1818.882812 2668.441406 C 1818.878906 2668.671875 1818.90625 2668.898438 1818.960938 2669.121094 C 1819.015625 2669.347656 1819.101562 2669.558594 1819.210938 2669.761719 C 1819.324219 2669.964844 1819.457031 2670.148438 1819.617188 2670.316406 C 1819.777344 2670.484375 1819.953125 2670.628906 1820.152344 2670.75 C 1820.347656 2670.871094 1820.558594 2670.960938 1820.777344 2671.027344 C 1821 2671.09375 1821.226562 2671.132812 1821.457031 2671.140625 C 1821.6875 2671.148438 1821.914062 2671.125 1822.140625 2671.074219 C 1822.363281 2671.019531 1822.578125 2670.941406 1822.785156 2670.832031 L 1873.671875 2644.238281 C 1873.867188 2644.132812 1874.070312 2644.039062 1874.277344 2643.957031 C 1874.488281 2643.878906 1874.699219 2643.8125 1874.917969 2643.757812 C 1875.136719 2643.707031 1875.355469 2643.667969 1875.578125 2643.644531 C 1875.800781 2643.617188 1876.023438 2643.609375 1876.246094 2643.613281 C 1876.46875 2643.617188 1876.691406 2643.632812 1876.914062 2643.667969 C 1877.132812 2643.699219 1877.351562 2643.746094 1877.570312 2643.804688 C 1877.785156 2643.867188 1877.996094 2643.941406 1878.199219 2644.027344 C 1878.40625 2644.113281 1878.605469 2644.214844 1878.796875 2644.328125 C 1878.992188 2644.441406 1879.175781 2644.566406 1879.351562 2644.703125 C 1879.53125 2644.839844 1879.699219 2644.988281 1879.855469 2645.148438 C 1880.011719 2645.304688 1880.160156 2645.472656 1880.296875 2645.648438 C 1880.433594 2645.828125 1880.558594 2646.011719 1880.671875 2646.207031 C 1880.785156 2646.398438 1880.882812 2646.597656 1880.972656 2646.804688 C 1881.058594 2647.007812 1881.132812 2647.21875 1881.191406 2647.4375 C 1881.25 2647.652344 1881.296875 2647.871094 1881.328125 2648.089844 C 1881.363281 2648.3125 1881.378906 2648.535156 1881.382812 2648.757812 L 1881.738281 2663.210938 C 1881.75 2663.855469 1881.667969 2664.496094 1881.492188 2665.121094 C 1881.320312 2665.75 1881.058594 2666.339844 1880.714844 2666.898438 C 1880.371094 2667.457031 1879.953125 2667.957031 1879.460938 2668.398438 C 1878.972656 2668.84375 1878.429688 2669.210938 1877.835938 2669.503906 L 1791.402344 2711.257812 C 1790.855469 2711.519531 1790.289062 2711.730469 1789.707031 2711.898438 C 1789.121094 2712.0625 1788.523438 2712.179688 1787.917969 2712.242188 C 1787.308594 2712.308594 1786.699219 2712.324219 1786.089844 2712.289062 C 1785.476562 2712.25 1784.875 2712.164062 1784.277344 2712.027344 C 1783.679688 2711.890625 1783.101562 2711.707031 1782.535156 2711.472656 C 1781.972656 2711.238281 1781.433594 2710.960938 1780.917969 2710.636719 C 1780.402344 2710.3125 1779.921875 2709.949219 1779.46875 2709.546875 C 1779.019531 2709.144531 1778.609375 2708.707031 1778.238281 2708.234375 C 1777.867188 2707.765625 1777.539062 2707.265625 1777.257812 2706.742188 C 1776.976562 2706.21875 1776.746094 2705.675781 1776.558594 2705.113281 C 1776.375 2704.550781 1776.246094 2703.976562 1776.164062 2703.394531 C 1776.085938 2702.8125 1776.058594 2702.226562 1776.082031 2701.640625 C 1776.109375 2701.054688 1776.1875 2700.476562 1776.320312 2699.902344 C 1776.449219 2699.332031 1776.632812 2698.773438 1776.867188 2698.234375 C 1777.097656 2697.695312 1777.378906 2697.175781 1777.703125 2696.683594 C 1778.03125 2696.191406 1778.402344 2695.730469 1778.8125 2695.300781 C 1779.402344 2694.710938 1780.761719 2694.324219 1782.890625 2694.148438 C 1785.726562 2693.914062 1786.789062 2692.40625 1786.082031 2689.628906 Z M 1786.082031 2689.628906 " fill-opacity="1" fill-rule="nonzero" style="fill: rgb(180, 0, 0);"/>
  <path d="M 1925.089844 2657.359375 C 1921.425781 2660.492188 1917.226562 2661.996094 1912.5 2661.878906 C 1912.097656 2661.855469 1911.710938 2661.765625 1911.335938 2661.613281 C 1910.964844 2661.457031 1910.625 2661.25 1910.324219 2660.980469 C 1910.019531 2660.714844 1909.769531 2660.40625 1909.566406 2660.058594 C 1909.367188 2659.707031 1909.230469 2659.335938 1909.152344 2658.9375 C 1909.078125 2658.542969 1909.066406 2658.144531 1909.121094 2657.746094 C 1909.179688 2657.34375 1909.296875 2656.964844 1909.480469 2656.605469 C 1909.664062 2656.246094 1909.898438 2655.925781 1910.1875 2655.644531 C 1910.476562 2655.363281 1910.804688 2655.136719 1911.171875 2654.964844 L 1921.097656 2650.886719 C 1921.527344 2650.664062 1921.980469 2650.53125 1922.457031 2650.480469 C 1922.933594 2650.429688 1923.40625 2650.472656 1923.867188 2650.597656 C 1924.332031 2650.726562 1924.753906 2650.9375 1925.140625 2651.226562 C 1925.523438 2651.515625 1925.84375 2651.863281 1926.09375 2652.273438 C 1926.347656 2652.683594 1926.515625 2653.121094 1926.601562 2653.597656 C 1926.6875 2654.070312 1926.683594 2654.542969 1926.589844 2655.011719 C 1926.496094 2655.484375 1926.320312 2655.921875 1926.0625 2656.328125 C 1925.800781 2656.734375 1925.476562 2657.074219 1925.089844 2657.359375 Z M 1925.089844 2657.359375 " fill-opacity="1" fill-rule="nonzero" style="fill: rgb(180, 0, 0);"/>
  <path d="M 2147.519531 2667.730469 C 2148.285156 2668.023438 2149.023438 2668.382812 2149.726562 2668.808594 C 2150.429688 2669.234375 2151.085938 2669.722656 2151.703125 2670.269531 C 2152.316406 2670.816406 2152.878906 2671.414062 2153.382812 2672.0625 C 2153.890625 2672.710938 2154.332031 2673.398438 2154.714844 2674.128906 C 2155.09375 2674.855469 2155.40625 2675.613281 2155.648438 2676.398438 C 2155.890625 2677.183594 2156.0625 2677.988281 2156.160156 2678.804688 C 2156.257812 2679.621094 2156.277344 2680.4375 2156.226562 2681.257812 C 2156.175781 2682.082031 2156.050781 2682.890625 2155.851562 2683.6875 C 2148.492188 2713.121094 2079.964844 2742.554688 2054.078125 2762.058594 C 2053.757812 2762.273438 2053.410156 2762.429688 2053.035156 2762.527344 C 2052.660156 2762.628906 2052.28125 2762.664062 2051.894531 2762.632812 C 2051.511719 2762.605469 2051.140625 2762.515625 2050.785156 2762.363281 C 2050.429688 2762.207031 2050.109375 2762.003906 2049.824219 2761.742188 C 2049.539062 2761.480469 2049.300781 2761.179688 2049.117188 2760.84375 C 2048.929688 2760.503906 2048.804688 2760.140625 2048.742188 2759.761719 C 2048.679688 2759.378906 2048.675781 2759 2048.742188 2758.617188 C 2048.804688 2758.234375 2048.929688 2757.875 2049.113281 2757.535156 C 2071.808594 2720.566406 2090.957031 2646.632812 2147.519531 2667.730469 Z M 2147.519531 2667.730469 " fill-opacity="1" fill-rule="nonzero" style="fill: rgb(180, 0, 0);"/>
  <path d="M 1815.515625 2733.6875 C 1814.613281 2733.527344 1813.816406 2733.140625 1813.117188 2732.519531 C 1812.417969 2731.898438 1811.917969 2731.136719 1811.613281 2730.230469 C 1808.71875 2721.246094 1810.964844 2715.011719 1818.351562 2711.523438 C 1861.171875 2690.957031 1892.730469 2675.355469 1941.3125 2670.210938 C 1944.859375 2669.859375 1946.957031 2670.066406 1947.605469 2670.832031 C 1947.957031 2671.242188 1948.261719 2671.683594 1948.511719 2672.164062 C 1948.757812 2672.640625 1948.953125 2673.140625 1949.085938 2673.664062 C 1949.222656 2674.1875 1949.292969 2674.71875 1949.304688 2675.257812 C 1949.316406 2675.796875 1949.265625 2676.328125 1949.15625 2676.855469 C 1949.042969 2677.382812 1948.875 2677.890625 1948.644531 2678.382812 C 1948.417969 2678.871094 1948.132812 2679.324219 1947.800781 2679.75 C 1947.464844 2680.171875 1947.085938 2680.550781 1946.664062 2680.886719 C 1946.242188 2681.222656 1945.789062 2681.507812 1945.300781 2681.738281 C 1915.601562 2695.746094 1846.363281 2739.714844 1815.515625 2733.6875 Z M 1815.515625 2733.6875 " fill-opacity="1" fill-rule="nonzero" style="fill: rgb(180, 0, 0);"/>
  <path d="M 1856.914062 2761.257812 C 1848.402344 2756.175781 1848.433594 2751.183594 1857.003906 2746.277344 C 1898.671875 2722.605469 1933.421875 2731.207031 1977.394531 2753.015625 C 2003.101562 2765.722656 2030.347656 2772.636719 2059.132812 2773.757812 C 2059.449219 2773.769531 2059.761719 2773.820312 2060.066406 2773.910156 C 2060.371094 2774 2060.660156 2774.125 2060.933594 2774.289062 C 2061.207031 2774.449219 2061.457031 2774.644531 2061.683594 2774.867188 C 2061.910156 2775.09375 2062.101562 2775.339844 2062.265625 2775.613281 C 2062.429688 2775.886719 2062.554688 2776.175781 2062.648438 2776.480469 C 2062.738281 2776.785156 2062.789062 2777.097656 2062.800781 2777.417969 C 2062.816406 2777.734375 2062.789062 2778.050781 2062.722656 2778.359375 C 2062.65625 2778.671875 2062.550781 2778.96875 2062.410156 2779.253906 C 2032.710938 2841.933594 2000.621094 2894.769531 1927.480469 2910.019531 C 1924.054688 2910.785156 1922.605469 2909.425781 1923.136719 2905.941406 C 1933.835938 2842.050781 1911.761719 2793.824219 1856.914062 2761.257812 Z M 1856.914062 2761.257812 " fill-opacity="1" fill-rule="nonzero" style="fill: rgb(180, 0, 0);"/>
  <path d="M 1960.816406 2913.296875 C 1956.207031 2911.464844 1956.234375 2909.664062 1960.902344 2907.890625 C 2020.035156 2885.636719 2051.683594 2836.082031 2078.632812 2780.941406 C 2079.355469 2779.472656 2080.289062 2778.152344 2081.441406 2776.984375 C 2082.59375 2775.820312 2083.90625 2774.859375 2085.371094 2774.113281 C 2124.320312 2754.550781 2165.632812 2744.265625 2209.308594 2743.261719 C 2209.652344 2743.253906 2209.992188 2743.265625 2210.332031 2743.300781 C 2210.675781 2743.335938 2211.011719 2743.394531 2211.34375 2743.472656 C 2211.679688 2743.550781 2212.003906 2743.648438 2212.328125 2743.769531 C 2212.648438 2743.890625 2212.957031 2744.03125 2213.261719 2744.191406 C 2213.5625 2744.351562 2213.855469 2744.53125 2214.132812 2744.730469 C 2214.414062 2744.925781 2214.679688 2745.144531 2214.929688 2745.375 C 2215.183594 2745.609375 2215.417969 2745.855469 2215.640625 2746.117188 C 2215.859375 2746.378906 2216.0625 2746.65625 2216.246094 2746.945312 C 2216.429688 2747.234375 2216.59375 2747.53125 2216.742188 2747.84375 C 2216.886719 2748.152344 2217.011719 2748.472656 2217.117188 2748.796875 C 2217.222656 2749.125 2217.304688 2749.457031 2217.367188 2749.792969 C 2217.429688 2750.128906 2217.46875 2750.46875 2217.488281 2750.8125 C 2217.507812 2751.152344 2217.503906 2751.496094 2217.476562 2751.835938 C 2217.449219 2752.179688 2217.402344 2752.515625 2217.335938 2752.851562 C 2217.265625 2753.1875 2217.175781 2753.515625 2217.0625 2753.839844 C 2216.949219 2754.164062 2216.820312 2754.480469 2216.667969 2754.785156 C 2206.855469 2774.585938 2193.027344 2791.28125 2175.175781 2804.875 C 2174.089844 2805.703125 2173.179688 2806.691406 2172.445312 2807.832031 C 2171.714844 2808.976562 2171.207031 2810.207031 2170.921875 2811.523438 C 2164.714844 2839.300781 2151.003906 2861.644531 2129.789062 2878.546875 C 2109.484375 2894.769531 2083.421875 2889.097656 2060.636719 2905.40625 C 2031.972656 2925.976562 1998.699219 2928.605469 1960.816406 2913.296875 Z M 1960.816406 2913.296875 " fill-opacity="1" fill-rule="nonzero" style="fill: rgb(180, 0, 0);"/>
  <path d="M 1564.714844 2819.679688 C 1561.582031 2817.199219 1562.027344 2815.808594 1566.046875 2815.515625 C 1591.28125 2813.5625 1617.226562 2813.828125 1643.882812 2816.3125 C 1681.738281 2819.769531 1688.386719 2835.460938 1709.308594 2862.855469 C 1735.078125 2896.542969 1768.234375 2921.632812 1808.777344 2938.121094 C 1809.160156 2938.285156 1809.511719 2938.507812 1809.828125 2938.785156 C 1810.140625 2939.0625 1810.40625 2939.378906 1810.621094 2939.742188 C 1810.835938 2940.101562 1810.992188 2940.488281 1811.082031 2940.894531 C 1811.175781 2941.304688 1811.199219 2941.714844 1811.160156 2942.128906 C 1811.121094 2942.542969 1811.015625 2942.9375 1810.847656 2943.3125 C 1810.679688 2943.691406 1810.457031 2944.03125 1810.179688 2944.332031 C 1809.902344 2944.632812 1809.582031 2944.882812 1809.21875 2945.078125 C 1808.859375 2945.273438 1808.472656 2945.40625 1808.066406 2945.480469 L 1722.960938 2961.613281 C 1722.34375 2961.726562 1721.722656 2961.777344 1721.097656 2961.757812 C 1720.46875 2961.738281 1719.851562 2961.65625 1719.242188 2961.507812 C 1718.632812 2961.359375 1718.046875 2961.148438 1717.484375 2960.875 C 1716.917969 2960.601562 1716.390625 2960.273438 1715.894531 2959.886719 C 1715.402344 2959.503906 1714.953125 2959.070312 1714.550781 2958.589844 C 1714.148438 2958.109375 1713.800781 2957.589844 1713.507812 2957.035156 C 1713.214844 2956.484375 1712.984375 2955.902344 1712.8125 2955.300781 C 1712.644531 2954.699219 1712.539062 2954.082031 1712.5 2953.457031 C 1708.332031 2883.953125 1674.023438 2875.355469 1617.640625 2853.636719 C 1596.71875 2845.65625 1581.738281 2833.332031 1564.714844 2819.679688 Z M 1564.714844 2819.679688 " fill-opacity="1" fill-rule="nonzero" style="fill: rgb(180, 0, 0);"/>
  <path d="M 2110.992188 2942.90625 C 2110.480469 2942.804688 2109.976562 2942.660156 2109.488281 2942.476562 C 2108.996094 2942.292969 2108.523438 2942.070312 2108.070312 2941.808594 C 2107.617188 2941.546875 2107.183594 2941.25 2106.777344 2940.917969 C 2106.371094 2940.585938 2105.992188 2940.222656 2105.644531 2939.832031 C 2105.292969 2939.4375 2104.976562 2939.019531 2104.695312 2938.574219 C 2104.414062 2938.132812 2104.167969 2937.667969 2103.960938 2937.183594 C 2103.75 2936.699219 2103.582031 2936.199219 2103.453125 2935.6875 C 2103.324219 2935.175781 2103.238281 2934.65625 2103.191406 2934.132812 C 2103.132812 2933.1875 2103.101562 2932.179688 2103.101562 2931.117188 C 2103.222656 2927.511719 2105.023438 2925.207031 2108.511719 2924.203125 C 2168.792969 2905.851562 2189.894531 2883.15625 2234.132812 2841.933594 C 2234.535156 2841.554688 2234.980469 2841.242188 2235.472656 2840.988281 C 2235.960938 2840.738281 2236.476562 2840.558594 2237.019531 2840.453125 C 2237.5625 2840.347656 2238.105469 2840.320312 2238.65625 2840.367188 C 2239.207031 2840.417969 2239.738281 2840.542969 2240.25 2840.742188 C 2240.765625 2840.941406 2241.242188 2841.207031 2241.679688 2841.539062 C 2242.121094 2841.875 2242.503906 2842.261719 2242.832031 2842.707031 C 2243.164062 2843.148438 2243.425781 2843.628906 2243.617188 2844.144531 C 2243.8125 2844.660156 2243.929688 2845.195312 2243.972656 2845.746094 L 2248.136719 2894.769531 C 2248.199219 2895.578125 2248.339844 2896.371094 2248.558594 2897.152344 C 2248.78125 2897.933594 2249.074219 2898.6875 2249.445312 2899.410156 C 2249.816406 2900.128906 2250.253906 2900.808594 2250.761719 2901.445312 C 2251.265625 2902.078125 2251.832031 2902.660156 2252.453125 2903.183594 C 2253.078125 2903.707031 2253.746094 2904.164062 2254.460938 2904.558594 C 2255.175781 2904.949219 2255.921875 2905.265625 2256.703125 2905.511719 C 2257.480469 2905.753906 2258.273438 2905.921875 2259.085938 2906.007812 C 2259.898438 2906.09375 2260.710938 2906.101562 2261.523438 2906.027344 L 2293.441406 2903.015625 C 2293.777344 2902.96875 2294.085938 2903.042969 2294.367188 2903.234375 C 2294.644531 2903.429688 2294.828125 2903.691406 2294.90625 2904.019531 C 2294.984375 2904.351562 2294.945312 2904.664062 2294.78125 2904.964844 C 2294.621094 2905.265625 2294.378906 2905.46875 2294.058594 2905.585938 C 2258.246094 2922.164062 2222.164062 2945.832031 2183.066406 2947.871094 C 2158.835938 2949.171875 2134.8125 2947.515625 2110.992188 2942.90625 Z M 2110.992188 2942.90625 " fill-opacity="1" fill-rule="nonzero" style="fill: rgb(0, 71, 11);"/>
  <path d="M 1990.957031 3127.480469 C 1983.273438 3139.480469 1973.226562 3148.878906 1960.816406 3155.671875 C 1960.164062 3156.035156 1959.472656 3156.285156 1958.734375 3156.421875 C 1958 3156.554688 1957.261719 3156.574219 1956.519531 3156.46875 C 1955.777344 3156.363281 1955.066406 3156.148438 1954.390625 3155.8125 C 1953.71875 3155.480469 1953.109375 3155.050781 1952.570312 3154.519531 C 1920.566406 3122.429688 1866.046875 3098.671875 1870.480469 3048.582031 C 1870.714844 3046.097656 1869.59375 3045.066406 1867.109375 3045.480469 C 1865.574219 3045.714844 1864.65625 3046.570312 1864.363281 3048.050781 C 1861.878906 3058.6875 1858.304688 3078.574219 1853.632812 3107.710938 C 1852.984375 3111.613281 1851.121094 3112.351562 1848.050781 3109.929688 C 1810.757812 3080.4375 1789.242188 3041.726562 1783.511719 2993.792969 C 1783.417969 2993.042969 1783.421875 2992.292969 1783.527344 2991.542969 C 1783.628906 2990.792969 1783.832031 2990.074219 1784.125 2989.378906 C 1784.421875 2988.6875 1784.804688 2988.042969 1785.269531 2987.453125 C 1785.738281 2986.863281 1786.273438 2986.347656 1786.878906 2985.902344 C 1917.464844 2888.121094 2054.433594 2945.035156 2190.957031 2984.75 C 2232.535156 2996.898438 2246.453125 2991.578125 2280.671875 2983.332031 C 2284.21875 2982.445312 2284.75 2983.332031 2282.269531 2985.992188 C 2253.839844 3016.3125 2219.679688 3036.910156 2179.789062 3047.785156 C 2133.332031 3060.550781 2099.734375 3101.0625 2043.441406 3104.964844 C 2039.480469 3105.199219 2037.617188 3103.339844 2037.855469 3099.378906 L 2042.109375 3036.703125 C 2042.128906 3036.472656 2042.109375 3036.246094 2042.046875 3036.027344 C 2041.984375 3035.804688 2041.882812 3035.601562 2041.742188 3035.417969 C 2041.605469 3035.234375 2041.4375 3035.082031 2041.242188 3034.957031 C 2041.046875 3034.835938 2040.839844 3034.753906 2040.613281 3034.710938 C 2040.386719 3034.664062 2040.160156 3034.664062 2039.933594 3034.703125 C 2039.707031 3034.742188 2039.496094 3034.824219 2039.296875 3034.941406 C 2039.101562 3035.058594 2038.929688 3035.210938 2038.789062 3035.390625 C 2038.648438 3035.570312 2038.542969 3035.773438 2038.476562 3035.992188 C 2029.492188 3062.351562 2019.769531 3088.03125 2009.308594 3113.03125 C 2007.710938 3116.8125 2005.671875 3119.414062 2003.191406 3120.832031 C 2001.59375 3121.71875 1999.792969 3122.371094 1997.785156 3122.785156 C 1994.828125 3123.375 1992.554688 3124.941406 1990.957031 3127.480469 Z M 1990.957031 3127.480469 " fill-opacity="1" fill-rule="nonzero" style="fill: rgb(0, 71, 11);"/>
  <path d="M 1550.976562 3103.457031 C 1602.15625 3130.878906 1649.882812 3163.269531 1694.148438 3200.621094 C 1694.382812 3200.828125 1694.589844 3201.058594 1694.765625 3201.3125 C 1694.945312 3201.570312 1695.089844 3201.84375 1695.203125 3202.132812 C 1695.316406 3202.421875 1695.390625 3202.722656 1695.433594 3203.03125 C 1695.472656 3203.335938 1695.472656 3203.644531 1695.4375 3203.949219 C 1695.402344 3204.257812 1695.332031 3204.554688 1695.226562 3204.839844 C 1695.117188 3205.128906 1694.976562 3205.398438 1694.800781 3205.648438 C 1694.628906 3205.898438 1694.425781 3206.125 1694.195312 3206.324219 C 1693.964844 3206.523438 1693.710938 3206.691406 1693.441406 3206.828125 L 1679.964844 3213.652344 C 1679.71875 3213.777344 1679.496094 3213.9375 1679.304688 3214.136719 C 1679.109375 3214.335938 1678.953125 3214.558594 1678.835938 3214.808594 C 1678.71875 3215.0625 1678.644531 3215.324219 1678.613281 3215.597656 C 1678.582031 3215.875 1678.597656 3216.148438 1678.660156 3216.417969 C 1678.722656 3216.6875 1678.824219 3216.941406 1678.972656 3217.175781 C 1679.117188 3217.410156 1679.296875 3217.617188 1679.511719 3217.792969 C 1679.726562 3217.964844 1679.964844 3218.101562 1680.222656 3218.199219 C 1680.484375 3218.292969 1680.75 3218.34375 1681.027344 3218.351562 C 1722.605469 3220.300781 1733.863281 3244.238281 1756.472656 3270.035156 C 1785.105469 3302.660156 1850.53125 3326.59375 1864.628906 3366.046875 C 1864.824219 3366.554688 1865.097656 3367.019531 1865.453125 3367.4375 C 1865.804688 3367.855469 1866.21875 3368.203125 1866.6875 3368.484375 C 1867.160156 3368.761719 1867.660156 3368.957031 1868.199219 3369.066406 C 1868.734375 3369.175781 1869.273438 3369.195312 1869.816406 3369.125 C 1870.355469 3369.050781 1870.871094 3368.894531 1871.363281 3368.648438 C 1871.851562 3368.402344 1872.285156 3368.085938 1872.667969 3367.691406 C 1873.050781 3367.300781 1873.355469 3366.859375 1873.589844 3366.363281 C 1873.820312 3365.867188 1873.96875 3365.347656 1874.023438 3364.804688 C 1879.875 3286.730469 1880.527344 3208.15625 1875.976562 3129.078125 C 1875.855469 3127.1875 1875.414062 3124.910156 1874.644531 3122.25 C 1873.464844 3118.054688 1873.582031 3115.632812 1875 3114.980469 C 1875.675781 3114.671875 1876.363281 3114.40625 1877.070312 3114.179688 C 1877.777344 3113.953125 1878.496094 3113.769531 1879.222656 3113.632812 C 1879.953125 3113.492188 1880.6875 3113.398438 1881.425781 3113.347656 C 1882.167969 3113.296875 1882.910156 3113.292969 1883.648438 3113.332031 C 1884.390625 3113.371094 1885.125 3113.457031 1885.855469 3113.585938 C 1886.585938 3113.714844 1887.304688 3113.890625 1888.015625 3114.105469 C 1888.726562 3114.320312 1889.417969 3114.582031 1890.097656 3114.882812 C 1890.777344 3115.183594 1891.433594 3115.523438 1892.070312 3115.902344 C 1892.707031 3116.28125 1893.320312 3116.699219 1893.90625 3117.15625 C 1894.492188 3117.609375 1895.046875 3118.097656 1895.574219 3118.621094 C 1896.101562 3119.140625 1896.597656 3119.695312 1897.054688 3120.277344 C 1897.515625 3120.859375 1897.941406 3121.464844 1898.324219 3122.097656 C 1898.710938 3122.734375 1899.058594 3123.386719 1899.367188 3124.0625 C 1899.671875 3124.738281 1899.9375 3125.429688 1900.160156 3126.136719 C 1900.386719 3126.84375 1900.5625 3127.5625 1900.699219 3128.292969 C 1900.835938 3129.019531 1900.929688 3129.753906 1900.976562 3130.496094 C 1905.585938 3204.253906 1908.332031 3278.015625 1899.46875 3350.886719 C 1899.410156 3351.21875 1899.414062 3351.554688 1899.476562 3351.886719 C 1899.539062 3352.21875 1899.660156 3352.53125 1899.832031 3352.820312 C 1900.007812 3353.109375 1900.226562 3353.363281 1900.488281 3353.574219 C 1900.753906 3353.785156 1901.046875 3353.945312 1901.367188 3354.050781 C 1901.6875 3354.160156 1902.019531 3354.207031 1902.355469 3354.195312 C 1902.695312 3354.183594 1903.023438 3354.117188 1903.335938 3353.988281 C 1903.648438 3353.859375 1903.929688 3353.683594 1904.179688 3353.453125 C 1904.429688 3353.226562 1904.632812 3352.960938 1904.789062 3352.660156 C 1952.925781 3265.335938 1988.121094 3198.316406 2087.941406 3161.523438 C 2090.839844 3160.460938 2093.085938 3158.660156 2094.679688 3156.117188 C 2124.378906 3109.398438 2191.046875 3104.078125 2240.425781 3114.539062 C 2240.859375 3114.65625 2241.257812 3114.839844 2241.625 3115.097656 C 2241.996094 3115.351562 2242.3125 3115.660156 2242.574219 3116.023438 C 2242.835938 3116.386719 2243.027344 3116.785156 2243.152344 3117.214844 C 2243.277344 3117.644531 2243.328125 3118.082031 2243.300781 3118.53125 C 2243.277344 3118.976562 2243.175781 3119.410156 2243 3119.820312 C 2242.828125 3120.234375 2242.589844 3120.605469 2242.289062 3120.9375 C 2241.984375 3121.265625 2241.636719 3121.539062 2241.238281 3121.75 C 2240.84375 3121.957031 2240.425781 3122.097656 2239.980469 3122.164062 C 2176.683594 3127.660156 2160.816406 3195.832031 2095.832031 3172.871094 C 2094.46875 3172.386719 2093.050781 3172.167969 2091.582031 3172.210938 C 2090.113281 3172.257812 2088.695312 3172.566406 2087.324219 3173.136719 C 2026.625 3197.722656 1980.261719 3238.59375 1948.226562 3295.746094 C 1948.039062 3296.066406 1947.90625 3296.410156 1947.832031 3296.773438 C 1947.757812 3297.140625 1947.746094 3297.507812 1947.792969 3297.875 C 1947.839844 3298.246094 1947.945312 3298.597656 1948.109375 3298.933594 C 1948.273438 3299.269531 1948.488281 3299.566406 1948.75 3299.828125 C 1949.015625 3300.09375 1949.3125 3300.308594 1949.648438 3300.472656 C 1949.984375 3300.636719 1950.335938 3300.742188 1950.703125 3300.789062 C 1951.074219 3300.835938 1951.441406 3300.824219 1951.808594 3300.75 C 1952.171875 3300.675781 1952.515625 3300.542969 1952.835938 3300.355469 C 1997.164062 3275.441406 2023.847656 3296.011719 2067.199219 3305.585938 C 2067.4375 3305.640625 2067.664062 3305.726562 2067.878906 3305.839844 C 2068.09375 3305.953125 2068.289062 3306.09375 2068.46875 3306.257812 C 2068.648438 3306.421875 2068.804688 3306.605469 2068.9375 3306.8125 C 2069.070312 3307.015625 2069.175781 3307.234375 2069.25 3307.464844 C 2069.324219 3307.699219 2069.371094 3307.933594 2069.386719 3308.179688 C 2069.398438 3308.421875 2069.382812 3308.664062 2069.335938 3308.902344 C 2069.289062 3309.140625 2069.210938 3309.371094 2069.105469 3309.589844 C 2068.996094 3309.808594 2068.863281 3310.011719 2068.707031 3310.195312 C 2067.226562 3311.910156 2064.125 3312.058594 2059.398438 3310.636719 C 1984.839844 3288.476562 1947.25 3310.902344 1908.421875 3372.785156 C 1888.476562 3404.519531 1860.550781 3566.3125 1807.980469 3546.898438 C 1805.199219 3545.890625 1804.640625 3544.148438 1806.292969 3541.667969 C 1830.171875 3505.613281 1847.722656 3466.785156 1858.953125 3425.175781 C 1875.265625 3364.894531 1792.199219 3314.894531 1754.433594 3285.902344 C 1752.007812 3284.070312 1749.320312 3283.421875 1746.367188 3283.953125 C 1650.089844 3301.625 1568.824219 3275.855469 1502.570312 3206.648438 C 1502.375 3206.46875 1502.21875 3206.261719 1502.101562 3206.023438 C 1501.984375 3205.785156 1501.914062 3205.53125 1501.890625 3205.269531 C 1501.867188 3205.003906 1501.890625 3204.746094 1501.964844 3204.488281 C 1502.039062 3204.234375 1502.15625 3204 1502.320312 3203.789062 C 1502.480469 3203.578125 1502.671875 3203.40625 1502.898438 3203.265625 C 1503.125 3203.128906 1503.371094 3203.035156 1503.632812 3202.988281 C 1503.890625 3202.941406 1504.152344 3202.941406 1504.414062 3202.992188 C 1504.675781 3203.042969 1504.917969 3203.136719 1505.140625 3203.28125 C 1533.570312 3220.125 1564.507812 3227.925781 1597.960938 3226.683594 C 1598.273438 3226.679688 1598.574219 3226.625 1598.867188 3226.523438 C 1599.15625 3226.417969 1599.425781 3226.265625 1599.664062 3226.070312 C 1599.90625 3225.875 1600.109375 3225.644531 1600.273438 3225.378906 C 1600.4375 3225.117188 1600.550781 3224.832031 1600.617188 3224.527344 C 1600.683594 3224.226562 1600.699219 3223.917969 1600.664062 3223.609375 C 1600.625 3223.300781 1600.539062 3223.007812 1600.402344 3222.726562 C 1600.265625 3222.449219 1600.085938 3222.199219 1599.867188 3221.980469 C 1599.644531 3221.761719 1599.394531 3221.585938 1599.113281 3221.453125 C 1582.890625 3213.121094 1563.5625 3211.523438 1549.289062 3202.039062 C 1519.5625 3182.359375 1491.695312 3160.3125 1465.691406 3135.902344 C 1462.972656 3133.363281 1463.476562 3132.179688 1467.199219 3132.359375 L 1502.480469 3134.398438 C 1502.894531 3134.425781 1503.296875 3134.382812 1503.695312 3134.269531 C 1504.09375 3134.15625 1504.457031 3133.980469 1504.792969 3133.742188 C 1505.128906 3133.5 1505.414062 3133.210938 1505.648438 3132.871094 C 1505.882812 3132.53125 1506.050781 3132.160156 1506.15625 3131.761719 C 1506.261719 3131.363281 1506.296875 3130.957031 1506.257812 3130.546875 C 1506.222656 3130.136719 1506.117188 3129.742188 1505.945312 3129.367188 C 1505.769531 3128.992188 1505.539062 3128.660156 1505.25 3128.367188 C 1504.957031 3128.074219 1504.628906 3127.835938 1504.253906 3127.660156 C 1455.910156 3103.308594 1411.523438 3073.109375 1371.097656 3037.054688 C 1370.804688 3036.839844 1370.566406 3036.574219 1370.378906 3036.257812 C 1370.191406 3035.945312 1370.070312 3035.609375 1370.019531 3035.25 C 1369.964844 3034.886719 1369.980469 3034.53125 1370.070312 3034.175781 C 1370.160156 3033.820312 1370.3125 3033.5 1370.527344 3033.203125 C 1370.746094 3032.910156 1371.011719 3032.671875 1371.324219 3032.480469 C 1371.636719 3032.292969 1371.972656 3032.171875 1372.335938 3032.117188 C 1372.695312 3032.0625 1373.050781 3032.082031 1373.40625 3032.167969 C 1373.761719 3032.253906 1374.085938 3032.40625 1374.378906 3032.625 C 1442.289062 3072.960938 1516.753906 3011.171875 1580.761719 3057.800781 C 1581.015625 3058 1581.292969 3058.152344 1581.59375 3058.253906 C 1581.898438 3058.359375 1582.210938 3058.40625 1582.53125 3058.398438 C 1582.855469 3058.390625 1583.164062 3058.328125 1583.464844 3058.214844 C 1583.761719 3058.097656 1584.035156 3057.933594 1584.277344 3057.722656 C 1584.519531 3057.511719 1584.71875 3057.269531 1584.875 3056.988281 C 1585.03125 3056.707031 1585.132812 3056.410156 1585.183594 3056.09375 C 1585.238281 3055.773438 1585.234375 3055.457031 1585.171875 3055.144531 C 1585.113281 3054.828125 1585.003906 3054.53125 1584.839844 3054.253906 L 1582.535156 3049.910156 C 1582.21875 3049.34375 1582.082031 3048.734375 1582.128906 3048.082031 C 1582.171875 3047.433594 1582.394531 3046.847656 1582.785156 3046.328125 C 1583.179688 3045.808594 1583.683594 3045.441406 1584.296875 3045.222656 C 1584.914062 3045.003906 1585.535156 3044.972656 1586.171875 3045.125 C 1610.285156 3050.441406 1629.3125 3062.882812 1643.261719 3082.445312 C 1646.21875 3086.582031 1648.433594 3086.230469 1649.910156 3081.382812 C 1651.449219 3076.242188 1650.441406 3071.277344 1646.898438 3066.488281 C 1646.660156 3066.164062 1646.480469 3065.8125 1646.355469 3065.429688 C 1646.234375 3065.042969 1646.175781 3064.652344 1646.179688 3064.25 C 1646.183594 3063.847656 1646.25 3063.457031 1646.382812 3063.074219 C 1646.511719 3062.695312 1646.699219 3062.347656 1646.945312 3062.027344 C 1647.191406 3061.707031 1647.476562 3061.433594 1647.8125 3061.207031 C 1648.144531 3060.980469 1648.503906 3060.816406 1648.890625 3060.707031 C 1649.277344 3060.597656 1649.671875 3060.550781 1650.074219 3060.570312 C 1650.476562 3060.589844 1650.867188 3060.671875 1651.242188 3060.816406 C 1677.894531 3070.746094 1698.847656 3087.589844 1714.097656 3111.347656 C 1714.335938 3111.71875 1714.632812 3112.035156 1714.984375 3112.300781 C 1715.335938 3112.5625 1715.722656 3112.757812 1716.144531 3112.886719 C 1716.566406 3113.015625 1716.996094 3113.066406 1717.4375 3113.039062 C 1717.878906 3113.015625 1718.300781 3112.914062 1718.703125 3112.738281 C 1719.109375 3112.5625 1719.46875 3112.324219 1719.789062 3112.019531 C 1720.109375 3111.714844 1720.363281 3111.367188 1720.558594 3110.96875 C 1720.753906 3110.574219 1720.875 3110.160156 1720.921875 3109.71875 C 1720.96875 3109.28125 1720.941406 3108.851562 1720.832031 3108.421875 L 1715.425781 3087.144531 C 1715.332031 3086.871094 1715.328125 3086.59375 1715.414062 3086.320312 C 1715.5 3086.042969 1715.660156 3085.816406 1715.894531 3085.644531 C 1716.125 3085.472656 1716.386719 3085.386719 1716.675781 3085.382812 C 1716.96875 3085.382812 1717.230469 3085.46875 1717.464844 3085.636719 C 1766.933594 3117.019531 1761.523438 3184.132812 1759.574219 3234.398438 C 1759.570312 3234.757812 1759.507812 3235.113281 1759.390625 3235.453125 C 1759.273438 3235.796875 1759.101562 3236.113281 1758.882812 3236.398438 C 1758.660156 3236.6875 1758.402344 3236.933594 1758.101562 3237.136719 C 1757.804688 3237.339844 1757.480469 3237.492188 1757.132812 3237.59375 C 1756.78125 3237.691406 1756.429688 3237.734375 1756.066406 3237.71875 C 1755.703125 3237.703125 1755.351562 3237.632812 1755.015625 3237.503906 C 1754.675781 3237.375 1754.367188 3237.199219 1754.085938 3236.96875 C 1753.800781 3236.742188 1753.5625 3236.476562 1753.367188 3236.171875 L 1720.480469 3186.523438 C 1719.9375 3185.753906 1719.554688 3184.910156 1719.324219 3183.992188 C 1719.09375 3183.078125 1719.035156 3182.148438 1719.148438 3181.207031 C 1719.738281 3175.117188 1718.648438 3169.503906 1715.867188 3164.363281 C 1715.652344 3163.910156 1715.324219 3163.574219 1714.878906 3163.359375 C 1714.433594 3163.140625 1713.964844 3163.082031 1713.46875 3163.183594 C 1712.976562 3163.289062 1712.554688 3163.53125 1712.210938 3163.914062 C 1711.867188 3164.296875 1711.667969 3164.742188 1711.613281 3165.25 L 1709.664062 3193.351562 C 1709.191406 3199.734375 1706.972656 3200.414062 1703.015625 3195.390625 C 1671.011719 3155.054688 1599.910156 3118.441406 1552.660156 3099.824219 C 1552.429688 3099.765625 1552.195312 3099.75 1551.960938 3099.773438 C 1551.722656 3099.796875 1551.5 3099.859375 1551.285156 3099.960938 C 1551.070312 3100.0625 1550.878906 3100.199219 1550.714844 3100.367188 C 1550.546875 3100.535156 1550.414062 3100.726562 1550.3125 3100.941406 C 1550.214844 3101.160156 1550.152344 3101.382812 1550.132812 3101.621094 C 1550.113281 3101.855469 1550.132812 3102.089844 1550.191406 3102.320312 C 1550.25 3102.550781 1550.347656 3102.761719 1550.484375 3102.957031 C 1550.617188 3103.152344 1550.78125 3103.320312 1550.976562 3103.457031 Z M 1550.976562 3103.457031 " fill-opacity="1" fill-rule="nonzero" style="fill: rgb(0, 71, 11);"/>
  <path d="M 1796.097656 3286.257812 C 1796.097656 3286.355469 1796.066406 3286.441406 1795.996094 3286.507812 C 1795.925781 3286.578125 1795.84375 3286.613281 1795.746094 3286.613281 C 1795.1875 3286.695312 1794.621094 3286.699219 1794.042969 3286.621094 C 1793.464844 3286.546875 1792.878906 3286.390625 1792.285156 3286.152344 C 1791.695312 3285.917969 1791.097656 3285.601562 1790.496094 3285.210938 C 1789.894531 3284.816406 1789.289062 3284.347656 1788.683594 3283.800781 C 1788.078125 3283.253906 1787.476562 3282.632812 1786.871094 3281.941406 C 1786.269531 3281.246094 1785.671875 3280.480469 1785.078125 3279.644531 C 1784.484375 3278.8125 1783.894531 3277.910156 1783.316406 3276.941406 C 1782.734375 3275.972656 1782.164062 3274.941406 1781.605469 3273.847656 C 1781.042969 3272.757812 1780.496094 3271.609375 1779.960938 3270.402344 C 1779.425781 3269.195312 1778.90625 3267.941406 1778.398438 3266.632812 C 1777.894531 3265.324219 1777.40625 3263.972656 1776.9375 3262.578125 C 1776.464844 3261.179688 1776.015625 3259.746094 1775.585938 3258.273438 C 1775.15625 3256.800781 1774.746094 3255.300781 1774.359375 3253.765625 C 1773.972656 3252.234375 1773.609375 3250.675781 1773.269531 3249.097656 C 1772.929688 3247.515625 1772.617188 3245.921875 1772.328125 3244.308594 C 1772.039062 3242.695312 1771.777344 3241.078125 1771.542969 3239.449219 L 1771.1875 3236.4375 C 1770.953125 3234.8125 1770.746094 3233.1875 1770.566406 3231.558594 C 1770.390625 3229.933594 1770.238281 3228.316406 1770.117188 3226.707031 C 1769.996094 3225.097656 1769.90625 3223.503906 1769.84375 3221.921875 C 1769.78125 3220.34375 1769.746094 3218.789062 1769.742188 3217.257812 C 1769.738281 3215.722656 1769.765625 3214.222656 1769.820312 3212.75 C 1769.878906 3211.277344 1769.960938 3209.84375 1770.078125 3208.445312 C 1770.191406 3207.050781 1770.332031 3205.699219 1770.503906 3204.390625 C 1770.679688 3203.082031 1770.878906 3201.824219 1771.105469 3200.617188 C 1771.332031 3199.410156 1771.589844 3198.257812 1771.871094 3197.164062 C 1772.152344 3196.070312 1772.457031 3195.039062 1772.792969 3194.066406 C 1773.125 3193.097656 1773.480469 3192.191406 1773.859375 3191.351562 C 1774.242188 3190.515625 1774.644531 3189.746094 1775.066406 3189.046875 C 1775.492188 3188.351562 1775.9375 3187.726562 1776.402344 3187.175781 C 1776.867188 3186.625 1777.347656 3186.152344 1777.847656 3185.753906 C 1778.351562 3185.355469 1778.867188 3185.035156 1779.398438 3184.792969 C 1779.925781 3184.554688 1780.472656 3184.390625 1781.027344 3184.308594 C 1781.125 3184.308594 1781.210938 3184.34375 1781.277344 3184.410156 C 1781.347656 3184.480469 1781.382812 3184.566406 1781.382812 3184.664062 Z M 1796.097656 3286.257812 " fill-opacity="1" fill-rule="nonzero" style="fill: rgb(0, 71, 11);"/>
</svg>