<?xml version="1.0" encoding="utf-8"?>
<svg viewBox="220.6537 2462.7305 927.6108 1086.457" xmlns="http://www.w3.org/2000/svg">
  <path d="M 610.636719 2478.367188 C 614.066406 2480.082031 616.164062 2481.796875 616.933594 2483.511719 C 617.050781 2483.769531 617.148438 2484.03125 617.234375 2484.300781 C 617.320312 2484.574219 617.386719 2484.847656 617.4375 2485.125 C 617.488281 2485.402344 617.523438 2485.683594 617.542969 2485.964844 C 617.558594 2486.246094 617.558594 2486.53125 617.542969 2486.8125 C 617.527344 2487.09375 617.492188 2487.375 617.441406 2487.652344 C 617.390625 2487.929688 617.324219 2488.203125 617.238281 2488.472656 C 617.15625 2488.742188 617.054688 2489.003906 616.9375 2489.261719 C 616.824219 2489.515625 616.691406 2489.765625 616.546875 2490.003906 C 616.398438 2490.246094 616.238281 2490.476562 616.066406 2490.695312 C 615.890625 2490.917969 615.703125 2491.125 615.503906 2491.320312 C 615.304688 2491.519531 615.09375 2491.703125 614.871094 2491.871094 C 614.648438 2492.042969 614.417969 2492.199219 614.175781 2492.339844 C 613.933594 2492.480469 613.6875 2492.605469 613.429688 2492.71875 C 613.171875 2492.828125 612.910156 2492.921875 612.640625 2493 C 612.375 2493.078125 612.101562 2493.136719 611.824219 2493.183594 C 611.550781 2493.226562 611.273438 2493.253906 610.992188 2493.261719 C 552.75 2495.480469 446.984375 2529.609375 448.136719 2602.570312 C 448.199219 2606.589844 446.484375 2607.652344 442.996094 2605.761719 C 408.421875 2587.324219 446.011719 2533.246094 470.921875 2522.339844 C 473.640625 2521.160156 475.679688 2519.265625 477.039062 2516.667969 C 506.472656 2461.347656 551.003906 2448.582031 610.636719 2478.367188 Z M 610.636719 2478.367188 " fill-opacity="1" fill-rule="nonzero" style="fill: rgb(180, 0, 0);"/>
  <path d="M 758.066406 2550.53125 C 688.476562 2507.800781 606.292969 2522.519531 564.539062 2593.882812 C 564.324219 2594.273438 564.054688 2594.621094 563.730469 2594.925781 C 563.40625 2595.230469 563.039062 2595.476562 562.636719 2595.664062 C 562.234375 2595.847656 561.808594 2595.96875 561.367188 2596.019531 C 560.925781 2596.070312 560.484375 2596.054688 560.050781 2595.964844 C 559.613281 2595.875 559.203125 2595.71875 558.816406 2595.5 C 558.429688 2595.277344 558.085938 2595 557.789062 2594.671875 C 557.492188 2594.339844 557.25 2593.96875 557.070312 2593.5625 C 556.890625 2593.15625 556.78125 2592.730469 556.738281 2592.289062 C 546.097656 2505.230469 682.980469 2461.96875 741.667969 2518.171875 C 743.792969 2520.183594 746.304688 2521.21875 749.203125 2521.277344 C 814.097656 2522.605469 792.996094 2621.71875 770.125 2652.480469 C 769.867188 2652.820312 769.582031 2653.128906 769.261719 2653.410156 C 768.941406 2653.6875 768.59375 2653.929688 768.222656 2654.132812 C 767.851562 2654.339844 767.464844 2654.503906 767.058594 2654.625 C 766.65625 2654.746094 766.242188 2654.824219 765.824219 2654.859375 C 765.402344 2654.890625 764.984375 2654.878906 764.566406 2654.824219 C 764.152344 2654.765625 763.746094 2654.667969 763.351562 2654.523438 C 762.960938 2654.378906 762.585938 2654.195312 762.234375 2653.972656 C 761.878906 2653.746094 761.554688 2653.488281 761.257812 2653.191406 L 745.480469 2637.589844 C 742.582031 2634.75 742.140625 2631.589844 744.148438 2628.101562 C 756.738281 2606.292969 762.648438 2582.625 761.878906 2557.09375 C 761.867188 2556.4375 761.769531 2555.796875 761.589844 2555.164062 C 761.414062 2554.53125 761.15625 2553.929688 760.824219 2553.355469 C 760.492188 2552.78125 760.089844 2552.257812 759.625 2551.777344 C 759.15625 2551.300781 758.640625 2550.886719 758.066406 2550.53125 Z M 758.066406 2550.53125 " fill-opacity="1" fill-rule="nonzero" style="fill: rgb(180, 0, 0);"/>
  <path d="M 717.90625 2614.363281 C 682.269531 2549.46875 649.46875 2568.261719 591.222656 2586.257812 C 590.742188 2586.4375 590.246094 2586.527344 589.734375 2586.519531 C 589.222656 2586.511719 588.726562 2586.414062 588.253906 2586.21875 C 587.777344 2586.027344 587.355469 2585.753906 586.984375 2585.402344 C 586.609375 2585.046875 586.316406 2584.640625 586.097656 2584.175781 C 585.878906 2583.710938 585.753906 2583.222656 585.71875 2582.714844 C 585.6875 2582.203125 585.746094 2581.699219 585.902344 2581.210938 C 586.054688 2580.722656 586.292969 2580.28125 586.617188 2579.878906 C 586.9375 2579.480469 587.320312 2579.15625 587.765625 2578.902344 C 589.714844 2577.660156 592.140625 2576.773438 595.035156 2576.242188 C 597.871094 2575.710938 600.265625 2574.378906 602.214844 2572.25 C 632.179688 2540.042969 669.503906 2530.082031 714.183594 2542.375 C 746.453125 2551.152344 758.863281 2602.128906 728.457031 2617.640625 C 728.003906 2617.875 727.535156 2618.058594 727.046875 2618.199219 C 726.558594 2618.339844 726.0625 2618.429688 725.554688 2618.476562 C 725.046875 2618.519531 724.539062 2618.511719 724.035156 2618.457031 C 723.527344 2618.402344 723.03125 2618.296875 722.542969 2618.148438 C 722.054688 2617.996094 721.585938 2617.796875 721.132812 2617.554688 C 720.683594 2617.3125 720.257812 2617.03125 719.863281 2616.707031 C 719.464844 2616.378906 719.101562 2616.019531 718.773438 2615.628906 C 718.445312 2615.234375 718.15625 2614.8125 717.90625 2614.363281 Z M 717.90625 2614.363281 " fill-opacity="1" fill-rule="nonzero" style="fill: rgb(180, 0, 0);"/>
  <path d="M 568.527344 2682.625 C 568.871094 2682.789062 569.175781 2683.011719 569.4375 2683.285156 C 569.703125 2683.5625 569.910156 2683.875 570.0625 2684.222656 C 570.214844 2684.574219 570.300781 2684.9375 570.320312 2685.320312 C 570.34375 2685.699219 570.296875 2686.074219 570.183594 2686.4375 C 570.070312 2686.800781 569.898438 2687.136719 569.667969 2687.4375 C 569.4375 2687.742188 569.160156 2687.992188 568.835938 2688.195312 C 568.511719 2688.398438 568.164062 2688.539062 567.792969 2688.617188 C 567.417969 2688.699219 567.042969 2688.707031 566.667969 2688.652344 C 542.554688 2686.347656 519.976562 2690.632812 498.9375 2701.507812 C 498.492188 2701.734375 498.03125 2701.914062 497.554688 2702.054688 C 497.078125 2702.191406 496.59375 2702.285156 496.097656 2702.332031 C 495.601562 2702.378906 495.105469 2702.378906 494.613281 2702.332031 C 494.117188 2702.285156 493.628906 2702.191406 493.152344 2702.054688 C 492.675781 2701.914062 492.214844 2701.730469 491.773438 2701.507812 C 491.328125 2701.28125 490.910156 2701.015625 490.519531 2700.710938 C 490.125 2700.40625 489.765625 2700.066406 489.4375 2699.695312 C 489.109375 2699.320312 488.816406 2698.921875 488.5625 2698.492188 C 468.617188 2665.070312 449.378906 2620.125 467.640625 2582.269531 C 479.253906 2558.332031 502.75 2550.265625 528.015625 2553.722656 C 528.289062 2553.742188 528.558594 2553.789062 528.820312 2553.863281 C 529.085938 2553.9375 529.339844 2554.035156 529.585938 2554.160156 C 529.828125 2554.28125 530.0625 2554.429688 530.277344 2554.597656 C 530.492188 2554.765625 530.691406 2554.957031 530.871094 2555.164062 C 531.046875 2555.371094 531.207031 2555.59375 531.339844 2555.832031 C 531.476562 2556.070312 531.585938 2556.320312 531.671875 2556.582031 C 531.757812 2556.84375 531.816406 2557.109375 531.851562 2557.382812 C 531.882812 2557.652344 531.890625 2557.925781 531.871094 2558.199219 C 531.851562 2558.472656 531.804688 2558.742188 531.730469 2559.007812 C 531.65625 2559.273438 531.558594 2559.527344 531.433594 2559.769531 C 531.3125 2560.015625 531.164062 2560.246094 530.996094 2560.464844 C 530.828125 2560.679688 530.636719 2560.875 530.429688 2561.054688 C 530.222656 2561.234375 530 2561.390625 529.761719 2561.527344 C 529.523438 2561.660156 529.273438 2561.773438 529.011719 2561.859375 C 528.75 2561.945312 528.484375 2562.003906 528.210938 2562.035156 C 527.941406 2562.070312 527.667969 2562.078125 527.394531 2562.058594 L 511.703125 2562.058594 C 509.097656 2562.058594 506.707031 2562.765625 504.519531 2564.183594 C 442.820312 2603.988281 537.5 2665.515625 568.527344 2682.625 Z M 568.527344 2682.625 " fill-opacity="1" fill-rule="nonzero" style="fill: rgb(180, 0, 0);"/>
  <path d="M 810.371094 2588.917969 C 807.300781 2581.414062 809.722656 2572.902344 817.640625 2563.386719 C 819.53125 2561.199219 821.898438 2560.019531 824.734375 2559.839844 C 870.480469 2557.179688 879.699219 2655.320312 876.507812 2687.324219 C 876.496094 2687.78125 876.394531 2688.21875 876.210938 2688.640625 C 876.023438 2689.058594 875.765625 2689.425781 875.429688 2689.742188 C 875.097656 2690.058594 874.71875 2690.296875 874.289062 2690.460938 C 873.863281 2690.625 873.417969 2690.703125 872.960938 2690.691406 C 872.503906 2690.679688 872.0625 2690.582031 871.644531 2690.394531 C 871.226562 2690.207031 870.859375 2689.949219 870.542969 2689.617188 C 870.226562 2689.285156 869.984375 2688.902344 869.820312 2688.476562 C 869.65625 2688.046875 869.582031 2687.605469 869.59375 2687.144531 C 868.261719 2659.132812 854.789062 2617.019531 827.925781 2602.570312 C 817.761719 2597.132812 811.910156 2592.582031 810.371094 2588.917969 Z M 810.371094 2588.917969 " fill-opacity="1" fill-rule="nonzero" style="fill: rgb(180, 0, 0);"/>
  <path d="M 552.660156 2653.015625 C 521.691406 2634.457031 515.277344 2609.191406 533.421875 2577.214844 C 533.636719 2576.804688 533.917969 2576.445312 534.257812 2576.136719 C 534.601562 2575.828125 534.984375 2575.585938 535.410156 2575.410156 C 535.835938 2575.238281 536.28125 2575.140625 536.742188 2575.125 C 537.203125 2575.105469 537.65625 2575.167969 538.101562 2575.308594 C 538.542969 2575.449219 538.953125 2575.664062 539.328125 2575.945312 C 539.699219 2576.226562 540.019531 2576.566406 540.277344 2576.957031 C 540.539062 2577.347656 540.726562 2577.773438 540.84375 2578.226562 C 540.960938 2578.683594 541 2579.144531 540.957031 2579.609375 C 538.890625 2604.253906 544.53125 2626.921875 557.890625 2647.605469 C 558.125 2647.980469 558.289062 2648.382812 558.390625 2648.8125 C 558.488281 2649.242188 558.515625 2649.679688 558.46875 2650.121094 C 558.425781 2650.558594 558.308594 2650.980469 558.125 2651.378906 C 557.9375 2651.78125 557.695312 2652.136719 557.390625 2652.453125 C 557.085938 2652.765625 556.738281 2653.019531 556.351562 2653.214844 C 555.960938 2653.410156 555.550781 2653.53125 555.121094 2653.582031 C 554.691406 2653.632812 554.265625 2653.609375 553.84375 2653.511719 C 553.421875 2653.414062 553.027344 2653.25 552.660156 2653.015625 Z M 552.660156 2653.015625 " fill-opacity="1" fill-rule="nonzero" style="fill: rgb(180, 0, 0);"/>
  <path d="M 355.054688 2624.734375 C 366.578125 2661.703125 402.304688 2678.988281 436.4375 2698.402344 C 438.328125 2699.46875 438.5625 2700.828125 437.144531 2702.480469 C 436.4375 2703.25 435.609375 2703.753906 434.664062 2703.988281 C 432.949219 2704.34375 431.441406 2703.722656 430.140625 2702.128906 C 429.492188 2701.300781 428.960938 2700.382812 428.546875 2699.378906 C 427.835938 2697.605469 426.566406 2696.542969 424.734375 2696.1875 C 389.273438 2688.742188 303.191406 2645.125 334.042969 2600.53125 C 352.394531 2573.9375 395.125 2575.441406 421.71875 2588.296875 C 424.792969 2589.773438 425.207031 2591.785156 422.960938 2594.328125 C 418.171875 2599.734375 375.355469 2576.242188 355.761719 2616.402344 C 355.109375 2617.675781 354.71875 2619.039062 354.597656 2620.480469 C 354.472656 2621.921875 354.625 2623.339844 355.054688 2624.734375 Z M 355.054688 2624.734375 " fill-opacity="1" fill-rule="nonzero" style="fill: rgb(180, 0, 0);"/>
  <path d="M 629.433594 2628.988281 L 629.433594 2636.082031 C 629.433594 2641.339844 626.890625 2643.351562 621.808594 2642.109375 L 611.613281 2639.539062 C 606.648438 2638.296875 606.414062 2636.4375 610.902344 2633.953125 L 625.621094 2625.976562 C 626.613281 2625.453125 627.425781 2624.722656 628.054688 2623.78125 C 628.679688 2622.835938 629.054688 2621.796875 629.167969 2620.65625 C 629.460938 2617.582031 631.117188 2615.722656 634.132812 2615.070312 C 636.4375 2614.539062 639.09375 2615.1875 642.109375 2617.019531 C 659.308594 2627.246094 675.503906 2638.179688 690.691406 2649.824219 C 690.898438 2649.980469 691.113281 2650.121094 691.335938 2650.25 C 691.558594 2650.378906 691.789062 2650.492188 692.027344 2650.589844 C 692.269531 2650.691406 692.511719 2650.773438 692.761719 2650.839844 C 693.011719 2650.90625 693.265625 2650.957031 693.519531 2650.988281 C 693.777344 2651.023438 694.03125 2651.039062 694.292969 2651.039062 C 694.550781 2651.039062 694.804688 2651.023438 695.0625 2650.992188 C 695.320312 2650.957031 695.570312 2650.90625 695.820312 2650.839844 C 696.070312 2650.773438 696.316406 2650.691406 696.554688 2650.59375 C 696.792969 2650.496094 697.023438 2650.382812 697.246094 2650.253906 C 697.472656 2650.125 697.6875 2649.984375 697.890625 2649.828125 C 698.097656 2649.671875 698.292969 2649.5 698.476562 2649.320312 C 698.660156 2649.136719 698.828125 2648.945312 698.988281 2648.742188 C 699.144531 2648.535156 699.289062 2648.324219 699.421875 2648.101562 C 699.550781 2647.878906 699.667969 2647.648438 699.765625 2647.410156 C 699.867188 2647.171875 699.953125 2646.929688 700.019531 2646.679688 C 700.089844 2646.429688 700.140625 2646.175781 700.175781 2645.921875 C 700.796875 2641.753906 698.757812 2635.992188 695.480469 2632.710938 C 677.75 2614.714844 669.238281 2595.566406 639.894531 2597.519531 C 639.507812 2597.554688 639.128906 2597.53125 638.757812 2597.445312 C 638.382812 2597.363281 638.03125 2597.21875 637.703125 2597.023438 C 637.371094 2596.824219 637.082031 2596.578125 636.832031 2596.28125 C 636.582031 2595.988281 636.382812 2595.664062 636.234375 2595.304688 C 636.089844 2594.945312 636 2594.570312 635.96875 2594.179688 C 635.9375 2593.789062 635.96875 2593.40625 636.058594 2593.023438 C 636.148438 2592.640625 636.292969 2592.28125 636.492188 2591.941406 C 636.695312 2591.605469 636.941406 2591.304688 637.234375 2591.046875 C 669.414062 2562.855469 694.238281 2598.136719 697.25 2628.636719 C 697.25 2629.019531 697.289062 2629.398438 697.363281 2629.777344 C 697.4375 2630.152344 697.550781 2630.519531 697.695312 2630.875 C 697.84375 2631.226562 698.023438 2631.566406 698.238281 2631.886719 C 698.453125 2632.203125 698.695312 2632.5 698.964844 2632.773438 C 699.238281 2633.042969 699.53125 2633.285156 699.851562 2633.5 C 700.171875 2633.714844 700.507812 2633.894531 700.863281 2634.039062 C 701.21875 2634.1875 701.585938 2634.296875 701.960938 2634.375 C 702.339844 2634.449219 702.71875 2634.484375 703.101562 2634.484375 C 703.488281 2634.484375 703.867188 2634.449219 704.246094 2634.375 C 704.621094 2634.296875 704.988281 2634.1875 705.339844 2634.039062 C 705.695312 2633.894531 706.035156 2633.714844 706.351562 2633.5 C 706.671875 2633.285156 706.96875 2633.042969 707.238281 2632.773438 C 707.511719 2632.5 707.753906 2632.203125 707.96875 2631.886719 C 708.179688 2631.566406 708.363281 2631.226562 708.507812 2630.875 C 708.65625 2630.519531 708.765625 2630.152344 708.839844 2629.777344 C 708.917969 2629.398438 708.953125 2629.019531 708.953125 2628.636719 L 709.664062 2622.164062 C 710.609375 2613.414062 713.296875 2612.824219 717.730469 2620.390625 L 738.5625 2655.585938 C 738.765625 2655.917969 738.9375 2656.269531 739.078125 2656.632812 C 739.214844 2656.996094 739.320312 2657.371094 739.390625 2657.757812 C 739.464844 2658.140625 739.5 2658.527344 739.5 2658.917969 C 739.503906 2659.308594 739.46875 2659.695312 739.402344 2660.082031 C 739.332031 2660.464844 739.230469 2660.839844 739.09375 2661.207031 C 738.957031 2661.570312 738.789062 2661.921875 738.585938 2662.257812 C 738.386719 2662.59375 738.15625 2662.90625 737.902344 2663.203125 C 737.644531 2663.496094 737.363281 2663.765625 737.058594 2664.007812 C 730.671875 2669.03125 730.261719 2672.992188 735.816406 2675.886719 C 736.261719 2676.109375 736.683594 2676.375 737.078125 2676.683594 C 737.472656 2676.988281 737.835938 2677.328125 738.164062 2677.703125 C 738.492188 2678.078125 738.785156 2678.480469 739.035156 2678.914062 C 739.289062 2679.34375 739.496094 2679.796875 739.664062 2680.265625 C 739.828125 2680.738281 739.949219 2681.21875 740.019531 2681.714844 C 740.09375 2682.207031 740.117188 2682.707031 740.097656 2683.203125 C 740.074219 2683.703125 740.003906 2684.195312 739.886719 2684.679688 C 739.769531 2685.167969 739.609375 2685.636719 739.402344 2686.089844 C 739.191406 2686.546875 738.945312 2686.976562 738.65625 2687.382812 C 738.363281 2687.789062 738.039062 2688.164062 737.675781 2688.507812 C 737.316406 2688.851562 736.921875 2689.160156 736.5 2689.425781 C 736.082031 2689.695312 735.636719 2689.921875 735.175781 2690.105469 C 734.710938 2690.289062 734.230469 2690.429688 733.742188 2690.519531 C 733.25 2690.613281 732.753906 2690.65625 732.253906 2690.652344 C 731.757812 2690.648438 731.261719 2690.601562 730.773438 2690.5 C 730.28125 2690.402344 729.804688 2690.261719 729.34375 2690.070312 C 694.859375 2676.507812 649.644531 2664.894531 636.613281 2627.75 C 636.457031 2627.351562 636.234375 2626.992188 635.953125 2626.671875 C 635.671875 2626.347656 635.347656 2626.085938 634.972656 2625.875 C 634.601562 2625.667969 634.203125 2625.527344 633.78125 2625.453125 C 633.363281 2625.382812 632.941406 2625.382812 632.519531 2625.457031 C 632.097656 2625.527344 631.703125 2625.667969 631.328125 2625.878906 C 630.957031 2626.085938 630.628906 2626.351562 630.347656 2626.675781 C 630.066406 2626.996094 629.847656 2627.355469 629.691406 2627.753906 C 629.535156 2628.148438 629.449219 2628.5625 629.433594 2628.988281 Z M 629.433594 2628.988281 " fill-opacity="1" fill-rule="nonzero" style="fill: rgb(180, 0, 0);"/>
  <path d="M 587.765625 2630.761719 L 589.894531 2635.285156 C 590.136719 2635.847656 590.203125 2636.433594 590.09375 2637.042969 C 589.988281 2637.648438 589.722656 2638.171875 589.300781 2638.613281 C 588.882812 2639.050781 588.378906 2639.332031 587.792969 2639.453125 C 587.203125 2639.574219 586.632812 2639.511719 586.082031 2639.273438 C 578.28125 2636.082031 575.945312 2629.519531 579.078125 2619.59375 C 583.332031 2606 591.015625 2596.484375 602.128906 2591.046875 C 605.082031 2589.628906 607.859375 2589.863281 610.460938 2591.753906 L 622.25 2600.175781 C 626.210938 2603.074219 626.003906 2605.613281 621.632812 2607.800781 L 590.25 2623.582031 C 589.9375 2623.742188 589.644531 2623.929688 589.367188 2624.148438 C 589.089844 2624.363281 588.839844 2624.605469 588.609375 2624.867188 C 588.378906 2625.132812 588.175781 2625.417969 588 2625.722656 C 587.824219 2626.023438 587.679688 2626.34375 587.566406 2626.675781 C 587.453125 2627.003906 587.371094 2627.34375 587.320312 2627.691406 C 587.269531 2628.039062 587.253906 2628.386719 587.273438 2628.738281 C 587.289062 2629.085938 587.339844 2629.433594 587.421875 2629.773438 C 587.503906 2630.113281 587.621094 2630.445312 587.765625 2630.761719 Z M 587.765625 2630.761719 " fill-opacity="1" fill-rule="nonzero" style="fill: rgb(180, 0, 0);"/>
  <path d="M 373.9375 2638.121094 C 373.355469 2637.714844 372.804688 2637.277344 372.277344 2636.808594 C 371.753906 2636.335938 371.257812 2635.835938 370.796875 2635.300781 C 370.332031 2634.769531 369.902344 2634.210938 369.507812 2633.625 C 369.113281 2633.039062 368.757812 2632.433594 368.4375 2631.804688 C 368.117188 2631.171875 367.835938 2630.527344 367.597656 2629.863281 C 367.355469 2629.199219 367.15625 2628.523438 367 2627.835938 C 366.84375 2627.148438 366.730469 2626.453125 366.65625 2625.75 C 366.585938 2625.046875 366.558594 2624.34375 366.574219 2623.636719 C 366.589844 2622.929688 366.648438 2622.230469 366.75 2621.53125 C 366.851562 2620.832031 366.996094 2620.140625 367.183594 2619.460938 C 367.367188 2618.78125 367.597656 2618.113281 367.867188 2617.460938 C 368.132812 2616.808594 368.441406 2616.175781 368.789062 2615.558594 C 369.136719 2614.945312 369.519531 2614.351562 369.9375 2613.785156 C 370.359375 2613.21875 370.8125 2612.679688 371.296875 2612.167969 C 371.785156 2611.652344 372.300781 2611.171875 372.84375 2610.726562 C 373.390625 2610.277344 373.960938 2609.863281 374.558594 2609.484375 C 389.804688 2599.792969 405.527344 2599.46875 421.71875 2608.511719 C 422.667969 2609.042969 423.40625 2609.8125 423.9375 2610.816406 L 470.65625 2701.242188 C 470.855469 2701.601562 470.917969 2701.984375 470.847656 2702.390625 C 470.777344 2702.796875 470.589844 2703.136719 470.285156 2703.414062 C 469.976562 2703.6875 469.617188 2703.835938 469.207031 2703.863281 C 468.796875 2703.886719 468.421875 2703.78125 468.085938 2703.546875 Z M 373.9375 2638.121094 " fill-opacity="1" fill-rule="nonzero" style="fill: rgb(180, 0, 0);"/>
  <path d="M 928.367188 2613.121094 C 931.265625 2608.804688 933.15625 2609.191406 934.042969 2614.273438 C 940.601562 2649.644531 961.613281 2703.722656 952.835938 2737.855469 C 941.074219 2783.246094 908.570312 2803.339844 855.320312 2798.136719 C 852.128906 2797.84375 851.183594 2796.21875 852.480469 2793.261719 C 862.175781 2770.507812 868.027344 2746.777344 870.035156 2722.074219 C 870.273438 2719.058594 871.425781 2716.429688 873.492188 2714.183594 C 899.558594 2685.550781 905.40625 2647.519531 928.367188 2613.121094 Z M 928.367188 2613.121094 " fill-opacity="1" fill-rule="nonzero" style="fill: rgb(180, 0, 0);"/>
  <path d="M 693.707031 2892.199219 C 637.058594 2906.292969 596.097656 2856.382812 617.289062 2802.394531 C 653.015625 2711.257812 771.808594 2715.515625 806.207031 2615.867188 C 806.351562 2615.457031 806.542969 2615.066406 806.785156 2614.695312 C 807.023438 2614.328125 807.300781 2613.996094 807.621094 2613.695312 C 807.941406 2613.394531 808.289062 2613.136719 808.667969 2612.921875 C 809.050781 2612.707031 809.449219 2612.539062 809.867188 2612.421875 C 810.285156 2612.304688 810.714844 2612.238281 811.144531 2612.226562 C 811.578125 2612.210938 812.007812 2612.25 812.429688 2612.34375 C 812.851562 2612.433594 813.257812 2612.578125 813.644531 2612.769531 C 814.03125 2612.960938 814.386719 2613.195312 814.714844 2613.476562 C 853.457031 2646.1875 854.519531 2702.394531 841.3125 2747.339844 C 818.261719 2825.234375 769.058594 2873.523438 693.707031 2892.199219 Z M 693.707031 2892.199219 " fill-opacity="1" fill-rule="nonzero" style="fill: rgb(180, 0, 0);"/>
  <path d="M 566.132812 2668.085938 C 565.574219 2667.789062 565.0625 2667.425781 564.597656 2666.996094 C 564.132812 2666.5625 563.734375 2666.078125 563.402344 2665.539062 C 563.070312 2665 562.8125 2664.425781 562.632812 2663.820312 C 562.453125 2663.210938 562.355469 2662.589844 562.339844 2661.957031 C 562.328125 2661.324219 562.398438 2660.699219 562.550781 2660.085938 C 562.707031 2659.472656 562.9375 2658.886719 563.246094 2658.335938 C 563.558594 2657.78125 563.933594 2657.28125 564.378906 2656.828125 C 564.824219 2656.378906 565.320312 2655.992188 565.867188 2655.671875 C 598.136719 2636.878906 667.90625 2674.46875 694.679688 2696.363281 C 694.964844 2696.59375 695.222656 2696.847656 695.445312 2697.136719 C 695.671875 2697.421875 695.863281 2697.730469 696.015625 2698.0625 C 696.167969 2698.394531 696.285156 2698.738281 696.359375 2699.097656 C 696.433594 2699.457031 696.464844 2699.820312 696.457031 2700.1875 C 696.449219 2700.554688 696.398438 2700.917969 696.308594 2701.273438 C 696.214844 2701.632812 696.085938 2701.976562 695.917969 2702.304688 C 695.746094 2702.636719 695.542969 2702.941406 695.304688 2703.226562 C 695.066406 2703.511719 694.800781 2703.765625 694.503906 2703.988281 C 661.703125 2728.101562 598.9375 2685.195312 566.132812 2668.085938 Z M 566.132812 2668.085938 " fill-opacity="1" fill-rule="nonzero" style="fill: rgb(180, 0, 0);"/>
  <path d="M 350.976562 2758.6875 C 344.945312 2732.800781 316.132812 2721.898438 305.761719 2693.171875 C 305.640625 2692.835938 305.539062 2692.492188 305.460938 2692.144531 C 305.382812 2691.792969 305.324219 2691.441406 305.289062 2691.082031 C 305.253906 2690.726562 305.238281 2690.367188 305.246094 2690.007812 C 305.253906 2689.652344 305.285156 2689.292969 305.335938 2688.9375 C 305.386719 2688.585938 305.460938 2688.234375 305.554688 2687.890625 C 305.652344 2687.542969 305.765625 2687.207031 305.902344 2686.875 C 306.039062 2686.542969 306.195312 2686.222656 306.371094 2685.910156 C 306.546875 2685.601562 306.738281 2685.300781 306.953125 2685.015625 C 307.164062 2684.726562 307.394531 2684.457031 307.640625 2684.199219 C 307.886719 2683.9375 308.144531 2683.699219 308.421875 2683.472656 C 308.699219 2683.246094 308.984375 2683.039062 309.285156 2682.851562 C 309.589844 2682.660156 309.898438 2682.492188 310.222656 2682.339844 C 310.542969 2682.191406 310.875 2682.0625 311.210938 2681.953125 C 311.550781 2681.84375 311.894531 2681.757812 312.242188 2681.691406 C 312.59375 2681.625 312.945312 2681.582031 313.296875 2681.558594 C 313.652344 2681.539062 314.007812 2681.539062 314.363281 2681.558594 C 354.964844 2684.042969 393.585938 2694.058594 430.230469 2711.613281 C 432.890625 2712.855469 434.605469 2714.894531 435.371094 2717.730469 C 453.753906 2783.15625 491.695312 2833.363281 549.203125 2868.351562 C 553.8125 2871.128906 553.457031 2872.84375 548.136719 2873.492188 C 520.390625 2876.949219 477.660156 2881.027344 459.574219 2854.964844 C 457.859375 2852.542969 455.671875 2850.648438 453.015625 2849.289062 C 399.289062 2822.519531 366.933594 2827.128906 350.976562 2758.6875 Z M 350.976562 2758.6875 " fill-opacity="1" fill-rule="nonzero" style="fill: rgb(180, 0, 0);"/>
  <path d="M 591.3125 2869.503906 C 525 2854.785156 481.472656 2783.597656 459.484375 2724.113281 C 458.246094 2720.804688 459.398438 2718.882812 462.941406 2718.351562 C 526.683594 2709.75 583.066406 2683.6875 643.085938 2723.671875 C 643.492188 2723.949219 643.859375 2724.273438 644.1875 2724.640625 C 644.519531 2725.007812 644.800781 2725.40625 645.039062 2725.839844 C 645.273438 2726.273438 645.453125 2726.726562 645.582031 2727.203125 C 645.710938 2727.675781 645.78125 2728.15625 645.792969 2728.648438 C 645.808594 2729.136719 645.761719 2729.621094 645.660156 2730.097656 C 645.558594 2730.574219 645.398438 2731.035156 645.1875 2731.472656 C 644.972656 2731.910156 644.714844 2732.316406 644.402344 2732.691406 C 644.09375 2733.066406 643.742188 2733.398438 643.351562 2733.6875 C 599.320312 2766.3125 583.332031 2810.226562 595.390625 2865.425781 C 596.160156 2868.914062 594.800781 2870.273438 591.3125 2869.503906 Z M 591.3125 2869.503906 " fill-opacity="1" fill-rule="nonzero" style="fill: rgb(180, 0, 0);"/>
  <path d="M 253.191406 2843.351562 C 253.738281 2843.433594 254.285156 2843.492188 254.835938 2843.523438 C 255.386719 2843.554688 255.9375 2843.554688 256.488281 2843.53125 C 257.039062 2843.507812 257.585938 2843.453125 258.132812 2843.375 C 258.679688 2843.296875 259.21875 2843.191406 259.753906 2843.058594 C 260.289062 2842.925781 260.816406 2842.765625 261.335938 2842.582031 C 261.855469 2842.394531 262.363281 2842.1875 262.863281 2841.949219 C 263.363281 2841.714844 263.847656 2841.453125 264.320312 2841.171875 C 264.792969 2840.886719 265.25 2840.582031 265.691406 2840.25 C 266.136719 2839.921875 266.558594 2839.570312 266.96875 2839.199219 C 267.375 2838.828125 267.765625 2838.4375 268.132812 2838.027344 C 268.5 2837.617188 268.847656 2837.191406 269.175781 2836.746094 C 269.5 2836.300781 269.804688 2835.84375 270.085938 2835.367188 C 270.367188 2834.894531 270.625 2834.40625 270.855469 2833.90625 C 271.089844 2833.40625 271.296875 2832.894531 271.476562 2832.375 C 271.660156 2831.855469 271.816406 2831.328125 271.945312 2830.789062 C 272.074219 2830.253906 272.175781 2829.710938 272.25 2829.167969 L 277.925781 2788.652344 C 278.019531 2787.941406 278.214844 2787.257812 278.503906 2786.601562 C 278.792969 2785.949219 279.171875 2785.347656 279.632812 2784.796875 C 280.09375 2784.25 280.625 2783.777344 281.222656 2783.382812 C 281.820312 2782.984375 282.460938 2782.679688 283.144531 2782.464844 C 283.828125 2782.25 284.527344 2782.136719 285.246094 2782.121094 C 285.960938 2782.109375 286.664062 2782.195312 287.359375 2782.382812 C 288.050781 2782.570312 288.703125 2782.847656 289.3125 2783.222656 C 289.925781 2783.59375 290.472656 2784.046875 290.957031 2784.574219 C 306.972656 2802.007812 323.730469 2818.085938 341.222656 2832.800781 C 361.789062 2850 388.917969 2856.738281 413.121094 2870.035156 C 413.765625 2870.402344 414.347656 2870.851562 414.859375 2871.386719 C 415.375 2871.925781 415.800781 2872.523438 416.140625 2873.183594 C 416.480469 2873.84375 416.71875 2874.539062 416.855469 2875.269531 C 416.988281 2875.996094 417.015625 2876.726562 416.9375 2877.460938 C 416.855469 2878.195312 416.671875 2878.902344 416.382812 2879.578125 C 416.09375 2880.257812 415.710938 2880.875 415.238281 2881.4375 C 414.761719 2882 414.21875 2882.480469 413.601562 2882.878906 C 412.984375 2883.277344 412.320312 2883.574219 411.613281 2883.777344 C 358.007812 2899.144531 309.042969 2892.347656 264.714844 2863.386719 C 249.824219 2853.722656 238.742188 2849.46875 222.605469 2844.148438 C 222.269531 2844.050781 221.960938 2843.894531 221.6875 2843.679688 C 221.410156 2843.464844 221.1875 2843.210938 221.011719 2842.910156 C 220.839844 2842.605469 220.726562 2842.285156 220.679688 2841.9375 C 220.632812 2841.59375 220.648438 2841.25 220.734375 2840.90625 C 220.816406 2840.5625 220.960938 2840.246094 221.167969 2839.953125 C 221.371094 2839.660156 221.625 2839.414062 221.921875 2839.214844 C 222.21875 2839.011719 222.539062 2838.871094 222.886719 2838.789062 C 223.234375 2838.707031 223.585938 2838.691406 223.9375 2838.742188 Z M 253.191406 2843.351562 " fill-opacity="1" fill-rule="nonzero" style="fill: rgb(180, 0, 0);"/>
  <path d="M 692.375 2913.121094 C 766.3125 2901.0625 786.347656 2864.628906 839.449219 2816.132812 C 841.398438 2814.421875 843.644531 2813.386719 846.1875 2813.03125 C 878.871094 2809.132812 911.554688 2809.277344 944.238281 2813.476562 C 948.433594 2814.007812 949.054688 2815.78125 946.097656 2818.792969 C 921.71875 2843.882812 900.265625 2851.417969 867.199219 2859.574219 C 822.960938 2870.480469 817.289062 2907.003906 807.710938 2945.035156 C 807.554688 2945.664062 807.289062 2946.246094 806.914062 2946.777344 C 806.539062 2947.308594 806.082031 2947.753906 805.539062 2948.117188 C 805 2948.476562 804.410156 2948.726562 803.777344 2948.867188 C 803.144531 2949.011719 802.503906 2949.03125 801.863281 2948.9375 C 763.859375 2943.027344 727.1875 2932.566406 691.84375 2917.554688 C 686.996094 2915.484375 687.175781 2914.007812 692.375 2913.121094 Z M 692.375 2913.121094 " fill-opacity="1" fill-rule="nonzero" style="fill: rgb(180, 0, 0);"/>
  <path d="M 483.421875 2991.753906 C 483.34375 2991.472656 483.21875 2991.214844 483.042969 2990.980469 C 482.871094 2990.746094 482.664062 2990.546875 482.417969 2990.386719 C 482.171875 2990.230469 481.90625 2990.121094 481.621094 2990.058594 C 481.335938 2989.996094 481.046875 2989.988281 480.757812 2990.03125 C 480.46875 2990.074219 480.199219 2990.167969 479.945312 2990.3125 C 479.6875 2990.453125 479.46875 2990.636719 479.28125 2990.863281 C 479.09375 2991.085938 478.949219 2991.335938 478.855469 2991.613281 C 478.757812 2991.886719 478.714844 2992.171875 478.722656 2992.464844 L 478.722656 3043.527344 C 478.722656 3047.371094 476.832031 3048.996094 473.050781 3048.402344 C 415.25 3039.804688 381.558594 2999.824219 331.558594 2980.140625 C 283.246094 2961.171875 261.703125 2950.53125 230.851562 2919.238281 C 227.246094 2915.515625 227.894531 2914.449219 232.800781 2916.046875 C 268.144531 2927.511719 301.152344 2929.699219 331.828125 2922.605469 C 454.253906 2894.148438 545.566406 2865.160156 655.496094 2921.453125 C 669.265625 2928.488281 694.414062 2945.746094 730.941406 2973.226562 C 731.476562 2973.636719 731.945312 2974.113281 732.347656 2974.660156 C 732.746094 2975.207031 733.058594 2975.800781 733.289062 2976.4375 C 733.515625 2977.074219 733.648438 2977.730469 733.6875 2978.40625 C 733.726562 2979.082031 733.667969 2979.75 733.511719 2980.40625 C 722.871094 3021.542969 699.675781 3053.132812 663.917969 3075.175781 C 663.703125 3075.304688 663.476562 3075.402344 663.238281 3075.472656 C 662.996094 3075.542969 662.753906 3075.582031 662.503906 3075.59375 C 662.253906 3075.601562 662.007812 3075.582031 661.761719 3075.53125 C 661.519531 3075.476562 661.285156 3075.398438 661.0625 3075.289062 C 660.835938 3075.179688 660.628906 3075.042969 660.4375 3074.878906 C 660.25 3074.71875 660.082031 3074.539062 659.933594 3074.332031 C 659.789062 3074.128906 659.671875 3073.914062 659.582031 3073.679688 C 659.488281 3073.449219 659.429688 3073.207031 659.398438 3072.960938 L 652.039062 3009.929688 C 652.027344 3009.644531 651.988281 3009.363281 651.921875 3009.085938 C 651.855469 3008.808594 651.761719 3008.539062 651.640625 3008.28125 C 651.519531 3008.019531 651.375 3007.777344 651.207031 3007.546875 C 651.039062 3007.316406 650.851562 3007.101562 650.640625 3006.910156 C 650.429688 3006.714844 650.203125 3006.546875 649.960938 3006.394531 C 649.71875 3006.246094 649.460938 3006.125 649.195312 3006.027344 C 648.925781 3005.925781 648.652344 3005.855469 648.367188 3005.8125 C 648.085938 3005.765625 647.804688 3005.75 647.519531 3005.761719 C 647.234375 3005.773438 646.949219 3005.8125 646.671875 3005.878906 C 646.394531 3005.945312 646.128906 3006.039062 645.867188 3006.160156 C 645.609375 3006.28125 645.363281 3006.425781 645.132812 3006.59375 C 644.902344 3006.761719 644.691406 3006.949219 644.496094 3007.160156 C 644.304688 3007.371094 644.132812 3007.597656 643.984375 3007.839844 C 643.835938 3008.082031 643.710938 3008.339844 643.613281 3008.605469 C 643.515625 3008.875 643.445312 3009.148438 643.398438 3009.433594 C 643.355469 3009.714844 643.339844 3010 643.351562 3010.285156 C 642.019531 3055.941406 592.019531 3081.824219 557.980469 3103.632812 C 555.671875 3105.113281 553.339844 3105.082031 550.976562 3103.546875 C 537.5 3094.621094 528.042969 3082.476562 522.605469 3067.109375 C 521.367188 3063.621094 519.445312 3063.210938 516.84375 3065.867188 L 514.363281 3068.261719 C 511.347656 3071.277344 509.191406 3070.773438 507.890625 3066.753906 Z M 483.421875 2991.753906 " fill-opacity="1" fill-rule="nonzero" style="fill: rgb(180, 0, 0);"/>
  <path d="M 915.691406 3224.113281 C 953.632812 3227.75 973.492188 3219.414062 1005.851562 3202.925781 C 1006.089844 3202.792969 1006.339844 3202.710938 1006.609375 3202.667969 C 1006.878906 3202.625 1007.144531 3202.632812 1007.410156 3202.683594 C 1007.675781 3202.738281 1007.925781 3202.835938 1008.15625 3202.976562 C 1008.390625 3203.117188 1008.589844 3203.292969 1008.761719 3203.507812 C 1008.929688 3203.71875 1009.058594 3203.953125 1009.144531 3204.210938 C 1009.230469 3204.464844 1009.269531 3204.730469 1009.265625 3205 C 1009.257812 3205.273438 1009.203125 3205.535156 1009.105469 3205.789062 C 1009.007812 3206.039062 1008.867188 3206.269531 1008.6875 3206.472656 C 947.695312 3276.863281 855.585938 3300 764.714844 3281.914062 C 763.363281 3281.660156 762.011719 3281.695312 760.667969 3282.019531 C 759.324219 3282.34375 758.101562 3282.929688 757.003906 3283.777344 C 719.859375 3312.410156 638.210938 3358.15625 650.621094 3416.488281 C 660.078125 3461.050781 676.832031 3502.777344 700.886719 3541.667969 C 702.777344 3544.679688 702.007812 3546.691406 698.582031 3547.695312 C 685.636719 3551.417969 673.492188 3548.402344 666.046875 3536.082031 C 635.371094 3485.726562 622.074219 3421.71875 613.121094 3364.714844 C 606.292969 3321.363281 566.84375 3262.941406 522.519531 3250.710938 C 496.011719 3243.441406 468.351562 3254.433594 443.707031 3256.382812 C 438.269531 3256.855469 438.03125 3255.96875 442.996094 3253.722656 C 485.550781 3234.308594 528.457031 3224.023438 562.589844 3253.191406 C 562.882812 3253.433594 563.210938 3253.621094 563.570312 3253.75 C 563.933594 3253.882812 564.304688 3253.949219 564.691406 3253.953125 C 565.074219 3253.957031 565.449219 3253.894531 565.808594 3253.769531 C 566.171875 3253.644531 566.5 3253.464844 566.796875 3253.226562 C 567.09375 3252.988281 567.335938 3252.710938 567.53125 3252.386719 C 567.726562 3252.066406 567.855469 3251.71875 567.925781 3251.351562 C 567.996094 3250.984375 567.996094 3250.617188 567.933594 3250.246094 C 567.871094 3249.875 567.742188 3249.527344 567.554688 3249.203125 C 534.75 3190.21875 487.589844 3147.164062 426.0625 3120.035156 C 424.882812 3119.519531 423.664062 3119.199219 422.40625 3119.078125 C 421.148438 3118.957031 419.914062 3119.039062 418.707031 3119.324219 C 345.832031 3135.726562 342.109375 3070.210938 273.582031 3064.449219 C 273.089844 3064.417969 272.617188 3064.300781 272.167969 3064.09375 C 271.714844 3063.890625 271.316406 3063.613281 270.96875 3063.265625 C 270.617188 3062.914062 270.339844 3062.515625 270.136719 3062.066406 C 269.933594 3061.613281 269.816406 3061.144531 269.78125 3060.648438 C 269.75 3060.15625 269.804688 3059.675781 269.949219 3059.199219 C 270.089844 3058.726562 270.3125 3058.296875 270.613281 3057.902344 C 270.914062 3057.511719 271.273438 3057.183594 271.695312 3056.921875 C 272.113281 3056.660156 272.566406 3056.480469 273.050781 3056.382812 C 312.144531 3047.074219 399.644531 3052.304688 417.375 3099.644531 C 418.441406 3102.542969 420.390625 3104.609375 423.226562 3105.851562 C 510.460938 3143.851562 569.414062 3208.066406 600.089844 3298.492188 C 600.171875 3298.828125 600.3125 3299.136719 600.511719 3299.421875 C 600.710938 3299.703125 600.953125 3299.941406 601.242188 3300.132812 C 601.53125 3300.324219 601.84375 3300.453125 602.183594 3300.527344 C 602.519531 3300.597656 602.863281 3300.609375 603.203125 3300.550781 C 603.542969 3300.496094 603.863281 3300.378906 604.160156 3300.203125 C 604.457031 3300.027344 604.714844 3299.800781 604.925781 3299.527344 C 605.140625 3299.253906 605.292969 3298.953125 605.394531 3298.621094 C 605.492188 3298.289062 605.527344 3297.949219 605.496094 3297.605469 L 609.484375 3084.75 C 609.605469 3080.261719 611.730469 3077.15625 615.867188 3075.441406 L 629.609375 3069.769531 C 634.632812 3067.699219 636.996094 3069.386719 636.703125 3074.824219 C 631.382812 3164.363281 630.941406 3253.839844 635.371094 3343.261719 C 635.402344 3343.886719 635.515625 3344.496094 635.707031 3345.089844 C 635.902344 3345.683594 636.171875 3346.242188 636.515625 3346.765625 C 636.859375 3347.289062 637.261719 3347.757812 637.730469 3348.171875 C 638.199219 3348.582031 638.714844 3348.929688 639.277344 3349.203125 C 639.835938 3349.480469 640.425781 3349.675781 641.039062 3349.796875 C 641.652344 3349.914062 642.269531 3349.949219 642.894531 3349.902344 C 643.515625 3349.855469 644.121094 3349.730469 644.710938 3349.519531 C 645.300781 3349.308594 645.851562 3349.027344 646.367188 3348.671875 L 716.132812 3299.203125 C 718.558594 3297.488281 719.710938 3295.152344 719.59375 3292.199219 C 718.648438 3255.140625 724.761719 3219.324219 737.941406 3184.75 C 739.300781 3181.207031 740.335938 3181.292969 741.046875 3185.015625 C 747.546875 3220.300781 742.699219 3253.25 726.507812 3283.867188 C 726.246094 3284.339844 726.074219 3284.847656 725.992188 3285.382812 C 725.910156 3285.917969 725.921875 3286.453125 726.027344 3286.984375 C 726.132812 3287.519531 726.328125 3288.015625 726.609375 3288.480469 C 726.890625 3288.941406 727.246094 3289.34375 727.667969 3289.683594 C 728.09375 3290.023438 728.5625 3290.277344 729.074219 3290.453125 C 729.589844 3290.625 730.117188 3290.703125 730.660156 3290.691406 C 731.203125 3290.679688 731.726562 3290.574219 732.230469 3290.375 C 732.738281 3290.175781 733.191406 3289.898438 733.597656 3289.539062 L 752.660156 3273.316406 C 753.25 3272.84375 753.695312 3272.28125 753.988281 3271.632812 C 770.242188 3236.820312 797.371094 3217.699219 835.371094 3214.273438 C 838.976562 3213.917969 839.273438 3212.738281 836.257812 3210.726562 C 832.359375 3208.007812 828.839844 3207.003906 825.710938 3207.710938 C 824.960938 3207.894531 824.203125 3207.945312 823.441406 3207.867188 C 822.675781 3207.789062 821.949219 3207.582031 821.257812 3207.25 C 820.5625 3206.921875 819.945312 3206.480469 819.402344 3205.9375 C 818.859375 3205.390625 818.425781 3204.769531 818.09375 3204.070312 C 817.761719 3203.371094 817.554688 3202.636719 817.472656 3201.867188 C 817.394531 3201.097656 817.441406 3200.332031 817.617188 3199.574219 C 817.792969 3198.816406 818.089844 3198.109375 818.503906 3197.453125 C 818.917969 3196.796875 819.429688 3196.226562 820.035156 3195.746094 C 860.875 3163.652344 904.167969 3135.136719 949.910156 3110.195312 C 951.035156 3109.542969 951.359375 3108.628906 950.886719 3107.445312 C 950.589844 3106.679688 950.324219 3105.910156 950.089844 3105.140625 C 949.96875 3104.726562 949.703125 3104.582031 949.289062 3104.699219 C 896.808594 3126.625 848.816406 3155.792969 805.320312 3192.199219 C 804.945312 3192.511719 804.527344 3192.75 804.066406 3192.90625 C 803.601562 3193.0625 803.128906 3193.132812 802.640625 3193.113281 C 802.152344 3193.089844 801.683594 3192.984375 801.238281 3192.785156 C 800.789062 3192.589844 800.394531 3192.320312 800.046875 3191.972656 C 799.703125 3191.628906 799.429688 3191.230469 799.234375 3190.785156 C 799.039062 3190.335938 798.929688 3189.871094 798.910156 3189.382812 C 798.886719 3188.894531 798.957031 3188.417969 799.113281 3187.957031 C 799.273438 3187.492188 799.507812 3187.074219 799.824219 3186.703125 C 806.738281 3178.367188 808.480469 3168.972656 805.054688 3158.511719 C 804.460938 3156.738281 803.839844 3156.707031 803.191406 3158.421875 C 792.257812 3185.902344 777.542969 3211.257812 759.042969 3234.484375 C 757.09375 3236.96875 756.058594 3236.644531 755.941406 3233.511719 C 754.078125 3180.140625 750.175781 3117.996094 797.605469 3083.246094 C 797.859375 3083.0625 798.136719 3082.921875 798.433594 3082.832031 C 798.730469 3082.738281 799.039062 3082.695312 799.351562 3082.703125 C 799.664062 3082.710938 799.964844 3082.769531 800.257812 3082.878906 C 800.550781 3082.988281 800.820312 3083.140625 801.0625 3083.339844 C 801.304688 3083.535156 801.507812 3083.765625 801.675781 3084.03125 C 801.84375 3084.296875 801.960938 3084.578125 802.035156 3084.882812 C 802.105469 3085.1875 802.128906 3085.496094 802.097656 3085.808594 C 802.066406 3086.117188 801.988281 3086.417969 801.863281 3086.703125 L 792.90625 3106.027344 C 792.679688 3106.539062 792.550781 3107.078125 792.523438 3107.636719 C 792.496094 3108.199219 792.574219 3108.746094 792.757812 3109.277344 C 792.9375 3109.808594 793.210938 3110.289062 793.574219 3110.714844 C 793.9375 3111.140625 794.367188 3111.488281 794.863281 3111.753906 C 795.359375 3112.019531 795.886719 3112.183594 796.441406 3112.246094 C 797 3112.3125 797.550781 3112.269531 798.09375 3112.125 C 798.636719 3111.980469 799.132812 3111.742188 799.585938 3111.410156 C 800.035156 3111.074219 800.410156 3110.671875 800.710938 3110.195312 C 816.3125 3085.429688 838.210938 3068.234375 866.402344 3058.597656 C 866.992188 3058.394531 867.59375 3058.359375 868.203125 3058.492188 C 868.8125 3058.621094 869.347656 3058.902344 869.800781 3059.328125 C 870.257812 3059.757812 870.570312 3060.269531 870.738281 3060.871094 C 870.90625 3061.472656 870.910156 3062.074219 870.746094 3062.675781 L 866.402344 3078.457031 C 866.308594 3078.816406 866.269531 3079.179688 866.28125 3079.550781 C 866.296875 3079.921875 866.363281 3080.285156 866.480469 3080.636719 C 866.601562 3080.988281 866.769531 3081.3125 866.984375 3081.613281 C 867.199219 3081.914062 867.449219 3082.179688 867.742188 3082.402344 C 868.03125 3082.625 868.347656 3082.800781 868.6875 3082.929688 C 869.03125 3083.058594 869.382812 3083.128906 869.746094 3083.148438 C 870.109375 3083.167969 870.464844 3083.136719 870.816406 3083.046875 C 871.167969 3082.957031 871.5 3082.816406 871.808594 3082.625 C 876.121094 3079.964844 878.8125 3075.855469 879.875 3070.300781 C 880.042969 3069.269531 880.4375 3068.328125 881.0625 3067.46875 C 881.683594 3066.613281 882.472656 3065.933594 883.421875 3065.425781 L 930.320312 3040.515625 C 935.699219 3037.617188 937.46875 3039.09375 935.636719 3044.945312 L 932.890625 3053.632812 C 931.117188 3059.425781 932.625 3060.492188 937.410156 3056.824219 C 996.1875 3011.96875 1074.558594 3066.402344 1144.859375 3031.472656 C 1145.125 3031.363281 1145.402344 3031.304688 1145.6875 3031.296875 C 1145.976562 3031.285156 1146.253906 3031.324219 1146.527344 3031.410156 C 1146.800781 3031.496094 1147.054688 3031.625 1147.28125 3031.800781 C 1147.511719 3031.972656 1147.703125 3032.179688 1147.859375 3032.421875 C 1148.015625 3032.660156 1148.128906 3032.921875 1148.195312 3033.199219 C 1148.261719 3033.480469 1148.28125 3033.761719 1148.25 3034.046875 C 1148.21875 3034.332031 1148.140625 3034.601562 1148.011719 3034.863281 C 1147.886719 3035.121094 1147.722656 3035.347656 1147.519531 3035.550781 C 1105.378906 3072.664062 1059.101562 3103.398438 1008.6875 3127.75 C 1008.347656 3127.917969 1008.050781 3128.140625 1007.789062 3128.414062 C 1007.527344 3128.6875 1007.316406 3128.996094 1007.164062 3129.339844 C 1007.007812 3129.6875 1006.914062 3130.046875 1006.886719 3130.425781 C 1006.855469 3130.804688 1006.890625 3131.175781 1006.992188 3131.539062 C 1007.089844 3131.90625 1007.246094 3132.242188 1007.464844 3132.554688 C 1007.679688 3132.867188 1007.941406 3133.128906 1008.25 3133.351562 C 1008.558594 3133.570312 1008.894531 3133.730469 1009.257812 3133.835938 C 1009.625 3133.941406 1009.996094 3133.980469 1010.371094 3133.953125 L 1045.480469 3131.027344 C 1049.851562 3130.671875 1050.5625 3132.121094 1047.605469 3135.371094 C 1010.785156 3175.503906 966.667969 3203.722656 915.25 3220.035156 C 908.6875 3222.105469 908.835938 3223.464844 915.691406 3224.113281 Z M 915.691406 3224.113281 " fill-opacity="1" fill-rule="nonzero" style="fill: rgb(0, 71, 11);"/>
</svg>