<?xml version="1.0" encoding="utf-8"?>
<svg viewBox="253.4926 173.5214 780.9058 1100.8575" xmlns="http://www.w3.org/2000/svg">
  <path d="M 808.066406 373.757812 C 838.121094 326.683594 817.199219 284.042969 770.035156 262.058594 C 767.257812 260.753906 764.984375 258.835938 763.210938 256.292969 C 731 208.71875 685.785156 194.710938 627.570312 214.273438 C 608.15625 220.832031 593.617188 228.988281 572.429688 230.941406 C 544.945312 233.480469 520.359375 241.519531 498.671875 255.054688 C 498.121094 255.375 497.53125 255.597656 496.90625 255.71875 C 496.28125 255.839844 495.652344 255.859375 495.019531 255.769531 C 494.390625 255.679688 493.789062 255.488281 493.222656 255.199219 C 492.65625 254.90625 492.152344 254.53125 491.710938 254.070312 C 491.269531 253.609375 490.917969 253.089844 490.652344 252.511719 C 490.386719 251.929688 490.226562 251.324219 490.164062 250.6875 C 490.105469 250.054688 490.148438 249.425781 490.300781 248.808594 C 490.453125 248.1875 490.699219 247.609375 491.046875 247.074219 C 535.785156 182.652344 594.738281 160.550781 667.90625 180.761719 C 699.46875 189.449219 752.660156 210.726562 776.328125 224.023438 C 845.035156 262.589844 864.804688 356.117188 802.835938 413.742188 C 756.738281 456.648438 673.226562 477.039062 615.957031 441.488281 C 559.308594 406.382812 499.910156 331.027344 524.558594 260.019531 C 525.503906 257.300781 527.335938 255.4375 530.054688 254.433594 L 560.636719 243.527344 C 561.003906 243.40625 561.378906 243.339844 561.765625 243.332031 C 562.148438 243.324219 562.527344 243.375 562.898438 243.480469 C 563.269531 243.589844 563.613281 243.746094 563.9375 243.960938 C 564.257812 244.171875 564.542969 244.425781 564.789062 244.722656 C 565.03125 245.019531 565.226562 245.347656 565.371094 245.707031 C 565.519531 246.0625 565.609375 246.433594 565.640625 246.816406 C 565.675781 247.199219 565.648438 247.582031 565.566406 247.957031 C 565.484375 248.332031 565.351562 248.691406 565.160156 249.023438 C 480.40625 390.957031 747.960938 467.90625 808.066406 373.757812 Z M 808.066406 373.757812 " fill-opacity="1" fill-rule="nonzero" style="fill: rgb(180, 0, 0);"/>
  <path d="M 772.695312 203.367188 C 771.453125 202.777344 771.484375 202.277344 772.785156 201.863281 C 868.617188 170.65625 931.117188 282.09375 857.535156 349.113281 C 857.355469 349.277344 857.15625 349.304688 856.941406 349.195312 C 856.722656 349.085938 856.625 348.910156 856.648438 348.671875 C 858.007812 277.925781 830.023438 229.492188 772.695312 203.367188 Z M 772.695312 203.367188 " fill-opacity="1" fill-rule="nonzero" style="fill: rgb(180, 0, 0);"/>
  <path d="M 748.582031 260.371094 C 698.226562 226.449219 651.035156 232.773438 607.003906 279.34375 C 587.738281 299.675781 581.175781 323.050781 587.324219 349.46875 C 587.425781 349.933594 587.441406 350.402344 587.375 350.875 C 587.308594 351.347656 587.164062 351.792969 586.9375 352.210938 C 586.710938 352.632812 586.421875 353 586.0625 353.3125 C 585.707031 353.628906 585.304688 353.871094 584.859375 354.042969 C 584.417969 354.214844 583.957031 354.304688 583.480469 354.308594 C 583.003906 354.316406 582.539062 354.238281 582.089844 354.082031 C 581.640625 353.921875 581.234375 353.6875 580.867188 353.382812 C 580.503906 353.078125 580.203125 352.71875 579.964844 352.304688 C 515.515625 238.476562 697.605469 172.519531 749.824219 259.132812 C 751.300781 261.554688 750.886719 261.96875 748.582031 260.371094 Z M 748.582031 260.371094 " fill-opacity="1" fill-rule="nonzero" style="fill: rgb(180, 0, 0);"/>
  <path d="M 650.355469 262.410156 C 715.25 227.128906 789.097656 311.703125 739.183594 334.929688 C 738.929688 335.050781 738.660156 335.140625 738.382812 335.199219 C 738.105469 335.253906 737.828125 335.28125 737.542969 335.273438 C 737.261719 335.265625 736.984375 335.226562 736.707031 335.15625 C 736.433594 335.082031 736.171875 334.980469 735.921875 334.847656 C 735.675781 334.710938 735.441406 334.550781 735.230469 334.363281 C 735.019531 334.175781 734.832031 333.96875 734.667969 333.734375 C 734.503906 333.503906 734.371094 333.257812 734.265625 332.996094 C 734.160156 332.730469 734.085938 332.460938 734.042969 332.179688 C 727.304688 284.011719 699.910156 262.441406 651.863281 267.464844 C 651.542969 267.515625 651.226562 267.507812 650.910156 267.445312 C 650.59375 267.378906 650.300781 267.261719 650.027344 267.089844 C 649.753906 266.917969 649.519531 266.703125 649.324219 266.445312 C 649.128906 266.191406 648.984375 265.90625 648.894531 265.597656 C 648.800781 265.289062 648.765625 264.972656 648.789062 264.652344 C 648.8125 264.332031 648.890625 264.023438 649.023438 263.730469 C 649.160156 263.4375 649.339844 263.175781 649.570312 262.949219 C 649.796875 262.722656 650.058594 262.542969 650.355469 262.410156 Z M 650.355469 262.410156 " fill-opacity="1" fill-rule="nonzero" style="fill: rgb(180, 0, 0);"/>
  <path d="M 481.382812 470.480469 L 480.941406 473.9375 C 480.773438 475.085938 480.859375 476.21875 481.199219 477.335938 C 481.542969 478.453125 482.105469 479.449219 482.890625 480.320312 C 573.757812 579.167969 748.402344 652.128906 869.328125 567.640625 C 869.496094 567.523438 869.679688 567.425781 869.875 567.355469 C 870.070312 567.28125 870.273438 567.234375 870.480469 567.210938 C 870.6875 567.191406 870.890625 567.195312 871.097656 567.226562 C 871.300781 567.253906 871.496094 567.3125 871.683594 567.390625 C 871.871094 567.472656 872.046875 567.574219 872.207031 567.699219 C 872.363281 567.828125 872.503906 567.96875 872.625 568.132812 C 872.742188 568.292969 872.839844 568.46875 872.910156 568.65625 C 872.984375 568.84375 873.03125 569.039062 873.050781 569.238281 C 884.484375 661.347656 855.941406 728.101562 752.304688 722.339844 C 597.339844 713.828125 492.820312 606.648438 468.792969 456.117188 C 463.03125 420.300781 460.371094 275.796875 505.851562 264.097656 C 508.390625 263.445312 509.425781 264.421875 508.953125 267.019531 C 490.515625 360.726562 552.304688 428.101562 625.886719 475.53125 C 678.902344 509.8125 733.007812 542.554688 788.210938 573.757812 C 788.535156 573.929688 788.820312 574.152344 789.070312 574.417969 C 789.324219 574.683594 789.523438 574.984375 789.671875 575.316406 C 789.824219 575.652344 789.914062 576 789.949219 576.367188 C 789.984375 576.730469 789.957031 577.09375 789.871094 577.457031 C 789.789062 577.816406 789.648438 578.15625 789.453125 578.472656 C 789.257812 578.789062 789.015625 579.070312 788.730469 579.3125 C 788.445312 579.554688 788.128906 579.746094 787.78125 579.886719 C 787.433594 580.03125 787.074219 580.113281 786.703125 580.140625 C 668.5 587.53125 567.464844 550.710938 483.597656 469.679688 C 483.417969 469.515625 483.203125 469.40625 482.960938 469.355469 C 482.71875 469.308594 482.484375 469.324219 482.25 469.410156 C 482.015625 469.492188 481.824219 469.632812 481.667969 469.824219 C 481.511719 470.015625 481.417969 470.234375 481.382812 470.480469 Z M 481.382812 470.480469 " fill-opacity="1" fill-rule="nonzero" style="fill: rgb(180, 0, 0);"/>
  <path d="M 553.632812 664.804688 C 363.121094 641.222656 324.734375 379.519531 463.476562 270.746094 C 463.679688 270.578125 463.90625 270.453125 464.15625 270.363281 C 464.40625 270.273438 464.660156 270.222656 464.925781 270.21875 C 465.1875 270.214844 465.445312 270.25 465.699219 270.332031 C 465.949219 270.410156 466.183594 270.527344 466.394531 270.6875 C 466.605469 270.84375 466.789062 271.03125 466.9375 271.246094 C 467.089844 271.464844 467.203125 271.699219 467.273438 271.953125 C 467.347656 272.207031 467.375 272.464844 467.363281 272.730469 C 467.351562 272.992188 467.296875 273.246094 467.199219 273.492188 C 418.351562 403.988281 441.933594 568.171875 556.292969 658.597656 C 562.855469 663.800781 561.96875 665.867188 553.632812 664.804688 Z M 553.632812 664.804688 " fill-opacity="1" fill-rule="nonzero" style="fill: rgb(180, 0, 0);"/>
  <path d="M 654.167969 343.261719 C 652.15625 341.074219 649.617188 340.101562 646.542969 340.335938 C 643.351562 340.574219 642.40625 342.140625 643.707031 345.035156 C 653.8125 368.027344 670.417969 384.011719 693.527344 392.996094 C 693.839844 393.101562 694.125 393.257812 694.378906 393.464844 C 694.632812 393.671875 694.839844 393.914062 695.003906 394.199219 C 695.164062 394.480469 695.273438 394.78125 695.328125 395.105469 C 695.378906 395.429688 695.375 395.753906 695.308594 396.078125 C 695.246094 396.40625 695.128906 396.710938 694.953125 396.996094 C 694.78125 397.285156 694.566406 397.535156 694.304688 397.746094 C 694.042969 397.960938 693.753906 398.121094 693.4375 398.234375 C 693.121094 398.347656 692.796875 398.40625 692.464844 398.40625 C 565.957031 399.023438 588.828125 243.085938 691.933594 288.652344 C 692.335938 288.828125 692.722656 289.027344 693.101562 289.25 C 693.480469 289.472656 693.839844 289.714844 694.1875 289.984375 C 694.535156 290.253906 694.863281 290.542969 695.175781 290.851562 C 695.484375 291.160156 695.777344 291.488281 696.046875 291.832031 C 696.316406 292.175781 696.5625 292.539062 696.789062 292.914062 C 697.015625 293.289062 697.214844 293.679688 697.390625 294.078125 C 697.570312 294.480469 697.71875 294.890625 697.847656 295.3125 C 697.972656 295.730469 698.070312 296.15625 698.144531 296.589844 C 698.214844 297.023438 698.261719 297.457031 698.277344 297.894531 C 698.296875 298.332031 698.289062 298.769531 698.25 299.207031 C 698.214844 299.644531 698.152344 300.078125 698.0625 300.507812 C 697.972656 300.933594 697.855469 301.355469 697.710938 301.769531 C 697.570312 302.183594 697.402344 302.589844 697.207031 302.984375 C 697.015625 303.375 696.796875 303.757812 696.558594 304.121094 C 696.316406 304.488281 696.054688 304.839844 695.769531 305.171875 C 695.484375 305.507812 695.179688 305.820312 694.859375 306.117188 Z M 654.167969 343.261719 " fill-opacity="1" fill-rule="nonzero" style="fill: rgb(180, 0, 0);"/>
  <path d="M 654.167969 343.261719 C 709.042969 370.921875 762.5 356.207031 777.925781 294.769531 C 778.695312 291.816406 780.140625 291.429688 782.269531 293.617188 C 856.558594 368.441406 704.964844 441.578125 654.167969 343.261719 Z M 654.167969 343.261719 " fill-opacity="1" fill-rule="nonzero" style="fill: rgb(180, 0, 0);"/>
  <path d="M 703.902344 312.058594 C 704.085938 311.871094 704.285156 311.695312 704.496094 311.535156 C 704.703125 311.375 704.921875 311.226562 705.152344 311.09375 C 705.378906 310.960938 705.617188 310.84375 705.859375 310.738281 C 706.101562 310.636719 706.351562 310.546875 706.605469 310.476562 C 706.859375 310.40625 707.117188 310.351562 707.378906 310.3125 C 707.640625 310.273438 707.902344 310.253906 708.167969 310.246094 C 708.433594 310.242188 708.695312 310.253906 708.957031 310.285156 C 709.21875 310.3125 709.480469 310.359375 709.738281 310.421875 C 709.992188 310.480469 710.246094 310.558594 710.492188 310.65625 C 710.738281 310.75 710.980469 310.859375 711.210938 310.984375 C 711.445312 311.109375 711.667969 311.246094 711.882812 311.398438 C 712.097656 311.554688 712.304688 311.71875 712.496094 311.898438 C 712.691406 312.078125 712.875 312.269531 713.042969 312.472656 C 713.210938 312.675781 713.367188 312.886719 713.511719 313.109375 C 713.652344 313.332031 713.78125 313.566406 713.894531 313.804688 C 714.003906 314.042969 714.101562 314.289062 714.183594 314.539062 L 721.1875 336.523438 C 721.332031 336.980469 721.421875 337.445312 721.457031 337.921875 C 721.492188 338.398438 721.476562 338.871094 721.402344 339.339844 C 721.328125 339.8125 721.203125 340.269531 721.023438 340.710938 C 720.847656 341.15625 720.621094 341.570312 720.34375 341.960938 C 720.070312 342.351562 719.757812 342.707031 719.398438 343.023438 C 719.042969 343.339844 718.65625 343.613281 718.238281 343.839844 C 717.816406 344.070312 717.378906 344.246094 716.917969 344.375 C 716.460938 344.5 715.992188 344.574219 715.515625 344.59375 L 678.902344 346.1875 C 678.53125 346.203125 678.164062 346.164062 677.808594 346.066406 C 677.449219 345.972656 677.109375 345.828125 676.796875 345.632812 C 676.480469 345.4375 676.199219 345.203125 675.957031 344.921875 C 675.710938 344.644531 675.511719 344.335938 675.359375 343.996094 C 675.207031 343.660156 675.109375 343.304688 675.0625 342.9375 C 675.015625 342.570312 675.023438 342.203125 675.085938 341.839844 C 675.148438 341.472656 675.261719 341.125 675.429688 340.792969 C 675.597656 340.460938 675.808594 340.160156 676.0625 339.894531 Z M 703.902344 312.058594 " fill-opacity="1" fill-rule="nonzero" style="fill: rgb(180, 0, 0);"/>
  <path d="M 386.613281 576.417969 C 278.28125 604.253906 276.773438 492.019531 307.980469 428.722656 C 329.875 384.398438 305.140625 307.710938 385.726562 313.03125 C 389.570312 313.269531 390.601562 315.070312 388.828125 318.441406 C 344.917969 402.71875 344.976562 486.9375 389.007812 571.097656 C 390.425781 573.878906 389.628906 575.648438 386.613281 576.417969 Z M 386.613281 576.417969 " fill-opacity="1" fill-rule="nonzero" style="fill: rgb(180, 0, 0);"/>
  <path d="M 724.113281 509.929688 C 789.980469 494.148438 825.441406 451.328125 843.792969 387.410156 C 844.164062 386.042969 844.769531 384.785156 845.609375 383.640625 C 846.453125 382.492188 847.472656 381.535156 848.671875 380.761719 C 873.257812 365.101562 891.046875 343.914062 902.039062 317.199219 C 902.144531 316.925781 902.292969 316.675781 902.476562 316.453125 C 902.664062 316.226562 902.878906 316.035156 903.125 315.878906 C 903.375 315.722656 903.636719 315.609375 903.921875 315.535156 C 904.207031 315.464844 904.492188 315.4375 904.785156 315.457031 C 905.074219 315.476562 905.355469 315.542969 905.628906 315.652344 C 905.898438 315.761719 906.144531 315.910156 906.371094 316.097656 C 906.59375 316.285156 906.78125 316.503906 906.9375 316.753906 C 907.089844 317.003906 907.199219 317.269531 907.269531 317.554688 C 928.722656 402.660156 907.269531 520.125 825.976562 570.035156 C 821.128906 572.992188 816.28125 572.960938 811.4375 569.945312 L 723.226562 515.425781 C 719.148438 512.882812 719.445312 511.050781 724.113281 509.929688 Z M 724.113281 509.929688 " fill-opacity="1" fill-rule="nonzero" style="fill: rgb(180, 0, 0);"/>
  <path d="M 943.792969 416.222656 C 1063.476562 513.652344 996.363281 665.515625 868.972656 712.765625 C 863.59375 714.777344 862.617188 713.503906 866.046875 708.953125 C 901.800781 661.378906 909.457031 609.070312 889.007812 552.039062 C 888.0625 549.320312 888.417969 546.808594 890.070312 544.503906 C 916.015625 507.625 930.261719 466.488281 932.800781 421.097656 C 932.832031 420.476562 932.949219 419.871094 933.148438 419.28125 C 933.347656 418.691406 933.625 418.136719 933.976562 417.625 C 934.328125 417.113281 934.746094 416.65625 935.226562 416.257812 C 935.703125 415.859375 936.230469 415.535156 936.796875 415.28125 C 937.367188 415.027344 937.960938 414.859375 938.578125 414.769531 C 939.195312 414.683594 939.8125 414.679688 940.429688 414.761719 C 941.046875 414.847656 941.640625 415.011719 942.214844 415.261719 C 942.785156 415.507812 943.3125 415.828125 943.792969 416.222656 Z M 943.792969 416.222656 " fill-opacity="1" fill-rule="nonzero" style="fill: rgb(180, 0, 0);"/>
  <path d="M 673.847656 472.605469 C 735.195312 465.425781 765.515625 466.667969 811.082031 425.441406 C 811.273438 425.269531 811.492188 425.132812 811.730469 425.035156 C 811.972656 424.9375 812.222656 424.882812 812.480469 424.871094 C 812.738281 424.859375 812.992188 424.894531 813.242188 424.972656 C 813.488281 425.050781 813.714844 425.171875 813.921875 425.328125 C 814.128906 425.488281 814.300781 425.675781 814.4375 425.894531 C 814.578125 426.113281 814.675781 426.351562 814.734375 426.605469 C 814.789062 426.855469 814.800781 427.113281 814.769531 427.371094 C 814.734375 427.628906 814.65625 427.871094 814.539062 428.101562 C 789.449219 477.039062 724.558594 522.785156 672.074219 478.636719 C 667.996094 475.207031 668.585938 473.199219 673.847656 472.605469 Z M 673.847656 472.605469 " fill-opacity="1" fill-rule="nonzero" style="fill: rgb(180, 0, 0);"/>
  <path d="M 621.542969 698.226562 C 622.25 698.257812 622.941406 698.390625 623.613281 698.617188 C 624.289062 698.84375 624.914062 699.160156 625.496094 699.566406 C 626.082031 699.96875 626.597656 700.449219 627.042969 701 C 627.492188 701.550781 627.855469 702.152344 628.132812 702.804688 C 628.410156 703.457031 628.59375 704.136719 628.679688 704.839844 C 628.765625 705.546875 628.753906 706.25 628.640625 706.949219 C 628.527344 707.648438 628.320312 708.320312 628.019531 708.964844 C 627.714844 709.605469 627.328125 710.195312 626.863281 710.726562 C 621.957031 716.222656 615.75 720.980469 608.246094 725 C 558.71875 751.714844 525.117188 766.3125 507.445312 768.792969 C 431.648438 779.609375 417.640625 707.710938 367.554688 680.496094 C 361.464844 677.1875 346.660156 673.996094 323.136719 670.921875 C 318.648438 670.390625 318.441406 669.121094 322.519531 667.109375 C 350.710938 653.191406 388.5625 620.125 424.644531 625.796875 C 426.011719 626.023438 427.292969 626.496094 428.488281 627.21875 C 429.683594 627.9375 430.707031 628.851562 431.558594 629.964844 C 481.472656 696.984375 544.945312 694.945312 621.542969 698.226562 Z M 621.542969 698.226562 " fill-opacity="1" fill-rule="nonzero" style="fill: rgb(180, 0, 0);"/>
  <path d="M 892.109375 923.226562 C 891.644531 923.230469 891.195312 923.308594 890.757812 923.46875 C 890.320312 923.628906 889.921875 923.855469 889.566406 924.15625 C 889.207031 924.453125 888.914062 924.804688 888.679688 925.207031 C 888.445312 925.609375 888.285156 926.039062 888.199219 926.496094 C 888.117188 926.953125 888.113281 927.410156 888.1875 927.871094 C 888.265625 928.328125 888.417969 928.761719 888.644531 929.167969 C 888.871094 929.574219 889.160156 929.929688 889.511719 930.234375 C 889.863281 930.535156 890.257812 930.773438 890.691406 930.941406 L 930.320312 946.277344 C 930.707031 946.40625 931.058594 946.597656 931.375 946.855469 C 931.691406 947.109375 931.953125 947.414062 932.160156 947.765625 C 932.367188 948.117188 932.503906 948.496094 932.574219 948.894531 C 932.644531 949.296875 932.640625 949.699219 932.5625 950.097656 C 932.488281 950.5 932.34375 950.875 932.132812 951.222656 C 931.921875 951.570312 931.65625 951.871094 931.335938 952.121094 C 931.015625 952.375 930.660156 952.5625 930.269531 952.683594 C 929.882812 952.808594 929.484375 952.859375 929.078125 952.835938 C 908.421875 953.101562 893.617188 951.949219 874.378906 961.523438 C 849.46875 973.9375 780.230469 1002.394531 765.691406 971.367188 C 765.355469 970.632812 764.851562 970.046875 764.175781 969.605469 C 763.5 969.167969 762.757812 968.941406 761.953125 968.933594 C 761.144531 968.921875 760.398438 969.128906 759.714844 969.554688 C 759.027344 969.976562 758.507812 970.550781 758.15625 971.277344 L 731.828125 1023.050781 C 731.671875 1023.34375 731.550781 1023.648438 731.453125 1023.964844 C 731.359375 1024.28125 731.292969 1024.601562 731.257812 1024.929688 C 731.21875 1025.257812 731.214844 1025.585938 731.242188 1025.917969 C 731.265625 1026.246094 731.320312 1026.570312 731.40625 1026.890625 C 731.492188 1027.207031 731.609375 1027.515625 731.75 1027.8125 C 731.894531 1028.113281 732.0625 1028.394531 732.261719 1028.660156 C 732.457031 1028.925781 732.675781 1029.171875 732.917969 1029.398438 C 733.15625 1029.621094 733.417969 1029.824219 733.695312 1030 C 733.976562 1030.175781 734.269531 1030.324219 734.574219 1030.449219 C 734.882812 1030.570312 735.199219 1030.664062 735.523438 1030.726562 C 735.847656 1030.789062 736.171875 1030.824219 736.503906 1030.824219 C 736.835938 1030.828125 737.160156 1030.800781 737.488281 1030.742188 C 737.8125 1030.683594 738.128906 1030.59375 738.4375 1030.476562 C 738.746094 1030.359375 739.042969 1030.214844 739.324219 1030.042969 C 739.605469 1029.871094 739.867188 1029.671875 740.113281 1029.449219 C 740.359375 1029.230469 740.582031 1028.988281 740.78125 1028.722656 C 776.949219 981.382812 843.261719 986.4375 890.160156 1012.410156 C 892.9375 1013.949219 892.878906 1015.335938 889.980469 1016.578125 C 831.914062 1041.578125 789.183594 1062.765625 735.550781 1036.703125 C 734.910156 1036.390625 734.238281 1036.175781 733.535156 1036.0625 C 732.832031 1035.949219 732.128906 1035.9375 731.425781 1036.035156 C 730.726562 1036.128906 730.050781 1036.324219 729.410156 1036.617188 C 728.769531 1036.914062 728.183594 1037.296875 727.660156 1037.765625 C 660.34375 1098.996094 628.664062 1176.003906 632.625 1268.792969 C 632.640625 1269.15625 632.625 1269.511719 632.570312 1269.871094 C 632.515625 1270.226562 632.421875 1270.574219 632.296875 1270.910156 C 632.171875 1271.25 632.015625 1271.570312 631.824219 1271.878906 C 631.632812 1272.183594 631.414062 1272.46875 631.164062 1272.730469 C 630.914062 1272.988281 630.640625 1273.222656 630.347656 1273.429688 C 630.050781 1273.636719 629.734375 1273.808594 629.402344 1273.949219 C 629.074219 1274.09375 628.730469 1274.199219 628.375 1274.273438 C 628.023438 1274.34375 627.664062 1274.378906 627.304688 1274.378906 L 604.519531 1274.378906 C 604.136719 1274.378906 603.753906 1274.34375 603.375 1274.269531 C 602.996094 1274.191406 602.625 1274.082031 602.269531 1273.9375 C 601.910156 1273.789062 601.570312 1273.609375 601.25 1273.398438 C 600.925781 1273.183594 600.628906 1272.941406 600.351562 1272.671875 C 600.078125 1272.398438 599.832031 1272.105469 599.613281 1271.785156 C 599.394531 1271.464844 599.210938 1271.128906 599.058594 1270.773438 C 598.90625 1270.417969 598.789062 1270.050781 598.710938 1269.675781 C 598.628906 1269.296875 598.585938 1268.914062 598.582031 1268.527344 C 595.980469 1162.675781 603.988281 1057.59375 622.605469 953.28125 C 622.835938 952.023438 622.824219 950.765625 622.582031 949.511719 C 622.335938 948.257812 621.871094 947.089844 621.1875 946.011719 C 599.113281 911.171875 539.007812 894.769531 500.976562 909.664062 C 500.535156 909.855469 500.140625 910.121094 499.792969 910.453125 C 499.441406 910.785156 499.164062 911.167969 498.949219 911.601562 C 498.738281 912.035156 498.605469 912.488281 498.554688 912.96875 C 498.503906 913.445312 498.539062 913.921875 498.65625 914.386719 C 498.773438 914.855469 498.964844 915.289062 499.234375 915.6875 C 499.503906 916.085938 499.835938 916.425781 500.226562 916.707031 C 500.617188 916.988281 501.046875 917.195312 501.507812 917.324219 C 501.972656 917.457031 502.445312 917.5 502.925781 917.464844 L 534.398438 913.476562 C 535.097656 913.382812 535.800781 913.359375 536.507812 913.398438 C 537.214844 913.441406 537.910156 913.546875 538.597656 913.71875 C 539.28125 913.890625 539.945312 914.125 540.589844 914.421875 C 541.230469 914.71875 541.839844 915.074219 542.414062 915.484375 C 542.988281 915.898438 543.519531 916.359375 544.007812 916.871094 C 544.496094 917.382812 544.933594 917.9375 545.316406 918.53125 C 545.699219 919.125 546.023438 919.75 546.289062 920.40625 C 546.554688 921.0625 546.757812 921.734375 546.898438 922.429688 C 553.339844 953.636719 548.019531 982.652344 530.941406 1009.484375 C 528.929688 1012.675781 526.035156 1014.035156 522.25 1013.5625 L 516.933594 1012.855469 C 514.863281 1012.558594 513.328125 1013.328125 512.324219 1015.160156 C 499.558594 1038.445312 481.414062 1056.382812 457.890625 1068.972656 C 457.367188 1069.257812 456.8125 1069.363281 456.226562 1069.292969 C 455.636719 1069.21875 455.121094 1068.980469 454.675781 1068.578125 C 454.234375 1068.171875 453.941406 1067.671875 453.796875 1067.082031 C 453.65625 1066.488281 453.691406 1065.90625 453.902344 1065.335938 L 465.515625 1035.105469 C 467.289062 1030.554688 466.015625 1029.402344 461.703125 1031.648438 L 368.171875 1080.761719 C 367.644531 1081.050781 367.082031 1081.167969 366.484375 1081.109375 C 365.886719 1081.050781 365.351562 1080.832031 364.882812 1080.445312 C 364.410156 1080.0625 364.078125 1079.578125 363.886719 1078.988281 C 363.695312 1078.402344 363.675781 1077.8125 363.828125 1077.214844 L 367.996094 1062.058594 C 368.160156 1061.472656 368.21875 1060.878906 368.167969 1060.273438 C 368.121094 1059.667969 367.96875 1059.089844 367.710938 1058.542969 C 367.453125 1057.992188 367.109375 1057.503906 366.675781 1057.078125 C 366.242188 1056.652344 365.75 1056.316406 365.195312 1056.070312 C 364.640625 1055.824219 364.058594 1055.679688 363.453125 1055.640625 C 362.847656 1055.601562 362.253906 1055.671875 361.675781 1055.847656 C 361.09375 1056.019531 360.5625 1056.292969 360.078125 1056.660156 C 359.59375 1057.027344 359.191406 1057.464844 358.867188 1057.980469 C 332.210938 1099.46875 299.203125 1134.871094 259.839844 1164.183594 C 259.445312 1164.449219 259.011719 1164.640625 258.550781 1164.753906 C 258.085938 1164.871094 257.617188 1164.902344 257.140625 1164.851562 C 256.667969 1164.800781 256.214844 1164.671875 255.785156 1164.460938 C 255.355469 1164.253906 254.976562 1163.976562 254.640625 1163.632812 C 254.308594 1163.292969 254.046875 1162.902344 253.851562 1162.464844 C 253.65625 1162.03125 253.539062 1161.574219 253.503906 1161.097656 C 253.46875 1160.621094 253.515625 1160.152344 253.644531 1159.695312 C 253.773438 1159.234375 253.976562 1158.808594 254.253906 1158.421875 C 278.457031 1127.835938 284.929688 1089.539062 298.050781 1053.457031 C 299.230469 1050.03125 298.019531 1048.316406 294.414062 1048.316406 L 290.425781 1048.316406 C 286.289062 1048.316406 285.105469 1046.453125 286.878906 1042.730469 C 297.046875 1021.097656 311.671875 1003.339844 330.761719 989.449219 C 331.109375 989.183594 331.410156 988.867188 331.660156 988.507812 C 331.910156 988.144531 332.101562 987.757812 332.230469 987.335938 C 332.359375 986.917969 332.421875 986.488281 332.417969 986.046875 C 332.417969 985.609375 332.347656 985.179688 332.210938 984.761719 C 332.074219 984.34375 331.878906 983.957031 331.625 983.601562 C 331.367188 983.242188 331.0625 982.933594 330.710938 982.671875 C 330.359375 982.40625 329.976562 982.203125 329.5625 982.058594 C 329.144531 981.917969 328.71875 981.839844 328.28125 981.828125 L 314.980469 981.828125 C 314.242188 981.835938 313.558594 981.644531 312.933594 981.257812 C 312.304688 980.871094 311.828125 980.34375 311.503906 979.679688 C 311.183594 979.015625 311.0625 978.316406 311.148438 977.582031 C 311.230469 976.847656 311.503906 976.195312 311.96875 975.621094 C 328.042969 956 347.429688 940.808594 370.125 930.054688 C 370.566406 929.859375 370.960938 929.597656 371.3125 929.265625 C 371.660156 928.933594 371.945312 928.550781 372.160156 928.121094 C 372.378906 927.691406 372.519531 927.238281 372.578125 926.757812 C 372.636719 926.28125 372.617188 925.808594 372.511719 925.335938 C 372.40625 924.867188 372.226562 924.425781 371.96875 924.019531 C 371.710938 923.609375 371.394531 923.257812 371.015625 922.960938 C 370.636719 922.664062 370.21875 922.4375 369.761719 922.285156 C 369.300781 922.132812 368.832031 922.0625 368.351562 922.074219 L 350.976562 921.808594 C 344.414062 921.691406 343.734375 919.621094 348.9375 915.601562 C 370.273438 899.113281 393.941406 887.914062 419.945312 882.003906 C 423.847656 881.117188 424.4375 879.226562 421.71875 876.328125 C 416.8125 871.1875 410.636719 868.707031 403.191406 868.882812 C 402.832031 868.894531 402.480469 868.839844 402.144531 868.71875 C 401.804688 868.597656 401.5 868.421875 401.230469 868.191406 C 400.960938 867.957031 400.742188 867.679688 400.574219 867.363281 C 400.40625 867.046875 400.300781 866.707031 400.257812 866.347656 C 400.214844 865.988281 400.234375 865.632812 400.320312 865.277344 C 400.40625 864.917969 400.554688 864.589844 400.757812 864.285156 C 400.964844 863.976562 401.214844 863.71875 401.511719 863.503906 C 401.808594 863.285156 402.132812 863.128906 402.480469 863.03125 C 449.558594 851.863281 497.785156 849.824219 533.597656 888.742188 C 535.785156 891.164062 538.503906 892.554688 541.753906 892.90625 C 571.484375 895.980469 597.429688 907.328125 619.59375 926.949219 C 624.023438 930.851562 626.625 929.875 627.394531 924.023438 L 653.632812 719.503906 C 654.109375 715.957031 656.027344 714.746094 659.398438 715.867188 L 676.152344 721.453125 C 679.519531 722.578125 681.117188 724.910156 680.941406 728.457031 C 672.871094 865.160156 643.441406 1004.34375 628.636719 1141.3125 C 628.339844 1144.386719 629.789062 1148.9375 632.980469 1154.964844 C 634.277344 1157.328125 635.285156 1157.238281 635.992188 1154.699219 C 650.296875 1103.695312 678.988281 1062.824219 722.074219 1032.09375 C 724.675781 1030.199219 724.910156 1028.015625 722.785156 1025.53125 C 696.070312 994.503906 685.253906 958.125 690.335938 916.402344 C 690.363281 916.15625 690.425781 915.917969 690.527344 915.695312 C 690.632812 915.472656 690.769531 915.269531 690.941406 915.089844 C 691.109375 914.910156 691.304688 914.765625 691.527344 914.652344 C 691.746094 914.539062 691.976562 914.464844 692.222656 914.429688 C 692.464844 914.394531 692.710938 914.398438 692.953125 914.445312 C 693.195312 914.492188 693.425781 914.574219 693.640625 914.695312 C 693.855469 914.820312 694.042969 914.972656 694.207031 915.160156 C 694.371094 915.34375 694.5 915.550781 694.59375 915.78125 L 709.574219 953.546875 C 709.855469 954.234375 710.292969 954.792969 710.894531 955.230469 C 711.496094 955.664062 712.164062 955.90625 712.898438 955.953125 C 713.628906 956.003906 714.3125 955.847656 714.949219 955.492188 C 715.582031 955.136719 716.066406 954.636719 716.402344 953.988281 C 718.882812 949.320312 719.058594 944.652344 716.933594 939.980469 C 715.929688 937.738281 715.691406 935.402344 716.222656 932.980469 C 727.277344 882.980469 756.027344 847.753906 802.480469 827.304688 C 802.933594 827.121094 803.394531 827.078125 803.875 827.167969 C 804.351562 827.257812 804.765625 827.46875 805.117188 827.804688 C 805.472656 828.136719 805.707031 828.539062 805.824219 829.011719 C 805.941406 829.484375 805.917969 829.949219 805.761719 830.40625 L 792.730469 865.957031 C 792.5625 866.382812 792.472656 866.824219 792.460938 867.28125 C 792.453125 867.734375 792.523438 868.175781 792.675781 868.605469 C 792.828125 869.035156 793.054688 869.421875 793.347656 869.773438 C 793.644531 870.121094 793.992188 870.40625 794.394531 870.632812 C 794.796875 870.855469 795.226562 871.003906 795.683594 871.078125 C 796.140625 871.152344 796.597656 871.144531 797.054688 871.058594 C 797.511719 870.972656 797.941406 870.808594 798.339844 870.570312 C 798.738281 870.335938 799.085938 870.039062 799.378906 869.679688 C 833.480469 827.777344 877.421875 817.050781 931.207031 837.5 C 997.695312 862.765625 1031.558594 940.78125 1034.398438 1007.710938 C 1034.394531 1007.984375 1034.347656 1008.246094 1034.257812 1008.5 C 1034.167969 1008.753906 1034.039062 1008.988281 1033.875 1009.199219 C 1033.707031 1009.414062 1033.511719 1009.59375 1033.289062 1009.742188 C 1033.0625 1009.894531 1032.820312 1010.003906 1032.558594 1010.074219 C 1032.300781 1010.144531 1032.035156 1010.167969 1031.765625 1010.152344 C 1031.496094 1010.136719 1031.238281 1010.078125 1030.988281 1009.976562 C 1030.734375 1009.875 1030.507812 1009.738281 1030.304688 1009.5625 C 1030.097656 1009.386719 1029.925781 1009.183594 1029.789062 1008.953125 C 1000.976562 956.117188 953.632812 922.519531 892.109375 923.226562 Z M 892.109375 923.226562 " fill-opacity="1" fill-rule="nonzero" style="fill: rgb(0, 71, 11);"/>
</svg>